%TF.GenerationSoftware,KiCad,Pcbnew,8.0.8*%
%TF.CreationDate,2025-03-07T18:47:05-08:00*%
%TF.ProjectId,ROCKETRY Camera PCB,524f434b-4554-4525-9920-43616d657261,Rev2.3*%
%TF.SameCoordinates,Original*%
%TF.FileFunction,Legend,Top*%
%TF.FilePolarity,Positive*%
%FSLAX46Y46*%
G04 Gerber Fmt 4.6, Leading zero omitted, Abs format (unit mm)*
G04 Created by KiCad (PCBNEW 8.0.8) date 2025-03-07 18:47:05*
%MOMM*%
%LPD*%
G01*
G04 APERTURE LIST*
%ADD10C,0.000000*%
%ADD11C,0.100000*%
%ADD12C,0.150000*%
%ADD13C,0.120000*%
G04 APERTURE END LIST*
D10*
G36*
X158591928Y-101449563D02*
G01*
X158527277Y-101615520D01*
X158461545Y-101781053D01*
X158394858Y-101946207D01*
X158327345Y-102111021D01*
X158294950Y-102285617D01*
X158265421Y-102460743D01*
X158238690Y-102636322D01*
X158214690Y-102812271D01*
X158163015Y-103203720D01*
X158112372Y-103607571D01*
X158058627Y-104019173D01*
X157930471Y-105021439D01*
X157758483Y-104852478D01*
X157597742Y-104688121D01*
X157521605Y-104606372D01*
X157448297Y-104524218D01*
X157377824Y-104441139D01*
X157310192Y-104356617D01*
X157245408Y-104270134D01*
X157183477Y-104181169D01*
X157124405Y-104089205D01*
X157068198Y-103993722D01*
X157014862Y-103894202D01*
X156964403Y-103790125D01*
X156916826Y-103680974D01*
X156872137Y-103566229D01*
X156879974Y-103427295D01*
X156894918Y-103297178D01*
X156916772Y-103175035D01*
X156945340Y-103060024D01*
X156980425Y-102951300D01*
X157021830Y-102848020D01*
X157069360Y-102749341D01*
X157122818Y-102654419D01*
X157182007Y-102562412D01*
X157246731Y-102472476D01*
X157316793Y-102383767D01*
X157391997Y-102295443D01*
X157472146Y-102206659D01*
X157557044Y-102116573D01*
X157740301Y-101929121D01*
X157948815Y-101710529D01*
X158075783Y-101578429D01*
X158203342Y-101446898D01*
X158459636Y-101184979D01*
X158591928Y-101449563D01*
G37*
G36*
X153455291Y-101974079D02*
G01*
X153697137Y-101978729D01*
X153697137Y-102640188D01*
X153564845Y-102375605D01*
X153274424Y-102482058D01*
X152298295Y-102834689D01*
X151808322Y-103005257D01*
X151315888Y-103169355D01*
X151051304Y-102640188D01*
X151314018Y-102486684D01*
X151439590Y-102416653D01*
X151562442Y-102351258D01*
X151683428Y-102290615D01*
X151803399Y-102234841D01*
X151923208Y-102184051D01*
X152043708Y-102138363D01*
X152165752Y-102097892D01*
X152290192Y-102062756D01*
X152417880Y-102033069D01*
X152549670Y-102008949D01*
X152686414Y-101990512D01*
X152828965Y-101977874D01*
X152978175Y-101971151D01*
X153134897Y-101970461D01*
X153455291Y-101974079D01*
G37*
G36*
X165198998Y-87365991D02*
G01*
X165331101Y-87379239D01*
X165465823Y-87399455D01*
X165603387Y-87426647D01*
X165796145Y-87527472D01*
X165984314Y-87633506D01*
X166168636Y-87744279D01*
X166349856Y-87859317D01*
X166528718Y-87978149D01*
X166705966Y-88100303D01*
X166882343Y-88225307D01*
X167058595Y-88352689D01*
X167356767Y-88561462D01*
X167514659Y-88673339D01*
X167671830Y-88786233D01*
X167984636Y-89014147D01*
X167865062Y-89136601D01*
X167745999Y-89256622D01*
X167626407Y-89374027D01*
X167505249Y-89488632D01*
X167381486Y-89600254D01*
X167318302Y-89654889D01*
X167254079Y-89708709D01*
X167188685Y-89761691D01*
X167121990Y-89813814D01*
X167053866Y-89865052D01*
X166984182Y-89915384D01*
X166870908Y-90022174D01*
X166766964Y-90130742D01*
X166671947Y-90241273D01*
X166585456Y-90353953D01*
X166507090Y-90468967D01*
X166436447Y-90586499D01*
X166373125Y-90706736D01*
X166316722Y-90829862D01*
X166266838Y-90956062D01*
X166223069Y-91085522D01*
X166185015Y-91218426D01*
X166152274Y-91354961D01*
X166124445Y-91495310D01*
X166101125Y-91639660D01*
X166081913Y-91788195D01*
X166066407Y-91941100D01*
X166048046Y-92053085D01*
X166032495Y-92140991D01*
X166025046Y-92178277D01*
X166017428Y-92212377D01*
X166009349Y-92244237D01*
X166000520Y-92274801D01*
X165990649Y-92305013D01*
X165979446Y-92335819D01*
X165966620Y-92368163D01*
X165951880Y-92402991D01*
X165915497Y-92483872D01*
X165867971Y-92586022D01*
X165795669Y-92633994D01*
X165723465Y-92679992D01*
X165578972Y-92766577D01*
X165433738Y-92846795D01*
X165287011Y-92921666D01*
X165138038Y-92992208D01*
X164986065Y-93059440D01*
X164830340Y-93124382D01*
X164670110Y-93188052D01*
X164590008Y-93229069D01*
X164515134Y-93270710D01*
X164445014Y-93313193D01*
X164379176Y-93356736D01*
X164317150Y-93401557D01*
X164258461Y-93447874D01*
X164202638Y-93495905D01*
X164149210Y-93545867D01*
X164097703Y-93597978D01*
X164047646Y-93652456D01*
X163998566Y-93709519D01*
X163949992Y-93769384D01*
X163901450Y-93832270D01*
X163852470Y-93898395D01*
X163751304Y-94041230D01*
X163964210Y-93930126D01*
X164247398Y-93784915D01*
X164526450Y-93640738D01*
X164671645Y-93578777D01*
X164816757Y-93524796D01*
X164961855Y-93478639D01*
X165107003Y-93440153D01*
X165252267Y-93409182D01*
X165397713Y-93385572D01*
X165543407Y-93369169D01*
X165689415Y-93359818D01*
X165835803Y-93357364D01*
X165982637Y-93361653D01*
X166129983Y-93372530D01*
X166277906Y-93389841D01*
X166426473Y-93413431D01*
X166575749Y-93443146D01*
X166725800Y-93478831D01*
X166876693Y-93520332D01*
X167003916Y-93596623D01*
X167126984Y-93677057D01*
X167245839Y-93761621D01*
X167360425Y-93850305D01*
X167470684Y-93943098D01*
X167576558Y-94039989D01*
X167677990Y-94140967D01*
X167774923Y-94246020D01*
X167867298Y-94355138D01*
X167955060Y-94468310D01*
X168038149Y-94585525D01*
X168116510Y-94706771D01*
X168190084Y-94832039D01*
X168258813Y-94961316D01*
X168322642Y-95094592D01*
X168381511Y-95231855D01*
X168419455Y-95625929D01*
X168429595Y-96021050D01*
X168413457Y-96416391D01*
X168372569Y-96811123D01*
X168308458Y-97204418D01*
X168222650Y-97595447D01*
X168116673Y-97983383D01*
X167992053Y-98367397D01*
X167850318Y-98746661D01*
X167692995Y-99120347D01*
X167521610Y-99487626D01*
X167337690Y-99847670D01*
X167142763Y-100199651D01*
X166938356Y-100542741D01*
X166725995Y-100876111D01*
X166507207Y-101198933D01*
X166398409Y-101333931D01*
X166288542Y-101467286D01*
X166177544Y-101599182D01*
X166065351Y-101729807D01*
X165951901Y-101859346D01*
X165837132Y-101987986D01*
X165720982Y-102115913D01*
X165603387Y-102243313D01*
X165280408Y-102593679D01*
X165049818Y-102829454D01*
X164810420Y-103064487D01*
X164562526Y-103297243D01*
X164306448Y-103526190D01*
X164042497Y-103749795D01*
X163770986Y-103966524D01*
X163492225Y-104174844D01*
X163206527Y-104373222D01*
X162914203Y-104560123D01*
X162615564Y-104734016D01*
X162310924Y-104893366D01*
X162000592Y-105036640D01*
X161684882Y-105162305D01*
X161364105Y-105268828D01*
X161038571Y-105354674D01*
X160874119Y-105389365D01*
X160708594Y-105418312D01*
X160748329Y-105332044D01*
X160789818Y-105248065D01*
X160832996Y-105166165D01*
X160877800Y-105086133D01*
X160924166Y-105007758D01*
X160972028Y-104930828D01*
X161021324Y-104855133D01*
X161071989Y-104780462D01*
X161177168Y-104633345D01*
X161287052Y-104487791D01*
X161401128Y-104342110D01*
X161518882Y-104194614D01*
X161715939Y-103931490D01*
X161910207Y-103661624D01*
X162099932Y-103385296D01*
X162283359Y-103102787D01*
X162458733Y-102814378D01*
X162624298Y-102520351D01*
X162778301Y-102220987D01*
X162918986Y-101916566D01*
X163044598Y-101607370D01*
X163153382Y-101293680D01*
X163243583Y-100975776D01*
X163313447Y-100653940D01*
X163361219Y-100328453D01*
X163376271Y-100164429D01*
X163385143Y-99999596D01*
X163387613Y-99833992D01*
X163383464Y-99667650D01*
X163372476Y-99500607D01*
X163354428Y-99332896D01*
X163281383Y-99231617D01*
X163207676Y-99137521D01*
X163132936Y-99050309D01*
X163056795Y-98969682D01*
X162978882Y-98895342D01*
X162898829Y-98826987D01*
X162816265Y-98764320D01*
X162730821Y-98707041D01*
X162642126Y-98654850D01*
X162549813Y-98607449D01*
X162453510Y-98564538D01*
X162352848Y-98525817D01*
X162247458Y-98490988D01*
X162136970Y-98459750D01*
X162021014Y-98431806D01*
X161899221Y-98406855D01*
X161634114Y-98403985D01*
X161379319Y-98419146D01*
X161134042Y-98451420D01*
X160897492Y-98499889D01*
X160668877Y-98563637D01*
X160447405Y-98641745D01*
X160232285Y-98733297D01*
X160022724Y-98837376D01*
X159817932Y-98953064D01*
X159617115Y-99079444D01*
X159419482Y-99215599D01*
X159224242Y-99360611D01*
X159030602Y-99513564D01*
X158837772Y-99673540D01*
X158451368Y-100010891D01*
X158143982Y-100306291D01*
X157846714Y-100611922D01*
X157559579Y-100927279D01*
X157282592Y-101251859D01*
X157015766Y-101585158D01*
X156759117Y-101926673D01*
X156512658Y-102275900D01*
X156276405Y-102632336D01*
X156050370Y-102995477D01*
X155834569Y-103364819D01*
X155629016Y-103739859D01*
X155433725Y-104120092D01*
X155248710Y-104505017D01*
X155073987Y-104894128D01*
X154909569Y-105286922D01*
X154755470Y-105682896D01*
X154490887Y-105550604D01*
X154422108Y-105231915D01*
X154374752Y-104914975D01*
X154347608Y-104599775D01*
X154339471Y-104286303D01*
X154349132Y-103974551D01*
X154375383Y-103664507D01*
X154417016Y-103356161D01*
X154472824Y-103049504D01*
X154541599Y-102744526D01*
X154622133Y-102441215D01*
X154713218Y-102139562D01*
X154813646Y-101839557D01*
X154922210Y-101541190D01*
X155037702Y-101244451D01*
X155284637Y-100655813D01*
X154834536Y-100771568D01*
X153982881Y-100983609D01*
X153328110Y-101136894D01*
X153060701Y-101192048D01*
X152825888Y-101233167D01*
X152618129Y-101260469D01*
X152431881Y-101274172D01*
X152261603Y-101274494D01*
X152101754Y-101261653D01*
X151946791Y-101235868D01*
X151791172Y-101197355D01*
X151629356Y-101146334D01*
X151455800Y-101083022D01*
X151051304Y-100920397D01*
X151073069Y-100879504D01*
X151096454Y-100840504D01*
X151121394Y-100803320D01*
X151147823Y-100767876D01*
X151175676Y-100734093D01*
X151204885Y-100701894D01*
X151235387Y-100671203D01*
X151267114Y-100641942D01*
X151300002Y-100614034D01*
X151333983Y-100587402D01*
X151368994Y-100561968D01*
X151404968Y-100537656D01*
X151479541Y-100492086D01*
X151557176Y-100450075D01*
X151637348Y-100411005D01*
X151719531Y-100374259D01*
X151887824Y-100305266D01*
X152057847Y-100238156D01*
X152142193Y-100203763D01*
X152225392Y-100167988D01*
X152680074Y-99950579D01*
X153122079Y-99721538D01*
X153552029Y-99480990D01*
X153970546Y-99229061D01*
X154378251Y-98965878D01*
X154775768Y-98691566D01*
X155163717Y-98406253D01*
X155542721Y-98110063D01*
X155913402Y-97803124D01*
X156276381Y-97485561D01*
X156632280Y-97157500D01*
X156981721Y-96819068D01*
X157325326Y-96470390D01*
X157663717Y-96111594D01*
X157997516Y-95742804D01*
X158327345Y-95364147D01*
X159416427Y-94108054D01*
X159871131Y-93582495D01*
X160097250Y-93318688D01*
X160322055Y-93053694D01*
X160532692Y-92809983D01*
X160748107Y-92570938D01*
X160968709Y-92337067D01*
X161194905Y-92108879D01*
X161427105Y-91886880D01*
X161665715Y-91671580D01*
X161787553Y-91566600D01*
X161911146Y-91463485D01*
X162036546Y-91362299D01*
X162163804Y-91263105D01*
X162428386Y-91263105D01*
X162438722Y-90957698D01*
X162453213Y-90733986D01*
X162472377Y-90513807D01*
X162496906Y-90297199D01*
X162527492Y-90084200D01*
X162564829Y-89874849D01*
X162609607Y-89669182D01*
X162662520Y-89467239D01*
X162724260Y-89269055D01*
X162795518Y-89074671D01*
X162876988Y-88884123D01*
X162969361Y-88697449D01*
X163073330Y-88514688D01*
X163189588Y-88335876D01*
X163318826Y-88161053D01*
X163461736Y-87990256D01*
X163619012Y-87823522D01*
X163737265Y-87747049D01*
X163855252Y-87677422D01*
X163973194Y-87614649D01*
X164091313Y-87558740D01*
X164209832Y-87509704D01*
X164328972Y-87467552D01*
X164448955Y-87432291D01*
X164570004Y-87403932D01*
X164692340Y-87382484D01*
X164816185Y-87367957D01*
X164941762Y-87360359D01*
X165069292Y-87359700D01*
X165198998Y-87365991D01*
G37*
G36*
X155946096Y-105815187D02*
G01*
X155813804Y-105286022D01*
X155549220Y-105153730D01*
X155646140Y-104987001D01*
X155744618Y-104821177D01*
X155844615Y-104656265D01*
X155946096Y-104492271D01*
X156078387Y-104492271D01*
X155946096Y-105815187D01*
G37*
G36*
X156054464Y-104806534D02*
G01*
X156028777Y-105120657D01*
X156000873Y-105474123D01*
X155990164Y-105536641D01*
X155978471Y-105596921D01*
X155965739Y-105655213D01*
X155951916Y-105711761D01*
X155936948Y-105766814D01*
X155920781Y-105820619D01*
X155903364Y-105873423D01*
X155884642Y-105925472D01*
X155864562Y-105977013D01*
X155843071Y-106028295D01*
X155820116Y-106079563D01*
X155795643Y-106131065D01*
X155741932Y-106235760D01*
X155681512Y-106344355D01*
X155152345Y-106079771D01*
X155946096Y-104492271D01*
X156078387Y-104492271D01*
X156054464Y-104806534D01*
G37*
G36*
X165214938Y-88446158D02*
G01*
X165323786Y-88452631D01*
X165426326Y-88463160D01*
X165523314Y-88477842D01*
X165615507Y-88496778D01*
X165703660Y-88520066D01*
X165788531Y-88547805D01*
X165870875Y-88580095D01*
X165951448Y-88617035D01*
X166031008Y-88658724D01*
X166110310Y-88705262D01*
X166190111Y-88756747D01*
X166271167Y-88813279D01*
X166354234Y-88874957D01*
X166440069Y-88941880D01*
X166529428Y-89014147D01*
X166470331Y-89099963D01*
X166413810Y-89176051D01*
X166386279Y-89210702D01*
X166359109Y-89243226D01*
X166332206Y-89273724D01*
X166305476Y-89302299D01*
X166278825Y-89329053D01*
X166252159Y-89354087D01*
X166225383Y-89377502D01*
X166198404Y-89399401D01*
X166171126Y-89419886D01*
X166143457Y-89439057D01*
X166115302Y-89457018D01*
X166086567Y-89473868D01*
X166057158Y-89489711D01*
X166026980Y-89504648D01*
X165963942Y-89532211D01*
X165896702Y-89557371D01*
X165824505Y-89580941D01*
X165746599Y-89603736D01*
X165662231Y-89626569D01*
X165471095Y-89675605D01*
X165246819Y-89684907D01*
X165168788Y-89687233D01*
X165103159Y-89688008D01*
X165042181Y-89687233D01*
X164978102Y-89684907D01*
X164809636Y-89675605D01*
X164760028Y-89220853D01*
X164677344Y-88749564D01*
X164412761Y-88617272D01*
X164431967Y-88598755D01*
X164451140Y-88581624D01*
X164470300Y-88565823D01*
X164489463Y-88551299D01*
X164508647Y-88537998D01*
X164527870Y-88525866D01*
X164547149Y-88514849D01*
X164566502Y-88504892D01*
X164585947Y-88495943D01*
X164605501Y-88487945D01*
X164625182Y-88480847D01*
X164645007Y-88474593D01*
X164685162Y-88464403D01*
X164726106Y-88456942D01*
X164767981Y-88451779D01*
X164810929Y-88448480D01*
X164855089Y-88446614D01*
X164900603Y-88445749D01*
X164996259Y-88445288D01*
X165099025Y-88443639D01*
X165214938Y-88446158D01*
G37*
G36*
X152206147Y-93226688D02*
G01*
X152771095Y-93247480D01*
X152702431Y-93471465D01*
X152390757Y-94495983D01*
X152282753Y-94848158D01*
X152133383Y-95321867D01*
X152019489Y-95695900D01*
X151934198Y-96004308D01*
X151900131Y-96144542D01*
X151870637Y-96281138D01*
X151844857Y-96418352D01*
X151821933Y-96560440D01*
X151781212Y-96876262D01*
X151741600Y-97262654D01*
X151696225Y-97753665D01*
X151712762Y-98274563D01*
X152023854Y-97969155D01*
X152452058Y-97561237D01*
X152896395Y-97153266D01*
X153124863Y-96952204D01*
X153357665Y-96754662D01*
X153594902Y-96561816D01*
X153836672Y-96374845D01*
X154083077Y-96194925D01*
X154334217Y-96023235D01*
X154590191Y-95860952D01*
X154851101Y-95709254D01*
X155117046Y-95569317D01*
X155388127Y-95442320D01*
X155664443Y-95329440D01*
X155946096Y-95231855D01*
X156244268Y-95261828D01*
X156349559Y-95273713D01*
X156440122Y-95285599D01*
X156526809Y-95299035D01*
X156620473Y-95315571D01*
X156872137Y-95364147D01*
X156869484Y-95439597D01*
X156861681Y-95514048D01*
X156848966Y-95587516D01*
X156831575Y-95660016D01*
X156809746Y-95731564D01*
X156783713Y-95802174D01*
X156753715Y-95871863D01*
X156719988Y-95940645D01*
X156682768Y-96008536D01*
X156642293Y-96075551D01*
X156552521Y-96207015D01*
X156452565Y-96335161D01*
X156344320Y-96460110D01*
X156229678Y-96581986D01*
X156110532Y-96700911D01*
X155866304Y-96930401D01*
X155626781Y-97149561D01*
X155513518Y-97255574D01*
X155407110Y-97359374D01*
X155146319Y-97596417D01*
X154880477Y-97824804D01*
X154609747Y-98044889D01*
X154334288Y-98257030D01*
X154054262Y-98461582D01*
X153769829Y-98658901D01*
X153481150Y-98849345D01*
X153188386Y-99033269D01*
X152891698Y-99211029D01*
X152591247Y-99382981D01*
X152287192Y-99549482D01*
X151979696Y-99710888D01*
X151355021Y-100019838D01*
X150718508Y-100312682D01*
X150564925Y-100378266D01*
X150444692Y-100430949D01*
X150347755Y-100476301D01*
X150304882Y-100497969D01*
X150264063Y-100519894D01*
X150224041Y-100542772D01*
X150183561Y-100567300D01*
X150141366Y-100594173D01*
X150096199Y-100624089D01*
X149991922Y-100695834D01*
X149860679Y-100788105D01*
X150118452Y-100938636D01*
X150373248Y-101080708D01*
X150627529Y-101213582D01*
X150755246Y-101276339D01*
X150883757Y-101336520D01*
X151013369Y-101394032D01*
X151144391Y-101448783D01*
X151277129Y-101500681D01*
X151411893Y-101549634D01*
X151548989Y-101595549D01*
X151688724Y-101638334D01*
X151831407Y-101677897D01*
X151977346Y-101714146D01*
X151923237Y-101766754D01*
X151871153Y-101814326D01*
X151820641Y-101857293D01*
X151771247Y-101896088D01*
X151722518Y-101931143D01*
X151674002Y-101962892D01*
X151625246Y-101991768D01*
X151575797Y-102018202D01*
X151525202Y-102042627D01*
X151473008Y-102065476D01*
X151418763Y-102087182D01*
X151362014Y-102108177D01*
X151239189Y-102149767D01*
X151100913Y-102193705D01*
X150773285Y-102298090D01*
X150522137Y-102375605D01*
X150220378Y-102057318D01*
X149925679Y-101730146D01*
X149639809Y-101394129D01*
X149364542Y-101049305D01*
X149101647Y-100695717D01*
X148852898Y-100333403D01*
X148620064Y-99962403D01*
X148404918Y-99582759D01*
X148209231Y-99194510D01*
X148034774Y-98797695D01*
X147883319Y-98392356D01*
X147756638Y-97978532D01*
X147656501Y-97556263D01*
X147616941Y-97341975D01*
X147584681Y-97125590D01*
X147559943Y-96907114D01*
X147542949Y-96686552D01*
X147533919Y-96463909D01*
X147533075Y-96239190D01*
X147547069Y-96057748D01*
X147568380Y-95887470D01*
X147596998Y-95727284D01*
X147632911Y-95576115D01*
X147676108Y-95432887D01*
X147726578Y-95296527D01*
X147784308Y-95165961D01*
X147849287Y-95040114D01*
X147921504Y-94917912D01*
X148000947Y-94798280D01*
X148087605Y-94680144D01*
X148181466Y-94562430D01*
X148282519Y-94444063D01*
X148390752Y-94323969D01*
X148628713Y-94074303D01*
X148870739Y-93907368D01*
X149113811Y-93762801D01*
X149358186Y-93639103D01*
X149604122Y-93534772D01*
X149851879Y-93448309D01*
X150101713Y-93378214D01*
X150353882Y-93322987D01*
X150608646Y-93281127D01*
X150866261Y-93251135D01*
X151126986Y-93231511D01*
X151391079Y-93220754D01*
X151658798Y-93217365D01*
X152206147Y-93226688D01*
G37*
G36*
X158812659Y-89607171D02*
G01*
X158955118Y-89615671D01*
X159097259Y-89632984D01*
X159238980Y-89659677D01*
X159380178Y-89696315D01*
X159520751Y-89743466D01*
X159660598Y-89801696D01*
X159747761Y-89860792D01*
X159832461Y-89920910D01*
X159914606Y-89982278D01*
X159994105Y-90045128D01*
X160070868Y-90109688D01*
X160144803Y-90176189D01*
X160215819Y-90244860D01*
X160283825Y-90315933D01*
X160348730Y-90389635D01*
X160410444Y-90466198D01*
X160468874Y-90545852D01*
X160523930Y-90628825D01*
X160575521Y-90715349D01*
X160623557Y-90805653D01*
X160667945Y-90899968D01*
X160708594Y-90998522D01*
X160690363Y-91073124D01*
X160669690Y-91141615D01*
X160646517Y-91204609D01*
X160620782Y-91262721D01*
X160592425Y-91316564D01*
X160561384Y-91366751D01*
X160527599Y-91413897D01*
X160491010Y-91458615D01*
X160451555Y-91501519D01*
X160409173Y-91543222D01*
X160363805Y-91584339D01*
X160315388Y-91625483D01*
X160209168Y-91710308D01*
X160090028Y-91802607D01*
X159990986Y-91886566D01*
X159895237Y-91972816D01*
X159802524Y-92061225D01*
X159712592Y-92151659D01*
X159625186Y-92243988D01*
X159540049Y-92338077D01*
X159456927Y-92433795D01*
X159375563Y-92531009D01*
X159217089Y-92729397D01*
X159062582Y-92932181D01*
X158757293Y-93346699D01*
X158531306Y-93651854D01*
X158304608Y-93956481D01*
X158105783Y-94227137D01*
X158047399Y-94297031D01*
X158022760Y-94325819D01*
X158000296Y-94351170D01*
X157979364Y-94373588D01*
X157959319Y-94393576D01*
X157939516Y-94411636D01*
X157919312Y-94428271D01*
X157898061Y-94443984D01*
X157875120Y-94459278D01*
X157849844Y-94474655D01*
X157821589Y-94490619D01*
X157789710Y-94507673D01*
X157753563Y-94526318D01*
X157665887Y-94570396D01*
X157401303Y-94438106D01*
X157167548Y-94416254D01*
X156939585Y-94406142D01*
X156717020Y-94407607D01*
X156499459Y-94420484D01*
X156286507Y-94444610D01*
X156077770Y-94479820D01*
X155872852Y-94525951D01*
X155671359Y-94582837D01*
X155472896Y-94650317D01*
X155277069Y-94728225D01*
X155083483Y-94816397D01*
X154891743Y-94914670D01*
X154701455Y-95022880D01*
X154512224Y-95140862D01*
X154323655Y-95268453D01*
X154135353Y-95405488D01*
X153937504Y-95571442D01*
X153743343Y-95740730D01*
X153552566Y-95913226D01*
X153364869Y-96088802D01*
X153179948Y-96267330D01*
X152997500Y-96448683D01*
X152817220Y-96632734D01*
X152638804Y-96819355D01*
X152618419Y-96768576D01*
X152600594Y-96718320D01*
X152585243Y-96668556D01*
X152572279Y-96619254D01*
X152561617Y-96570386D01*
X152553169Y-96521921D01*
X152546851Y-96473830D01*
X152542576Y-96426083D01*
X152539810Y-96331504D01*
X152544182Y-96237944D01*
X152555004Y-96145168D01*
X152571587Y-96052938D01*
X152593241Y-95961016D01*
X152619279Y-95869166D01*
X152649011Y-95777149D01*
X152681748Y-95684730D01*
X152828973Y-95306270D01*
X152938108Y-95022759D01*
X153104099Y-94627625D01*
X153285056Y-94234900D01*
X153480984Y-93846178D01*
X153691889Y-93463055D01*
X153917778Y-93087122D01*
X154158654Y-92719975D01*
X154414525Y-92363206D01*
X154685396Y-92018411D01*
X154971272Y-91687181D01*
X155272159Y-91371112D01*
X155588063Y-91071796D01*
X155918990Y-90790829D01*
X156264945Y-90529803D01*
X156625933Y-90290312D01*
X157001962Y-90073950D01*
X157393035Y-89882311D01*
X157533059Y-89833827D01*
X157673786Y-89788492D01*
X157815113Y-89746874D01*
X157956940Y-89709538D01*
X158099164Y-89677051D01*
X158241682Y-89649979D01*
X158384393Y-89628889D01*
X158527194Y-89614347D01*
X158669984Y-89606919D01*
X158812659Y-89607171D01*
G37*
G36*
X164780816Y-86548055D02*
G01*
X164932288Y-86559410D01*
X165083640Y-86576834D01*
X165234737Y-86600072D01*
X165385443Y-86628870D01*
X165535623Y-86662972D01*
X165685142Y-86702123D01*
X165833863Y-86746069D01*
X165969026Y-86810367D01*
X166100202Y-86877904D01*
X166227708Y-86948576D01*
X166351863Y-87022278D01*
X166472982Y-87098907D01*
X166591385Y-87178358D01*
X166707387Y-87260526D01*
X166821307Y-87345308D01*
X166933461Y-87432600D01*
X167044167Y-87522297D01*
X167262505Y-87708491D01*
X167478858Y-87903056D01*
X167695766Y-88105159D01*
X167773988Y-88170258D01*
X167852623Y-88231973D01*
X167931754Y-88290558D01*
X168011462Y-88346264D01*
X168091830Y-88399343D01*
X168172941Y-88450046D01*
X168254876Y-88498626D01*
X168337718Y-88545335D01*
X168421549Y-88590423D01*
X168506451Y-88634144D01*
X168679798Y-88718491D01*
X168858419Y-88800390D01*
X169042970Y-88881856D01*
X169042970Y-89146439D01*
X168903637Y-89245884D01*
X168850685Y-89282550D01*
X168800349Y-89316067D01*
X168746234Y-89350601D01*
X168681945Y-89390319D01*
X168497266Y-89501973D01*
X168228930Y-89680873D01*
X168100948Y-89769754D01*
X167977473Y-89859321D01*
X167858792Y-89950370D01*
X167745190Y-90043701D01*
X167636955Y-90140111D01*
X167534373Y-90240399D01*
X167437730Y-90345363D01*
X167347315Y-90455802D01*
X167263412Y-90572513D01*
X167186309Y-90696294D01*
X167116292Y-90827945D01*
X167084030Y-90896970D01*
X167053648Y-90968262D01*
X167025180Y-91041921D01*
X166998663Y-91118045D01*
X166974133Y-91196735D01*
X166951625Y-91278091D01*
X166904134Y-91571442D01*
X166861913Y-91864498D01*
X166825144Y-92158260D01*
X166794011Y-92453730D01*
X167207423Y-92486803D01*
X167374388Y-92523769D01*
X167532200Y-92568105D01*
X167681503Y-92619703D01*
X167822942Y-92678449D01*
X167957159Y-92744234D01*
X168084800Y-92816946D01*
X168206508Y-92896475D01*
X168322928Y-92982709D01*
X168434702Y-93075538D01*
X168542475Y-93174850D01*
X168646891Y-93280536D01*
X168748594Y-93392483D01*
X168848228Y-93510581D01*
X168946437Y-93634718D01*
X169043864Y-93764785D01*
X169141154Y-93900670D01*
X169259166Y-94112590D01*
X169358441Y-94329123D01*
X169440035Y-94549779D01*
X169505010Y-94774073D01*
X169554423Y-95001516D01*
X169589333Y-95231620D01*
X169610798Y-95463899D01*
X169619879Y-95697863D01*
X169617632Y-95933026D01*
X169605118Y-96168900D01*
X169583395Y-96404997D01*
X169553521Y-96640830D01*
X169516556Y-96875911D01*
X169473558Y-97109752D01*
X169373698Y-97571764D01*
X169216451Y-98125371D01*
X169030302Y-98671335D01*
X168816368Y-99208543D01*
X168575769Y-99735881D01*
X168309623Y-100252238D01*
X168019049Y-100756501D01*
X167705167Y-101247557D01*
X167369093Y-101724293D01*
X167011948Y-102185596D01*
X166634849Y-102630355D01*
X166238916Y-103057455D01*
X165825267Y-103465785D01*
X165395021Y-103854232D01*
X164949297Y-104221683D01*
X164489213Y-104567026D01*
X164015887Y-104889147D01*
X163720287Y-105056967D01*
X163423085Y-105216423D01*
X163124093Y-105367347D01*
X162823122Y-105509572D01*
X162519986Y-105642930D01*
X162214496Y-105767253D01*
X161906464Y-105882373D01*
X161595703Y-105988123D01*
X161282025Y-106084334D01*
X160965241Y-106170839D01*
X160645164Y-106247471D01*
X160321605Y-106314060D01*
X159994378Y-106370441D01*
X159663294Y-106416444D01*
X159328165Y-106451901D01*
X158988803Y-106476646D01*
X159134822Y-106282925D01*
X159930447Y-105314242D01*
X160255764Y-104908831D01*
X160539185Y-104543499D01*
X160785533Y-104208840D01*
X160999632Y-103895449D01*
X161186308Y-103593921D01*
X161350385Y-103294850D01*
X161496688Y-102988830D01*
X161630041Y-102666457D01*
X161755268Y-102318323D01*
X161877195Y-101935024D01*
X162000646Y-101507154D01*
X162130445Y-101025308D01*
X162428386Y-99862063D01*
X162337078Y-99803972D01*
X162247748Y-99752753D01*
X162159984Y-99708123D01*
X162073371Y-99669796D01*
X161987496Y-99637485D01*
X161901944Y-99610906D01*
X161816302Y-99589772D01*
X161730155Y-99573797D01*
X161643091Y-99562697D01*
X161554695Y-99556186D01*
X161464554Y-99553977D01*
X161372253Y-99555786D01*
X161277379Y-99561326D01*
X161179517Y-99570312D01*
X161078255Y-99582459D01*
X160973178Y-99597480D01*
X160863879Y-99642833D01*
X160756652Y-99689923D01*
X160651107Y-99738785D01*
X160546855Y-99789453D01*
X160443507Y-99841964D01*
X160340672Y-99896350D01*
X160237962Y-99952648D01*
X160134986Y-100010891D01*
X160061806Y-100049100D01*
X160031180Y-100064558D01*
X160003583Y-100077812D01*
X159978306Y-100089032D01*
X159954638Y-100098386D01*
X159931870Y-100106045D01*
X159909290Y-100112178D01*
X159886190Y-100116954D01*
X159861859Y-100120543D01*
X159835587Y-100123114D01*
X159806664Y-100124838D01*
X159774380Y-100125884D01*
X159738025Y-100126421D01*
X159650262Y-100126647D01*
X159512000Y-100584000D01*
X159375343Y-101041836D01*
X159250850Y-101452121D01*
X159123162Y-101861424D01*
X158982556Y-102349834D01*
X158857673Y-102839107D01*
X158746526Y-103329642D01*
X158647131Y-103821837D01*
X158557501Y-104316090D01*
X158475650Y-104812801D01*
X158327345Y-105815187D01*
X158079078Y-105695755D01*
X157831251Y-105575409D01*
X157552199Y-105440535D01*
X157457691Y-105388758D01*
X157380213Y-105345006D01*
X157344885Y-105324120D01*
X157310244Y-105302816D01*
X157275100Y-105280288D01*
X157238264Y-105255727D01*
X157198546Y-105228326D01*
X157154754Y-105197277D01*
X157050194Y-105121005D01*
X156915065Y-105020448D01*
X156739845Y-104889147D01*
X156210678Y-106741230D01*
X157004429Y-107005814D01*
X157143362Y-107063866D01*
X157281853Y-107122977D01*
X157419867Y-107183192D01*
X157557367Y-107244558D01*
X158522666Y-107654018D01*
X159017687Y-107847688D01*
X159519711Y-108030313D01*
X160027808Y-108199141D01*
X160541047Y-108351419D01*
X161058494Y-108484392D01*
X161579218Y-108595308D01*
X162102288Y-108681413D01*
X162626772Y-108739955D01*
X163151737Y-108768179D01*
X163676253Y-108763334D01*
X164199387Y-108722665D01*
X164720208Y-108643419D01*
X165237783Y-108522844D01*
X165495063Y-108446197D01*
X165751182Y-108358185D01*
X165902043Y-108288124D01*
X166046146Y-108213578D01*
X166183762Y-108134460D01*
X166315160Y-108050682D01*
X166440610Y-107962158D01*
X166560381Y-107868802D01*
X166674743Y-107770525D01*
X166783965Y-107667240D01*
X166888318Y-107558862D01*
X166988070Y-107445303D01*
X167083492Y-107326476D01*
X167174852Y-107202294D01*
X167262422Y-107072670D01*
X167346470Y-106937518D01*
X167427265Y-106796749D01*
X167505078Y-106650278D01*
X167558457Y-106335293D01*
X167580567Y-106175999D01*
X167599231Y-106015800D01*
X167614155Y-105854919D01*
X167625044Y-105693576D01*
X167631604Y-105531995D01*
X167633539Y-105370397D01*
X167630556Y-105209004D01*
X167622360Y-105048039D01*
X167608655Y-104887724D01*
X167589148Y-104728280D01*
X167563544Y-104569930D01*
X167531548Y-104412896D01*
X167492865Y-104257400D01*
X167447202Y-104103664D01*
X167400532Y-103945655D01*
X167381425Y-103874442D01*
X167365317Y-103807369D01*
X167352346Y-103743642D01*
X167342646Y-103682470D01*
X167336353Y-103623061D01*
X167333604Y-103564624D01*
X167334533Y-103506366D01*
X167339278Y-103447496D01*
X167347974Y-103387221D01*
X167360756Y-103324750D01*
X167377761Y-103259290D01*
X167399124Y-103190051D01*
X167424982Y-103116239D01*
X167455470Y-103037064D01*
X167546013Y-102912951D01*
X167638105Y-102790849D01*
X167732211Y-102670946D01*
X167828796Y-102553430D01*
X167928325Y-102438491D01*
X168031261Y-102326317D01*
X168138071Y-102217098D01*
X168193074Y-102163655D01*
X168249219Y-102111021D01*
X168513803Y-102111021D01*
X169026433Y-103185892D01*
X169172677Y-103490782D01*
X169312251Y-103797850D01*
X169441794Y-104110047D01*
X169560415Y-104426848D01*
X169667228Y-104747729D01*
X169761343Y-105072166D01*
X169841872Y-105399633D01*
X169907926Y-105729606D01*
X169958617Y-106061561D01*
X169993056Y-106394973D01*
X170010354Y-106729318D01*
X170009623Y-107064071D01*
X169989974Y-107398709D01*
X169950518Y-107732705D01*
X169890368Y-108065536D01*
X169808635Y-108396678D01*
X169704429Y-108725605D01*
X169584906Y-108973654D01*
X169457460Y-109208657D01*
X169321948Y-109431088D01*
X169178225Y-109641423D01*
X169026149Y-109840135D01*
X168865575Y-110027700D01*
X168696362Y-110204592D01*
X168518364Y-110371286D01*
X168331438Y-110528257D01*
X168135442Y-110675980D01*
X167930231Y-110814930D01*
X167715662Y-110945580D01*
X167491592Y-111068407D01*
X167257877Y-111183885D01*
X167014373Y-111292488D01*
X166760938Y-111394691D01*
X166055218Y-111579873D01*
X165345347Y-111715359D01*
X164632579Y-111803364D01*
X163918167Y-111846106D01*
X163203364Y-111845800D01*
X162489424Y-111804663D01*
X161777600Y-111724911D01*
X161069147Y-111608759D01*
X160365316Y-111458424D01*
X159667362Y-111276122D01*
X158976539Y-111064069D01*
X158294099Y-110824482D01*
X157621296Y-110559576D01*
X156959383Y-110271568D01*
X156309615Y-109962674D01*
X155673244Y-109635109D01*
X155246913Y-109394297D01*
X155134429Y-109337783D01*
X155087830Y-109315302D01*
X155046444Y-109296528D01*
X155009361Y-109281358D01*
X154975668Y-109269684D01*
X154944455Y-109261401D01*
X154929494Y-109258498D01*
X154914810Y-109256403D01*
X154900291Y-109255103D01*
X154885822Y-109254583D01*
X154871289Y-109254833D01*
X154856578Y-109255837D01*
X154826169Y-109260057D01*
X154793682Y-109267138D01*
X154758206Y-109276974D01*
X154718829Y-109289459D01*
X154624729Y-109321951D01*
X154408490Y-109485046D01*
X154195012Y-109651259D01*
X153983930Y-109820516D01*
X153774878Y-109992743D01*
X153308175Y-110365963D01*
X152827145Y-110723717D01*
X152332934Y-111066551D01*
X151826688Y-111395012D01*
X151309555Y-111709644D01*
X150782681Y-112010995D01*
X150247212Y-112299610D01*
X149704297Y-112576036D01*
X149155080Y-112840818D01*
X148600710Y-113094502D01*
X147481094Y-113570764D01*
X146354623Y-114009189D01*
X145230471Y-114414146D01*
X145333731Y-114095455D01*
X145441529Y-113779405D01*
X145553674Y-113465614D01*
X145669980Y-113153700D01*
X145790259Y-112843278D01*
X145914322Y-112533966D01*
X146173049Y-111917141D01*
X146455202Y-111256716D01*
X146579807Y-110966875D01*
X146641698Y-110809392D01*
X146669257Y-110733021D01*
X146694592Y-110657820D01*
X146717729Y-110583480D01*
X146738693Y-110509692D01*
X146757511Y-110436148D01*
X146774207Y-110362540D01*
X146788809Y-110288558D01*
X146801340Y-110213895D01*
X146811828Y-110138242D01*
X146820297Y-110061291D01*
X146826774Y-109982732D01*
X146831285Y-109902258D01*
X146833854Y-109819560D01*
X146834507Y-109734329D01*
X146835541Y-109433571D01*
X146833171Y-109329016D01*
X146830191Y-109246689D01*
X146828088Y-109211580D01*
X146825370Y-109179293D01*
X146821886Y-109148913D01*
X146817480Y-109119530D01*
X146812000Y-109090231D01*
X146805291Y-109060104D01*
X146797201Y-109028237D01*
X146787574Y-108993717D01*
X146763099Y-108913072D01*
X146730638Y-108810871D01*
X146721199Y-108720118D01*
X146716559Y-108633141D01*
X146716454Y-108549461D01*
X146720623Y-108468598D01*
X146728800Y-108390071D01*
X146740724Y-108313401D01*
X146756131Y-108238108D01*
X146774759Y-108163713D01*
X146796344Y-108089734D01*
X146820623Y-108015692D01*
X146847333Y-107941108D01*
X146876211Y-107865501D01*
X147008140Y-107543247D01*
X147114077Y-107283154D01*
X147231877Y-107014187D01*
X147356207Y-106749524D01*
X147486810Y-106488753D01*
X147623426Y-106231467D01*
X147765795Y-105977253D01*
X147913658Y-105725702D01*
X148066756Y-105476405D01*
X148224829Y-105228951D01*
X148276252Y-105149398D01*
X148316824Y-105085155D01*
X148334187Y-105056561D01*
X148350213Y-105029139D01*
X148365360Y-105002002D01*
X148380086Y-104974266D01*
X148394850Y-104945046D01*
X148410111Y-104913455D01*
X148443953Y-104839623D01*
X148485281Y-104745686D01*
X148537762Y-104624563D01*
X148513974Y-104543362D01*
X148485945Y-104465824D01*
X148453950Y-104391624D01*
X148418263Y-104320436D01*
X148379160Y-104251935D01*
X148336912Y-104185796D01*
X148291796Y-104121694D01*
X148244085Y-104059304D01*
X148194054Y-103998299D01*
X148141976Y-103938356D01*
X148032777Y-103820352D01*
X147801890Y-103582766D01*
X147519373Y-103261819D01*
X147239400Y-102924751D01*
X146963960Y-102572818D01*
X146695043Y-102207274D01*
X146434641Y-101829377D01*
X146184742Y-101440380D01*
X145947338Y-101041541D01*
X145724417Y-100634114D01*
X145517971Y-100219355D01*
X145329990Y-99798521D01*
X145162463Y-99372866D01*
X145017381Y-98943646D01*
X144896734Y-98512116D01*
X144802512Y-98079534D01*
X144736706Y-97647153D01*
X144701304Y-97216230D01*
X144675983Y-96849327D01*
X144670580Y-96606322D01*
X144674020Y-96366691D01*
X144686523Y-96130422D01*
X144708312Y-95897504D01*
X144739607Y-95667925D01*
X144780631Y-95441673D01*
X144831604Y-95218737D01*
X144892748Y-94999105D01*
X144964284Y-94782766D01*
X145046435Y-94569708D01*
X145139420Y-94359920D01*
X145243462Y-94153390D01*
X145358782Y-93950106D01*
X145485601Y-93750058D01*
X145624141Y-93553232D01*
X145774624Y-93359618D01*
X146042667Y-93113443D01*
X146319521Y-92890334D01*
X146604752Y-92689303D01*
X146897926Y-92509361D01*
X147198609Y-92349519D01*
X147506368Y-92208789D01*
X147820769Y-92086183D01*
X148141378Y-91980712D01*
X148467761Y-91891387D01*
X148799484Y-91817220D01*
X149136113Y-91757222D01*
X149477215Y-91710405D01*
X149822355Y-91675781D01*
X150171101Y-91652360D01*
X150523018Y-91639155D01*
X150877671Y-91635176D01*
X151191541Y-91634917D01*
X151509969Y-91642058D01*
X151825689Y-91657655D01*
X152139309Y-91681633D01*
X152451435Y-91713915D01*
X152762674Y-91754425D01*
X153073633Y-91803087D01*
X153384918Y-91859825D01*
X153697137Y-91924563D01*
X153796355Y-91696154D01*
X153868093Y-91571298D01*
X153944310Y-91449304D01*
X154024836Y-91330143D01*
X154109500Y-91213784D01*
X154198130Y-91100197D01*
X154290557Y-90989354D01*
X154486118Y-90775780D01*
X154694815Y-90572824D01*
X154915284Y-90380248D01*
X155146158Y-90197817D01*
X155386072Y-90025293D01*
X155633660Y-89862438D01*
X155887557Y-89709017D01*
X156146396Y-89564793D01*
X156408812Y-89429528D01*
X156673440Y-89302985D01*
X156938913Y-89184928D01*
X157203866Y-89075120D01*
X157466932Y-88973323D01*
X157648569Y-88927789D01*
X157830386Y-88891354D01*
X158012234Y-88863913D01*
X158193967Y-88845364D01*
X158375435Y-88835604D01*
X158556491Y-88834528D01*
X158736986Y-88842034D01*
X158916771Y-88858018D01*
X159095698Y-88882378D01*
X159273620Y-88915010D01*
X159450387Y-88955810D01*
X159625852Y-89004676D01*
X159799866Y-89061505D01*
X159972281Y-89126192D01*
X160142949Y-89198635D01*
X160311721Y-89278730D01*
X160402502Y-89343236D01*
X160490457Y-89408044D01*
X160575723Y-89473372D01*
X160658439Y-89539439D01*
X160738742Y-89606463D01*
X160816770Y-89674662D01*
X160892663Y-89744255D01*
X160966557Y-89815461D01*
X161038591Y-89888497D01*
X161108903Y-89963582D01*
X161177631Y-90040935D01*
X161244913Y-90120774D01*
X161310887Y-90203317D01*
X161375692Y-90288782D01*
X161439466Y-90377389D01*
X161502345Y-90469356D01*
X161561256Y-90173249D01*
X161676072Y-89687834D01*
X161740729Y-89445025D01*
X161811354Y-89203463D01*
X161888800Y-88964135D01*
X161973918Y-88728027D01*
X162067560Y-88496125D01*
X162170579Y-88269417D01*
X162283826Y-88048887D01*
X162408154Y-87835523D01*
X162544415Y-87630311D01*
X162693460Y-87434238D01*
X162856142Y-87248289D01*
X163033312Y-87073451D01*
X163225824Y-86910711D01*
X163434528Y-86761055D01*
X163580983Y-86706311D01*
X163728537Y-86659932D01*
X163877055Y-86621662D01*
X164026402Y-86591246D01*
X164176441Y-86568429D01*
X164327037Y-86552957D01*
X164478055Y-86544574D01*
X164629360Y-86543025D01*
X164780816Y-86548055D01*
G37*
G36*
X149991937Y-105764029D02*
G01*
X150187436Y-105929361D01*
X150384643Y-106092082D01*
X150583439Y-106252495D01*
X150783702Y-106410906D01*
X151188146Y-106722938D01*
X151597007Y-107030617D01*
X151873476Y-107239132D01*
X152046915Y-107367973D01*
X152220698Y-107494670D01*
X152395352Y-107618982D01*
X152571410Y-107740672D01*
X152749399Y-107859502D01*
X152929851Y-107975231D01*
X153113296Y-108087623D01*
X153300262Y-108196438D01*
X153283096Y-108245418D01*
X153264957Y-108292371D01*
X153245855Y-108337384D01*
X153225802Y-108380547D01*
X153204809Y-108421948D01*
X153182887Y-108461675D01*
X153160049Y-108499816D01*
X153136306Y-108536461D01*
X153111668Y-108571698D01*
X153086148Y-108605615D01*
X153032506Y-108669843D01*
X152975472Y-108729852D01*
X152915137Y-108786352D01*
X152851592Y-108840048D01*
X152784929Y-108891650D01*
X152715241Y-108941864D01*
X152642617Y-108991399D01*
X152324611Y-109196894D01*
X152063031Y-109369137D01*
X151788869Y-109543034D01*
X151512695Y-109712919D01*
X151234614Y-109879160D01*
X150954734Y-110042128D01*
X150673160Y-110202190D01*
X150389998Y-110359716D01*
X149819338Y-110668638D01*
X149486606Y-110847471D01*
X149175966Y-111009186D01*
X148899336Y-111153719D01*
X148670054Y-111239145D01*
X148405471Y-111106854D01*
X148594090Y-110709980D01*
X148885679Y-110142525D01*
X149107883Y-109693349D01*
X149197119Y-109500034D01*
X149273994Y-109320593D01*
X149340168Y-109149793D01*
X149397304Y-108982401D01*
X149447062Y-108813186D01*
X149491105Y-108636914D01*
X149531095Y-108448355D01*
X149568692Y-108242275D01*
X149643355Y-107756624D01*
X149728388Y-107138105D01*
X148934637Y-106873522D01*
X148997111Y-106676356D01*
X149063563Y-106486117D01*
X149134890Y-106301523D01*
X149211991Y-106121290D01*
X149295763Y-105944136D01*
X149387106Y-105768777D01*
X149486918Y-105593930D01*
X149596096Y-105418312D01*
X149991937Y-105764029D01*
G37*
G36*
X153564845Y-105021439D02*
G01*
X152833728Y-104472067D01*
X152591649Y-104288054D01*
X152403986Y-104142526D01*
X152249810Y-104019013D01*
X152108190Y-103901042D01*
X151778908Y-103615839D01*
X151435777Y-103321283D01*
X151352537Y-103226435D01*
X151318860Y-103186024D01*
X151289985Y-103148701D01*
X151277232Y-103130824D01*
X151265542Y-103113272D01*
X151254868Y-103095897D01*
X151245163Y-103078548D01*
X151236382Y-103061077D01*
X151228479Y-103043336D01*
X151221406Y-103025175D01*
X151215118Y-103006445D01*
X151209570Y-102986998D01*
X151204714Y-102966684D01*
X151200504Y-102945354D01*
X151196894Y-102922861D01*
X151193839Y-102899053D01*
X151191292Y-102873784D01*
X151187536Y-102818262D01*
X151185258Y-102755104D01*
X151184088Y-102683118D01*
X151183596Y-102507896D01*
X151329702Y-102440315D01*
X151476311Y-102373823D01*
X151770640Y-102243313D01*
X152100852Y-102094484D01*
X152237077Y-102056276D01*
X152296774Y-102040818D01*
X152353978Y-102027563D01*
X152411027Y-102016344D01*
X152470261Y-102006990D01*
X152534016Y-101999331D01*
X152604633Y-101993199D01*
X152684448Y-101988423D01*
X152775800Y-101984834D01*
X152881027Y-101982262D01*
X153002468Y-101980538D01*
X153303345Y-101978955D01*
X153697137Y-101978729D01*
X153564845Y-105021439D01*
G37*
G36*
X149018595Y-105036501D02*
G01*
X149096597Y-105053406D01*
X149169235Y-105072346D01*
X149237099Y-105093515D01*
X149300777Y-105117108D01*
X149360861Y-105143317D01*
X149417939Y-105172337D01*
X149472602Y-105204361D01*
X149525440Y-105239583D01*
X149577043Y-105278196D01*
X149628000Y-105320395D01*
X149678902Y-105366373D01*
X149730338Y-105416323D01*
X149782898Y-105470439D01*
X149837173Y-105528916D01*
X149893752Y-105591946D01*
X150122881Y-105823358D01*
X150358848Y-106048961D01*
X150601143Y-106268985D01*
X150849254Y-106483659D01*
X151102669Y-106693210D01*
X151360877Y-106897867D01*
X151623366Y-107097860D01*
X151889624Y-107293417D01*
X152431404Y-107672136D01*
X152982123Y-108035854D01*
X153537690Y-108386401D01*
X154094012Y-108725605D01*
X153749651Y-109063898D01*
X153393526Y-109386193D01*
X153026481Y-109693532D01*
X152649360Y-109986957D01*
X152263005Y-110267508D01*
X151868260Y-110536228D01*
X151465967Y-110794158D01*
X151056969Y-111042340D01*
X150642110Y-111281815D01*
X150222233Y-111513625D01*
X149370795Y-111958415D01*
X148509401Y-112385043D01*
X147644794Y-112801842D01*
X147360735Y-112939590D01*
X147277541Y-112977780D01*
X147193899Y-113014987D01*
X147025489Y-113086878D01*
X146855938Y-113156107D01*
X146685679Y-113223520D01*
X146421096Y-113091229D01*
X146514049Y-112887333D01*
X146933726Y-111958483D01*
X147079970Y-111637829D01*
X147237909Y-111275583D01*
X147379604Y-110921760D01*
X147443553Y-110746611D01*
X147502472Y-110571894D01*
X147556038Y-110397050D01*
X147603930Y-110221519D01*
X147645823Y-110044746D01*
X147681395Y-109866170D01*
X147710324Y-109685233D01*
X147732286Y-109501378D01*
X147746959Y-109314046D01*
X147754019Y-109122679D01*
X147753145Y-108926718D01*
X147744013Y-108725605D01*
X147583815Y-108498228D01*
X147568529Y-108450540D01*
X147555791Y-108403393D01*
X147545508Y-108356758D01*
X147537586Y-108310606D01*
X147531930Y-108264908D01*
X147528446Y-108219635D01*
X147527042Y-108174757D01*
X147527623Y-108130247D01*
X147534363Y-108042211D01*
X147547916Y-107955296D01*
X147567530Y-107869270D01*
X147592454Y-107783900D01*
X147621936Y-107698954D01*
X147655226Y-107614202D01*
X147691572Y-107529412D01*
X147730222Y-107444350D01*
X147892841Y-107096764D01*
X148016864Y-106802465D01*
X148118644Y-106571625D01*
X148224159Y-106344058D01*
X148333391Y-106119302D01*
X148446321Y-105896892D01*
X148562929Y-105676364D01*
X148683197Y-105457255D01*
X148807106Y-105239101D01*
X148934637Y-105021439D01*
X149018595Y-105036501D01*
G37*
D11*
X166673884Y-121554419D02*
X166673884Y-122363942D01*
X166673884Y-122363942D02*
X166721503Y-122459180D01*
X166721503Y-122459180D02*
X166769122Y-122506800D01*
X166769122Y-122506800D02*
X166864360Y-122554419D01*
X166864360Y-122554419D02*
X167054836Y-122554419D01*
X167054836Y-122554419D02*
X167150074Y-122506800D01*
X167150074Y-122506800D02*
X167197693Y-122459180D01*
X167197693Y-122459180D02*
X167245312Y-122363942D01*
X167245312Y-122363942D02*
X167245312Y-121554419D01*
X167578646Y-121554419D02*
X167911979Y-122554419D01*
X167911979Y-122554419D02*
X168245312Y-121554419D01*
X169150074Y-122554419D02*
X168816741Y-122078228D01*
X168578646Y-122554419D02*
X168578646Y-121554419D01*
X168578646Y-121554419D02*
X168959598Y-121554419D01*
X168959598Y-121554419D02*
X169054836Y-121602038D01*
X169054836Y-121602038D02*
X169102455Y-121649657D01*
X169102455Y-121649657D02*
X169150074Y-121744895D01*
X169150074Y-121744895D02*
X169150074Y-121887752D01*
X169150074Y-121887752D02*
X169102455Y-121982990D01*
X169102455Y-121982990D02*
X169054836Y-122030609D01*
X169054836Y-122030609D02*
X168959598Y-122078228D01*
X168959598Y-122078228D02*
X168578646Y-122078228D01*
X170292932Y-122268704D02*
X170769122Y-122268704D01*
X170197694Y-122554419D02*
X170531027Y-121554419D01*
X170531027Y-121554419D02*
X170864360Y-122554419D01*
X171197694Y-121887752D02*
X171197694Y-122554419D01*
X171197694Y-121982990D02*
X171245313Y-121935371D01*
X171245313Y-121935371D02*
X171340551Y-121887752D01*
X171340551Y-121887752D02*
X171483408Y-121887752D01*
X171483408Y-121887752D02*
X171578646Y-121935371D01*
X171578646Y-121935371D02*
X171626265Y-122030609D01*
X171626265Y-122030609D02*
X171626265Y-122554419D01*
X172531027Y-122554419D02*
X172531027Y-121554419D01*
X172531027Y-122506800D02*
X172435789Y-122554419D01*
X172435789Y-122554419D02*
X172245313Y-122554419D01*
X172245313Y-122554419D02*
X172150075Y-122506800D01*
X172150075Y-122506800D02*
X172102456Y-122459180D01*
X172102456Y-122459180D02*
X172054837Y-122363942D01*
X172054837Y-122363942D02*
X172054837Y-122078228D01*
X172054837Y-122078228D02*
X172102456Y-121982990D01*
X172102456Y-121982990D02*
X172150075Y-121935371D01*
X172150075Y-121935371D02*
X172245313Y-121887752D01*
X172245313Y-121887752D02*
X172435789Y-121887752D01*
X172435789Y-121887752D02*
X172531027Y-121935371D01*
X173435789Y-121887752D02*
X173435789Y-122554419D01*
X173007218Y-121887752D02*
X173007218Y-122411561D01*
X173007218Y-122411561D02*
X173054837Y-122506800D01*
X173054837Y-122506800D02*
X173150075Y-122554419D01*
X173150075Y-122554419D02*
X173292932Y-122554419D01*
X173292932Y-122554419D02*
X173388170Y-122506800D01*
X173388170Y-122506800D02*
X173435789Y-122459180D01*
X173911980Y-122554419D02*
X173911980Y-121887752D01*
X173911980Y-122078228D02*
X173959599Y-121982990D01*
X173959599Y-121982990D02*
X174007218Y-121935371D01*
X174007218Y-121935371D02*
X174102456Y-121887752D01*
X174102456Y-121887752D02*
X174197694Y-121887752D01*
X174531028Y-122554419D02*
X174531028Y-121887752D01*
X174531028Y-121554419D02*
X174483409Y-121602038D01*
X174483409Y-121602038D02*
X174531028Y-121649657D01*
X174531028Y-121649657D02*
X174578647Y-121602038D01*
X174578647Y-121602038D02*
X174531028Y-121554419D01*
X174531028Y-121554419D02*
X174531028Y-121649657D01*
X175150075Y-122554419D02*
X175054837Y-122506800D01*
X175054837Y-122506800D02*
X175007218Y-122411561D01*
X175007218Y-122411561D02*
X175007218Y-121554419D01*
X176245314Y-121649657D02*
X176292933Y-121602038D01*
X176292933Y-121602038D02*
X176388171Y-121554419D01*
X176388171Y-121554419D02*
X176626266Y-121554419D01*
X176626266Y-121554419D02*
X176721504Y-121602038D01*
X176721504Y-121602038D02*
X176769123Y-121649657D01*
X176769123Y-121649657D02*
X176816742Y-121744895D01*
X176816742Y-121744895D02*
X176816742Y-121840133D01*
X176816742Y-121840133D02*
X176769123Y-121982990D01*
X176769123Y-121982990D02*
X176197695Y-122554419D01*
X176197695Y-122554419D02*
X176816742Y-122554419D01*
X178578647Y-122459180D02*
X178531028Y-122506800D01*
X178531028Y-122506800D02*
X178388171Y-122554419D01*
X178388171Y-122554419D02*
X178292933Y-122554419D01*
X178292933Y-122554419D02*
X178150076Y-122506800D01*
X178150076Y-122506800D02*
X178054838Y-122411561D01*
X178054838Y-122411561D02*
X178007219Y-122316323D01*
X178007219Y-122316323D02*
X177959600Y-122125847D01*
X177959600Y-122125847D02*
X177959600Y-121982990D01*
X177959600Y-121982990D02*
X178007219Y-121792514D01*
X178007219Y-121792514D02*
X178054838Y-121697276D01*
X178054838Y-121697276D02*
X178150076Y-121602038D01*
X178150076Y-121602038D02*
X178292933Y-121554419D01*
X178292933Y-121554419D02*
X178388171Y-121554419D01*
X178388171Y-121554419D02*
X178531028Y-121602038D01*
X178531028Y-121602038D02*
X178578647Y-121649657D01*
X179435790Y-122554419D02*
X179435790Y-122030609D01*
X179435790Y-122030609D02*
X179388171Y-121935371D01*
X179388171Y-121935371D02*
X179292933Y-121887752D01*
X179292933Y-121887752D02*
X179102457Y-121887752D01*
X179102457Y-121887752D02*
X179007219Y-121935371D01*
X179435790Y-122506800D02*
X179340552Y-122554419D01*
X179340552Y-122554419D02*
X179102457Y-122554419D01*
X179102457Y-122554419D02*
X179007219Y-122506800D01*
X179007219Y-122506800D02*
X178959600Y-122411561D01*
X178959600Y-122411561D02*
X178959600Y-122316323D01*
X178959600Y-122316323D02*
X179007219Y-122221085D01*
X179007219Y-122221085D02*
X179102457Y-122173466D01*
X179102457Y-122173466D02*
X179340552Y-122173466D01*
X179340552Y-122173466D02*
X179435790Y-122125847D01*
X179911981Y-122554419D02*
X179911981Y-121887752D01*
X179911981Y-121982990D02*
X179959600Y-121935371D01*
X179959600Y-121935371D02*
X180054838Y-121887752D01*
X180054838Y-121887752D02*
X180197695Y-121887752D01*
X180197695Y-121887752D02*
X180292933Y-121935371D01*
X180292933Y-121935371D02*
X180340552Y-122030609D01*
X180340552Y-122030609D02*
X180340552Y-122554419D01*
X180340552Y-122030609D02*
X180388171Y-121935371D01*
X180388171Y-121935371D02*
X180483409Y-121887752D01*
X180483409Y-121887752D02*
X180626266Y-121887752D01*
X180626266Y-121887752D02*
X180721505Y-121935371D01*
X180721505Y-121935371D02*
X180769124Y-122030609D01*
X180769124Y-122030609D02*
X180769124Y-122554419D01*
X181626266Y-122506800D02*
X181531028Y-122554419D01*
X181531028Y-122554419D02*
X181340552Y-122554419D01*
X181340552Y-122554419D02*
X181245314Y-122506800D01*
X181245314Y-122506800D02*
X181197695Y-122411561D01*
X181197695Y-122411561D02*
X181197695Y-122030609D01*
X181197695Y-122030609D02*
X181245314Y-121935371D01*
X181245314Y-121935371D02*
X181340552Y-121887752D01*
X181340552Y-121887752D02*
X181531028Y-121887752D01*
X181531028Y-121887752D02*
X181626266Y-121935371D01*
X181626266Y-121935371D02*
X181673885Y-122030609D01*
X181673885Y-122030609D02*
X181673885Y-122125847D01*
X181673885Y-122125847D02*
X181197695Y-122221085D01*
X182102457Y-122554419D02*
X182102457Y-121887752D01*
X182102457Y-122078228D02*
X182150076Y-121982990D01*
X182150076Y-121982990D02*
X182197695Y-121935371D01*
X182197695Y-121935371D02*
X182292933Y-121887752D01*
X182292933Y-121887752D02*
X182388171Y-121887752D01*
X183150076Y-122554419D02*
X183150076Y-122030609D01*
X183150076Y-122030609D02*
X183102457Y-121935371D01*
X183102457Y-121935371D02*
X183007219Y-121887752D01*
X183007219Y-121887752D02*
X182816743Y-121887752D01*
X182816743Y-121887752D02*
X182721505Y-121935371D01*
X183150076Y-122506800D02*
X183054838Y-122554419D01*
X183054838Y-122554419D02*
X182816743Y-122554419D01*
X182816743Y-122554419D02*
X182721505Y-122506800D01*
X182721505Y-122506800D02*
X182673886Y-122411561D01*
X182673886Y-122411561D02*
X182673886Y-122316323D01*
X182673886Y-122316323D02*
X182721505Y-122221085D01*
X182721505Y-122221085D02*
X182816743Y-122173466D01*
X182816743Y-122173466D02*
X183054838Y-122173466D01*
X183054838Y-122173466D02*
X183150076Y-122125847D01*
X184388172Y-122554419D02*
X184388172Y-121554419D01*
X184388172Y-121554419D02*
X184769124Y-121554419D01*
X184769124Y-121554419D02*
X184864362Y-121602038D01*
X184864362Y-121602038D02*
X184911981Y-121649657D01*
X184911981Y-121649657D02*
X184959600Y-121744895D01*
X184959600Y-121744895D02*
X184959600Y-121887752D01*
X184959600Y-121887752D02*
X184911981Y-121982990D01*
X184911981Y-121982990D02*
X184864362Y-122030609D01*
X184864362Y-122030609D02*
X184769124Y-122078228D01*
X184769124Y-122078228D02*
X184388172Y-122078228D01*
X185959600Y-122459180D02*
X185911981Y-122506800D01*
X185911981Y-122506800D02*
X185769124Y-122554419D01*
X185769124Y-122554419D02*
X185673886Y-122554419D01*
X185673886Y-122554419D02*
X185531029Y-122506800D01*
X185531029Y-122506800D02*
X185435791Y-122411561D01*
X185435791Y-122411561D02*
X185388172Y-122316323D01*
X185388172Y-122316323D02*
X185340553Y-122125847D01*
X185340553Y-122125847D02*
X185340553Y-121982990D01*
X185340553Y-121982990D02*
X185388172Y-121792514D01*
X185388172Y-121792514D02*
X185435791Y-121697276D01*
X185435791Y-121697276D02*
X185531029Y-121602038D01*
X185531029Y-121602038D02*
X185673886Y-121554419D01*
X185673886Y-121554419D02*
X185769124Y-121554419D01*
X185769124Y-121554419D02*
X185911981Y-121602038D01*
X185911981Y-121602038D02*
X185959600Y-121649657D01*
X186721505Y-122030609D02*
X186864362Y-122078228D01*
X186864362Y-122078228D02*
X186911981Y-122125847D01*
X186911981Y-122125847D02*
X186959600Y-122221085D01*
X186959600Y-122221085D02*
X186959600Y-122363942D01*
X186959600Y-122363942D02*
X186911981Y-122459180D01*
X186911981Y-122459180D02*
X186864362Y-122506800D01*
X186864362Y-122506800D02*
X186769124Y-122554419D01*
X186769124Y-122554419D02*
X186388172Y-122554419D01*
X186388172Y-122554419D02*
X186388172Y-121554419D01*
X186388172Y-121554419D02*
X186721505Y-121554419D01*
X186721505Y-121554419D02*
X186816743Y-121602038D01*
X186816743Y-121602038D02*
X186864362Y-121649657D01*
X186864362Y-121649657D02*
X186911981Y-121744895D01*
X186911981Y-121744895D02*
X186911981Y-121840133D01*
X186911981Y-121840133D02*
X186864362Y-121935371D01*
X186864362Y-121935371D02*
X186816743Y-121982990D01*
X186816743Y-121982990D02*
X186721505Y-122030609D01*
X186721505Y-122030609D02*
X186388172Y-122030609D01*
X188721505Y-122554419D02*
X188388172Y-122078228D01*
X188150077Y-122554419D02*
X188150077Y-121554419D01*
X188150077Y-121554419D02*
X188531029Y-121554419D01*
X188531029Y-121554419D02*
X188626267Y-121602038D01*
X188626267Y-121602038D02*
X188673886Y-121649657D01*
X188673886Y-121649657D02*
X188721505Y-121744895D01*
X188721505Y-121744895D02*
X188721505Y-121887752D01*
X188721505Y-121887752D02*
X188673886Y-121982990D01*
X188673886Y-121982990D02*
X188626267Y-122030609D01*
X188626267Y-122030609D02*
X188531029Y-122078228D01*
X188531029Y-122078228D02*
X188150077Y-122078228D01*
X189531029Y-122506800D02*
X189435791Y-122554419D01*
X189435791Y-122554419D02*
X189245315Y-122554419D01*
X189245315Y-122554419D02*
X189150077Y-122506800D01*
X189150077Y-122506800D02*
X189102458Y-122411561D01*
X189102458Y-122411561D02*
X189102458Y-122030609D01*
X189102458Y-122030609D02*
X189150077Y-121935371D01*
X189150077Y-121935371D02*
X189245315Y-121887752D01*
X189245315Y-121887752D02*
X189435791Y-121887752D01*
X189435791Y-121887752D02*
X189531029Y-121935371D01*
X189531029Y-121935371D02*
X189578648Y-122030609D01*
X189578648Y-122030609D02*
X189578648Y-122125847D01*
X189578648Y-122125847D02*
X189102458Y-122221085D01*
X189911982Y-121887752D02*
X190150077Y-122554419D01*
X190150077Y-122554419D02*
X190388172Y-121887752D01*
X191483411Y-121649657D02*
X191531030Y-121602038D01*
X191531030Y-121602038D02*
X191626268Y-121554419D01*
X191626268Y-121554419D02*
X191864363Y-121554419D01*
X191864363Y-121554419D02*
X191959601Y-121602038D01*
X191959601Y-121602038D02*
X192007220Y-121649657D01*
X192007220Y-121649657D02*
X192054839Y-121744895D01*
X192054839Y-121744895D02*
X192054839Y-121840133D01*
X192054839Y-121840133D02*
X192007220Y-121982990D01*
X192007220Y-121982990D02*
X191435792Y-122554419D01*
X191435792Y-122554419D02*
X192054839Y-122554419D01*
X192483411Y-122459180D02*
X192531030Y-122506800D01*
X192531030Y-122506800D02*
X192483411Y-122554419D01*
X192483411Y-122554419D02*
X192435792Y-122506800D01*
X192435792Y-122506800D02*
X192483411Y-122459180D01*
X192483411Y-122459180D02*
X192483411Y-122554419D01*
X192911982Y-121649657D02*
X192959601Y-121602038D01*
X192959601Y-121602038D02*
X193054839Y-121554419D01*
X193054839Y-121554419D02*
X193292934Y-121554419D01*
X193292934Y-121554419D02*
X193388172Y-121602038D01*
X193388172Y-121602038D02*
X193435791Y-121649657D01*
X193435791Y-121649657D02*
X193483410Y-121744895D01*
X193483410Y-121744895D02*
X193483410Y-121840133D01*
X193483410Y-121840133D02*
X193435791Y-121982990D01*
X193435791Y-121982990D02*
X192864363Y-122554419D01*
X192864363Y-122554419D02*
X193483410Y-122554419D01*
X117762580Y-93328095D02*
X116953057Y-93328095D01*
X116953057Y-93328095D02*
X116857819Y-93375714D01*
X116857819Y-93375714D02*
X116810200Y-93423333D01*
X116810200Y-93423333D02*
X116762580Y-93518571D01*
X116762580Y-93518571D02*
X116762580Y-93709047D01*
X116762580Y-93709047D02*
X116810200Y-93804285D01*
X116810200Y-93804285D02*
X116857819Y-93851904D01*
X116857819Y-93851904D02*
X116953057Y-93899523D01*
X116953057Y-93899523D02*
X117762580Y-93899523D01*
X117667342Y-94328095D02*
X117714961Y-94375714D01*
X117714961Y-94375714D02*
X117762580Y-94470952D01*
X117762580Y-94470952D02*
X117762580Y-94709047D01*
X117762580Y-94709047D02*
X117714961Y-94804285D01*
X117714961Y-94804285D02*
X117667342Y-94851904D01*
X117667342Y-94851904D02*
X117572104Y-94899523D01*
X117572104Y-94899523D02*
X117476866Y-94899523D01*
X117476866Y-94899523D02*
X117334009Y-94851904D01*
X117334009Y-94851904D02*
X116762580Y-94280476D01*
X116762580Y-94280476D02*
X116762580Y-94899523D01*
D12*
X113970819Y-98273166D02*
X113494628Y-98606499D01*
X113970819Y-98844594D02*
X112970819Y-98844594D01*
X112970819Y-98844594D02*
X112970819Y-98463642D01*
X112970819Y-98463642D02*
X113018438Y-98368404D01*
X113018438Y-98368404D02*
X113066057Y-98320785D01*
X113066057Y-98320785D02*
X113161295Y-98273166D01*
X113161295Y-98273166D02*
X113304152Y-98273166D01*
X113304152Y-98273166D02*
X113399390Y-98320785D01*
X113399390Y-98320785D02*
X113447009Y-98368404D01*
X113447009Y-98368404D02*
X113494628Y-98463642D01*
X113494628Y-98463642D02*
X113494628Y-98844594D01*
X112970819Y-97939832D02*
X112970819Y-97320785D01*
X112970819Y-97320785D02*
X113351771Y-97654118D01*
X113351771Y-97654118D02*
X113351771Y-97511261D01*
X113351771Y-97511261D02*
X113399390Y-97416023D01*
X113399390Y-97416023D02*
X113447009Y-97368404D01*
X113447009Y-97368404D02*
X113542247Y-97320785D01*
X113542247Y-97320785D02*
X113780342Y-97320785D01*
X113780342Y-97320785D02*
X113875580Y-97368404D01*
X113875580Y-97368404D02*
X113923200Y-97416023D01*
X113923200Y-97416023D02*
X113970819Y-97511261D01*
X113970819Y-97511261D02*
X113970819Y-97796975D01*
X113970819Y-97796975D02*
X113923200Y-97892213D01*
X113923200Y-97892213D02*
X113875580Y-97939832D01*
X114654819Y-107366666D02*
X114178628Y-107699999D01*
X114654819Y-107938094D02*
X113654819Y-107938094D01*
X113654819Y-107938094D02*
X113654819Y-107557142D01*
X113654819Y-107557142D02*
X113702438Y-107461904D01*
X113702438Y-107461904D02*
X113750057Y-107414285D01*
X113750057Y-107414285D02*
X113845295Y-107366666D01*
X113845295Y-107366666D02*
X113988152Y-107366666D01*
X113988152Y-107366666D02*
X114083390Y-107414285D01*
X114083390Y-107414285D02*
X114131009Y-107461904D01*
X114131009Y-107461904D02*
X114178628Y-107557142D01*
X114178628Y-107557142D02*
X114178628Y-107938094D01*
X113654819Y-106461904D02*
X113654819Y-106938094D01*
X113654819Y-106938094D02*
X114131009Y-106985713D01*
X114131009Y-106985713D02*
X114083390Y-106938094D01*
X114083390Y-106938094D02*
X114035771Y-106842856D01*
X114035771Y-106842856D02*
X114035771Y-106604761D01*
X114035771Y-106604761D02*
X114083390Y-106509523D01*
X114083390Y-106509523D02*
X114131009Y-106461904D01*
X114131009Y-106461904D02*
X114226247Y-106414285D01*
X114226247Y-106414285D02*
X114464342Y-106414285D01*
X114464342Y-106414285D02*
X114559580Y-106461904D01*
X114559580Y-106461904D02*
X114607200Y-106509523D01*
X114607200Y-106509523D02*
X114654819Y-106604761D01*
X114654819Y-106604761D02*
X114654819Y-106842856D01*
X114654819Y-106842856D02*
X114607200Y-106938094D01*
X114607200Y-106938094D02*
X114559580Y-106985713D01*
X111666666Y-118154819D02*
X111666666Y-118869104D01*
X111666666Y-118869104D02*
X111619047Y-119011961D01*
X111619047Y-119011961D02*
X111523809Y-119107200D01*
X111523809Y-119107200D02*
X111380952Y-119154819D01*
X111380952Y-119154819D02*
X111285714Y-119154819D01*
X112095238Y-118250057D02*
X112142857Y-118202438D01*
X112142857Y-118202438D02*
X112238095Y-118154819D01*
X112238095Y-118154819D02*
X112476190Y-118154819D01*
X112476190Y-118154819D02*
X112571428Y-118202438D01*
X112571428Y-118202438D02*
X112619047Y-118250057D01*
X112619047Y-118250057D02*
X112666666Y-118345295D01*
X112666666Y-118345295D02*
X112666666Y-118440533D01*
X112666666Y-118440533D02*
X112619047Y-118583390D01*
X112619047Y-118583390D02*
X112047619Y-119154819D01*
X112047619Y-119154819D02*
X112666666Y-119154819D01*
X88535714Y-76444104D02*
X89011904Y-76444104D01*
X88440476Y-76729819D02*
X88773809Y-75729819D01*
X88773809Y-75729819D02*
X89107142Y-76729819D01*
X89964285Y-76729819D02*
X89392857Y-76729819D01*
X89678571Y-76729819D02*
X89678571Y-75729819D01*
X89678571Y-75729819D02*
X89583333Y-75872676D01*
X89583333Y-75872676D02*
X89488095Y-75967914D01*
X89488095Y-75967914D02*
X89392857Y-76015533D01*
X93318095Y-116114819D02*
X93318095Y-116924342D01*
X93318095Y-116924342D02*
X93365714Y-117019580D01*
X93365714Y-117019580D02*
X93413333Y-117067200D01*
X93413333Y-117067200D02*
X93508571Y-117114819D01*
X93508571Y-117114819D02*
X93699047Y-117114819D01*
X93699047Y-117114819D02*
X93794285Y-117067200D01*
X93794285Y-117067200D02*
X93841904Y-117019580D01*
X93841904Y-117019580D02*
X93889523Y-116924342D01*
X93889523Y-116924342D02*
X93889523Y-116114819D01*
X94318095Y-117067200D02*
X94460952Y-117114819D01*
X94460952Y-117114819D02*
X94699047Y-117114819D01*
X94699047Y-117114819D02*
X94794285Y-117067200D01*
X94794285Y-117067200D02*
X94841904Y-117019580D01*
X94841904Y-117019580D02*
X94889523Y-116924342D01*
X94889523Y-116924342D02*
X94889523Y-116829104D01*
X94889523Y-116829104D02*
X94841904Y-116733866D01*
X94841904Y-116733866D02*
X94794285Y-116686247D01*
X94794285Y-116686247D02*
X94699047Y-116638628D01*
X94699047Y-116638628D02*
X94508571Y-116591009D01*
X94508571Y-116591009D02*
X94413333Y-116543390D01*
X94413333Y-116543390D02*
X94365714Y-116495771D01*
X94365714Y-116495771D02*
X94318095Y-116400533D01*
X94318095Y-116400533D02*
X94318095Y-116305295D01*
X94318095Y-116305295D02*
X94365714Y-116210057D01*
X94365714Y-116210057D02*
X94413333Y-116162438D01*
X94413333Y-116162438D02*
X94508571Y-116114819D01*
X94508571Y-116114819D02*
X94746666Y-116114819D01*
X94746666Y-116114819D02*
X94889523Y-116162438D01*
X95651428Y-116591009D02*
X95794285Y-116638628D01*
X95794285Y-116638628D02*
X95841904Y-116686247D01*
X95841904Y-116686247D02*
X95889523Y-116781485D01*
X95889523Y-116781485D02*
X95889523Y-116924342D01*
X95889523Y-116924342D02*
X95841904Y-117019580D01*
X95841904Y-117019580D02*
X95794285Y-117067200D01*
X95794285Y-117067200D02*
X95699047Y-117114819D01*
X95699047Y-117114819D02*
X95318095Y-117114819D01*
X95318095Y-117114819D02*
X95318095Y-116114819D01*
X95318095Y-116114819D02*
X95651428Y-116114819D01*
X95651428Y-116114819D02*
X95746666Y-116162438D01*
X95746666Y-116162438D02*
X95794285Y-116210057D01*
X95794285Y-116210057D02*
X95841904Y-116305295D01*
X95841904Y-116305295D02*
X95841904Y-116400533D01*
X95841904Y-116400533D02*
X95794285Y-116495771D01*
X95794285Y-116495771D02*
X95746666Y-116543390D01*
X95746666Y-116543390D02*
X95651428Y-116591009D01*
X95651428Y-116591009D02*
X95318095Y-116591009D01*
X107802819Y-83478666D02*
X107326628Y-83811999D01*
X107802819Y-84050094D02*
X106802819Y-84050094D01*
X106802819Y-84050094D02*
X106802819Y-83669142D01*
X106802819Y-83669142D02*
X106850438Y-83573904D01*
X106850438Y-83573904D02*
X106898057Y-83526285D01*
X106898057Y-83526285D02*
X106993295Y-83478666D01*
X106993295Y-83478666D02*
X107136152Y-83478666D01*
X107136152Y-83478666D02*
X107231390Y-83526285D01*
X107231390Y-83526285D02*
X107279009Y-83573904D01*
X107279009Y-83573904D02*
X107326628Y-83669142D01*
X107326628Y-83669142D02*
X107326628Y-84050094D01*
X107231390Y-82907237D02*
X107183771Y-83002475D01*
X107183771Y-83002475D02*
X107136152Y-83050094D01*
X107136152Y-83050094D02*
X107040914Y-83097713D01*
X107040914Y-83097713D02*
X106993295Y-83097713D01*
X106993295Y-83097713D02*
X106898057Y-83050094D01*
X106898057Y-83050094D02*
X106850438Y-83002475D01*
X106850438Y-83002475D02*
X106802819Y-82907237D01*
X106802819Y-82907237D02*
X106802819Y-82716761D01*
X106802819Y-82716761D02*
X106850438Y-82621523D01*
X106850438Y-82621523D02*
X106898057Y-82573904D01*
X106898057Y-82573904D02*
X106993295Y-82526285D01*
X106993295Y-82526285D02*
X107040914Y-82526285D01*
X107040914Y-82526285D02*
X107136152Y-82573904D01*
X107136152Y-82573904D02*
X107183771Y-82621523D01*
X107183771Y-82621523D02*
X107231390Y-82716761D01*
X107231390Y-82716761D02*
X107231390Y-82907237D01*
X107231390Y-82907237D02*
X107279009Y-83002475D01*
X107279009Y-83002475D02*
X107326628Y-83050094D01*
X107326628Y-83050094D02*
X107421866Y-83097713D01*
X107421866Y-83097713D02*
X107612342Y-83097713D01*
X107612342Y-83097713D02*
X107707580Y-83050094D01*
X107707580Y-83050094D02*
X107755200Y-83002475D01*
X107755200Y-83002475D02*
X107802819Y-82907237D01*
X107802819Y-82907237D02*
X107802819Y-82716761D01*
X107802819Y-82716761D02*
X107755200Y-82621523D01*
X107755200Y-82621523D02*
X107707580Y-82573904D01*
X107707580Y-82573904D02*
X107612342Y-82526285D01*
X107612342Y-82526285D02*
X107421866Y-82526285D01*
X107421866Y-82526285D02*
X107326628Y-82573904D01*
X107326628Y-82573904D02*
X107279009Y-82621523D01*
X107279009Y-82621523D02*
X107231390Y-82716761D01*
X125059580Y-74266666D02*
X125107200Y-74314285D01*
X125107200Y-74314285D02*
X125154819Y-74457142D01*
X125154819Y-74457142D02*
X125154819Y-74552380D01*
X125154819Y-74552380D02*
X125107200Y-74695237D01*
X125107200Y-74695237D02*
X125011961Y-74790475D01*
X125011961Y-74790475D02*
X124916723Y-74838094D01*
X124916723Y-74838094D02*
X124726247Y-74885713D01*
X124726247Y-74885713D02*
X124583390Y-74885713D01*
X124583390Y-74885713D02*
X124392914Y-74838094D01*
X124392914Y-74838094D02*
X124297676Y-74790475D01*
X124297676Y-74790475D02*
X124202438Y-74695237D01*
X124202438Y-74695237D02*
X124154819Y-74552380D01*
X124154819Y-74552380D02*
X124154819Y-74457142D01*
X124154819Y-74457142D02*
X124202438Y-74314285D01*
X124202438Y-74314285D02*
X124250057Y-74266666D01*
X125154819Y-73314285D02*
X125154819Y-73885713D01*
X125154819Y-73599999D02*
X124154819Y-73599999D01*
X124154819Y-73599999D02*
X124297676Y-73695237D01*
X124297676Y-73695237D02*
X124392914Y-73790475D01*
X124392914Y-73790475D02*
X124440533Y-73885713D01*
X118073333Y-100299580D02*
X118025714Y-100347200D01*
X118025714Y-100347200D02*
X117882857Y-100394819D01*
X117882857Y-100394819D02*
X117787619Y-100394819D01*
X117787619Y-100394819D02*
X117644762Y-100347200D01*
X117644762Y-100347200D02*
X117549524Y-100251961D01*
X117549524Y-100251961D02*
X117501905Y-100156723D01*
X117501905Y-100156723D02*
X117454286Y-99966247D01*
X117454286Y-99966247D02*
X117454286Y-99823390D01*
X117454286Y-99823390D02*
X117501905Y-99632914D01*
X117501905Y-99632914D02*
X117549524Y-99537676D01*
X117549524Y-99537676D02*
X117644762Y-99442438D01*
X117644762Y-99442438D02*
X117787619Y-99394819D01*
X117787619Y-99394819D02*
X117882857Y-99394819D01*
X117882857Y-99394819D02*
X118025714Y-99442438D01*
X118025714Y-99442438D02*
X118073333Y-99490057D01*
X118930476Y-99728152D02*
X118930476Y-100394819D01*
X118692381Y-99347200D02*
X118454286Y-100061485D01*
X118454286Y-100061485D02*
X119073333Y-100061485D01*
X105447819Y-108834094D02*
X104447819Y-108834094D01*
X104447819Y-108834094D02*
X104447819Y-108595999D01*
X104447819Y-108595999D02*
X104495438Y-108453142D01*
X104495438Y-108453142D02*
X104590676Y-108357904D01*
X104590676Y-108357904D02*
X104685914Y-108310285D01*
X104685914Y-108310285D02*
X104876390Y-108262666D01*
X104876390Y-108262666D02*
X105019247Y-108262666D01*
X105019247Y-108262666D02*
X105209723Y-108310285D01*
X105209723Y-108310285D02*
X105304961Y-108357904D01*
X105304961Y-108357904D02*
X105400200Y-108453142D01*
X105400200Y-108453142D02*
X105447819Y-108595999D01*
X105447819Y-108595999D02*
X105447819Y-108834094D01*
X104543057Y-107881713D02*
X104495438Y-107834094D01*
X104495438Y-107834094D02*
X104447819Y-107738856D01*
X104447819Y-107738856D02*
X104447819Y-107500761D01*
X104447819Y-107500761D02*
X104495438Y-107405523D01*
X104495438Y-107405523D02*
X104543057Y-107357904D01*
X104543057Y-107357904D02*
X104638295Y-107310285D01*
X104638295Y-107310285D02*
X104733533Y-107310285D01*
X104733533Y-107310285D02*
X104876390Y-107357904D01*
X104876390Y-107357904D02*
X105447819Y-107929332D01*
X105447819Y-107929332D02*
X105447819Y-107310285D01*
X105522819Y-106134094D02*
X104522819Y-106134094D01*
X104522819Y-106134094D02*
X104522819Y-105895999D01*
X104522819Y-105895999D02*
X104570438Y-105753142D01*
X104570438Y-105753142D02*
X104665676Y-105657904D01*
X104665676Y-105657904D02*
X104760914Y-105610285D01*
X104760914Y-105610285D02*
X104951390Y-105562666D01*
X104951390Y-105562666D02*
X105094247Y-105562666D01*
X105094247Y-105562666D02*
X105284723Y-105610285D01*
X105284723Y-105610285D02*
X105379961Y-105657904D01*
X105379961Y-105657904D02*
X105475200Y-105753142D01*
X105475200Y-105753142D02*
X105522819Y-105895999D01*
X105522819Y-105895999D02*
X105522819Y-106134094D01*
X104522819Y-105229332D02*
X104522819Y-104610285D01*
X104522819Y-104610285D02*
X104903771Y-104943618D01*
X104903771Y-104943618D02*
X104903771Y-104800761D01*
X104903771Y-104800761D02*
X104951390Y-104705523D01*
X104951390Y-104705523D02*
X104999009Y-104657904D01*
X104999009Y-104657904D02*
X105094247Y-104610285D01*
X105094247Y-104610285D02*
X105332342Y-104610285D01*
X105332342Y-104610285D02*
X105427580Y-104657904D01*
X105427580Y-104657904D02*
X105475200Y-104705523D01*
X105475200Y-104705523D02*
X105522819Y-104800761D01*
X105522819Y-104800761D02*
X105522819Y-105086475D01*
X105522819Y-105086475D02*
X105475200Y-105181713D01*
X105475200Y-105181713D02*
X105427580Y-105229332D01*
X106092666Y-76126819D02*
X106092666Y-76841104D01*
X106092666Y-76841104D02*
X106045047Y-76983961D01*
X106045047Y-76983961D02*
X105949809Y-77079200D01*
X105949809Y-77079200D02*
X105806952Y-77126819D01*
X105806952Y-77126819D02*
X105711714Y-77126819D01*
X107045047Y-76126819D02*
X106568857Y-76126819D01*
X106568857Y-76126819D02*
X106521238Y-76603009D01*
X106521238Y-76603009D02*
X106568857Y-76555390D01*
X106568857Y-76555390D02*
X106664095Y-76507771D01*
X106664095Y-76507771D02*
X106902190Y-76507771D01*
X106902190Y-76507771D02*
X106997428Y-76555390D01*
X106997428Y-76555390D02*
X107045047Y-76603009D01*
X107045047Y-76603009D02*
X107092666Y-76698247D01*
X107092666Y-76698247D02*
X107092666Y-76936342D01*
X107092666Y-76936342D02*
X107045047Y-77031580D01*
X107045047Y-77031580D02*
X106997428Y-77079200D01*
X106997428Y-77079200D02*
X106902190Y-77126819D01*
X106902190Y-77126819D02*
X106664095Y-77126819D01*
X106664095Y-77126819D02*
X106568857Y-77079200D01*
X106568857Y-77079200D02*
X106521238Y-77031580D01*
X115433333Y-110559580D02*
X115385714Y-110607200D01*
X115385714Y-110607200D02*
X115242857Y-110654819D01*
X115242857Y-110654819D02*
X115147619Y-110654819D01*
X115147619Y-110654819D02*
X115004762Y-110607200D01*
X115004762Y-110607200D02*
X114909524Y-110511961D01*
X114909524Y-110511961D02*
X114861905Y-110416723D01*
X114861905Y-110416723D02*
X114814286Y-110226247D01*
X114814286Y-110226247D02*
X114814286Y-110083390D01*
X114814286Y-110083390D02*
X114861905Y-109892914D01*
X114861905Y-109892914D02*
X114909524Y-109797676D01*
X114909524Y-109797676D02*
X115004762Y-109702438D01*
X115004762Y-109702438D02*
X115147619Y-109654819D01*
X115147619Y-109654819D02*
X115242857Y-109654819D01*
X115242857Y-109654819D02*
X115385714Y-109702438D01*
X115385714Y-109702438D02*
X115433333Y-109750057D01*
X116338095Y-109654819D02*
X115861905Y-109654819D01*
X115861905Y-109654819D02*
X115814286Y-110131009D01*
X115814286Y-110131009D02*
X115861905Y-110083390D01*
X115861905Y-110083390D02*
X115957143Y-110035771D01*
X115957143Y-110035771D02*
X116195238Y-110035771D01*
X116195238Y-110035771D02*
X116290476Y-110083390D01*
X116290476Y-110083390D02*
X116338095Y-110131009D01*
X116338095Y-110131009D02*
X116385714Y-110226247D01*
X116385714Y-110226247D02*
X116385714Y-110464342D01*
X116385714Y-110464342D02*
X116338095Y-110559580D01*
X116338095Y-110559580D02*
X116290476Y-110607200D01*
X116290476Y-110607200D02*
X116195238Y-110654819D01*
X116195238Y-110654819D02*
X115957143Y-110654819D01*
X115957143Y-110654819D02*
X115861905Y-110607200D01*
X115861905Y-110607200D02*
X115814286Y-110559580D01*
X108254819Y-99766666D02*
X107778628Y-100099999D01*
X108254819Y-100338094D02*
X107254819Y-100338094D01*
X107254819Y-100338094D02*
X107254819Y-99957142D01*
X107254819Y-99957142D02*
X107302438Y-99861904D01*
X107302438Y-99861904D02*
X107350057Y-99814285D01*
X107350057Y-99814285D02*
X107445295Y-99766666D01*
X107445295Y-99766666D02*
X107588152Y-99766666D01*
X107588152Y-99766666D02*
X107683390Y-99814285D01*
X107683390Y-99814285D02*
X107731009Y-99861904D01*
X107731009Y-99861904D02*
X107778628Y-99957142D01*
X107778628Y-99957142D02*
X107778628Y-100338094D01*
X108254819Y-98814285D02*
X108254819Y-99385713D01*
X108254819Y-99099999D02*
X107254819Y-99099999D01*
X107254819Y-99099999D02*
X107397676Y-99195237D01*
X107397676Y-99195237D02*
X107492914Y-99290475D01*
X107492914Y-99290475D02*
X107540533Y-99385713D01*
X110733333Y-108454819D02*
X110400000Y-107978628D01*
X110161905Y-108454819D02*
X110161905Y-107454819D01*
X110161905Y-107454819D02*
X110542857Y-107454819D01*
X110542857Y-107454819D02*
X110638095Y-107502438D01*
X110638095Y-107502438D02*
X110685714Y-107550057D01*
X110685714Y-107550057D02*
X110733333Y-107645295D01*
X110733333Y-107645295D02*
X110733333Y-107788152D01*
X110733333Y-107788152D02*
X110685714Y-107883390D01*
X110685714Y-107883390D02*
X110638095Y-107931009D01*
X110638095Y-107931009D02*
X110542857Y-107978628D01*
X110542857Y-107978628D02*
X110161905Y-107978628D01*
X111590476Y-107788152D02*
X111590476Y-108454819D01*
X111352381Y-107407200D02*
X111114286Y-108121485D01*
X111114286Y-108121485D02*
X111733333Y-108121485D01*
X112533333Y-105354819D02*
X112200000Y-104878628D01*
X111961905Y-105354819D02*
X111961905Y-104354819D01*
X111961905Y-104354819D02*
X112342857Y-104354819D01*
X112342857Y-104354819D02*
X112438095Y-104402438D01*
X112438095Y-104402438D02*
X112485714Y-104450057D01*
X112485714Y-104450057D02*
X112533333Y-104545295D01*
X112533333Y-104545295D02*
X112533333Y-104688152D01*
X112533333Y-104688152D02*
X112485714Y-104783390D01*
X112485714Y-104783390D02*
X112438095Y-104831009D01*
X112438095Y-104831009D02*
X112342857Y-104878628D01*
X112342857Y-104878628D02*
X111961905Y-104878628D01*
X112866667Y-104354819D02*
X113533333Y-104354819D01*
X113533333Y-104354819D02*
X113104762Y-105354819D01*
X110861905Y-101454819D02*
X110861905Y-100454819D01*
X110861905Y-100454819D02*
X111100000Y-100454819D01*
X111100000Y-100454819D02*
X111242857Y-100502438D01*
X111242857Y-100502438D02*
X111338095Y-100597676D01*
X111338095Y-100597676D02*
X111385714Y-100692914D01*
X111385714Y-100692914D02*
X111433333Y-100883390D01*
X111433333Y-100883390D02*
X111433333Y-101026247D01*
X111433333Y-101026247D02*
X111385714Y-101216723D01*
X111385714Y-101216723D02*
X111338095Y-101311961D01*
X111338095Y-101311961D02*
X111242857Y-101407200D01*
X111242857Y-101407200D02*
X111100000Y-101454819D01*
X111100000Y-101454819D02*
X110861905Y-101454819D01*
X112385714Y-101454819D02*
X111814286Y-101454819D01*
X112100000Y-101454819D02*
X112100000Y-100454819D01*
X112100000Y-100454819D02*
X112004762Y-100597676D01*
X112004762Y-100597676D02*
X111909524Y-100692914D01*
X111909524Y-100692914D02*
X111814286Y-100740533D01*
X142104761Y-78233009D02*
X142247618Y-78280628D01*
X142247618Y-78280628D02*
X142295237Y-78328247D01*
X142295237Y-78328247D02*
X142342856Y-78423485D01*
X142342856Y-78423485D02*
X142342856Y-78566342D01*
X142342856Y-78566342D02*
X142295237Y-78661580D01*
X142295237Y-78661580D02*
X142247618Y-78709200D01*
X142247618Y-78709200D02*
X142152380Y-78756819D01*
X142152380Y-78756819D02*
X141771428Y-78756819D01*
X141771428Y-78756819D02*
X141771428Y-77756819D01*
X141771428Y-77756819D02*
X142104761Y-77756819D01*
X142104761Y-77756819D02*
X142199999Y-77804438D01*
X142199999Y-77804438D02*
X142247618Y-77852057D01*
X142247618Y-77852057D02*
X142295237Y-77947295D01*
X142295237Y-77947295D02*
X142295237Y-78042533D01*
X142295237Y-78042533D02*
X142247618Y-78137771D01*
X142247618Y-78137771D02*
X142199999Y-78185390D01*
X142199999Y-78185390D02*
X142104761Y-78233009D01*
X142104761Y-78233009D02*
X141771428Y-78233009D01*
X142723809Y-78471104D02*
X143199999Y-78471104D01*
X142628571Y-78756819D02*
X142961904Y-77756819D01*
X142961904Y-77756819D02*
X143295237Y-78756819D01*
X143485714Y-77756819D02*
X144057142Y-77756819D01*
X143771428Y-78756819D02*
X143771428Y-77756819D01*
X144247619Y-77756819D02*
X144819047Y-77756819D01*
X144533333Y-78756819D02*
X144533333Y-77756819D01*
X145104762Y-77852057D02*
X145152381Y-77804438D01*
X145152381Y-77804438D02*
X145247619Y-77756819D01*
X145247619Y-77756819D02*
X145485714Y-77756819D01*
X145485714Y-77756819D02*
X145580952Y-77804438D01*
X145580952Y-77804438D02*
X145628571Y-77852057D01*
X145628571Y-77852057D02*
X145676190Y-77947295D01*
X145676190Y-77947295D02*
X145676190Y-78042533D01*
X145676190Y-78042533D02*
X145628571Y-78185390D01*
X145628571Y-78185390D02*
X145057143Y-78756819D01*
X145057143Y-78756819D02*
X145676190Y-78756819D01*
X110899580Y-90376666D02*
X110947200Y-90424285D01*
X110947200Y-90424285D02*
X110994819Y-90567142D01*
X110994819Y-90567142D02*
X110994819Y-90662380D01*
X110994819Y-90662380D02*
X110947200Y-90805237D01*
X110947200Y-90805237D02*
X110851961Y-90900475D01*
X110851961Y-90900475D02*
X110756723Y-90948094D01*
X110756723Y-90948094D02*
X110566247Y-90995713D01*
X110566247Y-90995713D02*
X110423390Y-90995713D01*
X110423390Y-90995713D02*
X110232914Y-90948094D01*
X110232914Y-90948094D02*
X110137676Y-90900475D01*
X110137676Y-90900475D02*
X110042438Y-90805237D01*
X110042438Y-90805237D02*
X109994819Y-90662380D01*
X109994819Y-90662380D02*
X109994819Y-90567142D01*
X109994819Y-90567142D02*
X110042438Y-90424285D01*
X110042438Y-90424285D02*
X110090057Y-90376666D01*
X110423390Y-89805237D02*
X110375771Y-89900475D01*
X110375771Y-89900475D02*
X110328152Y-89948094D01*
X110328152Y-89948094D02*
X110232914Y-89995713D01*
X110232914Y-89995713D02*
X110185295Y-89995713D01*
X110185295Y-89995713D02*
X110090057Y-89948094D01*
X110090057Y-89948094D02*
X110042438Y-89900475D01*
X110042438Y-89900475D02*
X109994819Y-89805237D01*
X109994819Y-89805237D02*
X109994819Y-89614761D01*
X109994819Y-89614761D02*
X110042438Y-89519523D01*
X110042438Y-89519523D02*
X110090057Y-89471904D01*
X110090057Y-89471904D02*
X110185295Y-89424285D01*
X110185295Y-89424285D02*
X110232914Y-89424285D01*
X110232914Y-89424285D02*
X110328152Y-89471904D01*
X110328152Y-89471904D02*
X110375771Y-89519523D01*
X110375771Y-89519523D02*
X110423390Y-89614761D01*
X110423390Y-89614761D02*
X110423390Y-89805237D01*
X110423390Y-89805237D02*
X110471009Y-89900475D01*
X110471009Y-89900475D02*
X110518628Y-89948094D01*
X110518628Y-89948094D02*
X110613866Y-89995713D01*
X110613866Y-89995713D02*
X110804342Y-89995713D01*
X110804342Y-89995713D02*
X110899580Y-89948094D01*
X110899580Y-89948094D02*
X110947200Y-89900475D01*
X110947200Y-89900475D02*
X110994819Y-89805237D01*
X110994819Y-89805237D02*
X110994819Y-89614761D01*
X110994819Y-89614761D02*
X110947200Y-89519523D01*
X110947200Y-89519523D02*
X110899580Y-89471904D01*
X110899580Y-89471904D02*
X110804342Y-89424285D01*
X110804342Y-89424285D02*
X110613866Y-89424285D01*
X110613866Y-89424285D02*
X110518628Y-89471904D01*
X110518628Y-89471904D02*
X110471009Y-89519523D01*
X110471009Y-89519523D02*
X110423390Y-89614761D01*
X109359580Y-90376666D02*
X109407200Y-90424285D01*
X109407200Y-90424285D02*
X109454819Y-90567142D01*
X109454819Y-90567142D02*
X109454819Y-90662380D01*
X109454819Y-90662380D02*
X109407200Y-90805237D01*
X109407200Y-90805237D02*
X109311961Y-90900475D01*
X109311961Y-90900475D02*
X109216723Y-90948094D01*
X109216723Y-90948094D02*
X109026247Y-90995713D01*
X109026247Y-90995713D02*
X108883390Y-90995713D01*
X108883390Y-90995713D02*
X108692914Y-90948094D01*
X108692914Y-90948094D02*
X108597676Y-90900475D01*
X108597676Y-90900475D02*
X108502438Y-90805237D01*
X108502438Y-90805237D02*
X108454819Y-90662380D01*
X108454819Y-90662380D02*
X108454819Y-90567142D01*
X108454819Y-90567142D02*
X108502438Y-90424285D01*
X108502438Y-90424285D02*
X108550057Y-90376666D01*
X108454819Y-89519523D02*
X108454819Y-89709999D01*
X108454819Y-89709999D02*
X108502438Y-89805237D01*
X108502438Y-89805237D02*
X108550057Y-89852856D01*
X108550057Y-89852856D02*
X108692914Y-89948094D01*
X108692914Y-89948094D02*
X108883390Y-89995713D01*
X108883390Y-89995713D02*
X109264342Y-89995713D01*
X109264342Y-89995713D02*
X109359580Y-89948094D01*
X109359580Y-89948094D02*
X109407200Y-89900475D01*
X109407200Y-89900475D02*
X109454819Y-89805237D01*
X109454819Y-89805237D02*
X109454819Y-89614761D01*
X109454819Y-89614761D02*
X109407200Y-89519523D01*
X109407200Y-89519523D02*
X109359580Y-89471904D01*
X109359580Y-89471904D02*
X109264342Y-89424285D01*
X109264342Y-89424285D02*
X109026247Y-89424285D01*
X109026247Y-89424285D02*
X108931009Y-89471904D01*
X108931009Y-89471904D02*
X108883390Y-89519523D01*
X108883390Y-89519523D02*
X108835771Y-89614761D01*
X108835771Y-89614761D02*
X108835771Y-89805237D01*
X108835771Y-89805237D02*
X108883390Y-89900475D01*
X108883390Y-89900475D02*
X108931009Y-89948094D01*
X108931009Y-89948094D02*
X109026247Y-89995713D01*
X114982666Y-74373819D02*
X114982666Y-75088104D01*
X114982666Y-75088104D02*
X114935047Y-75230961D01*
X114935047Y-75230961D02*
X114839809Y-75326200D01*
X114839809Y-75326200D02*
X114696952Y-75373819D01*
X114696952Y-75373819D02*
X114601714Y-75373819D01*
X115982666Y-75373819D02*
X115411238Y-75373819D01*
X115696952Y-75373819D02*
X115696952Y-74373819D01*
X115696952Y-74373819D02*
X115601714Y-74516676D01*
X115601714Y-74516676D02*
X115506476Y-74611914D01*
X115506476Y-74611914D02*
X115411238Y-74659533D01*
X119559580Y-88266666D02*
X119607200Y-88314285D01*
X119607200Y-88314285D02*
X119654819Y-88457142D01*
X119654819Y-88457142D02*
X119654819Y-88552380D01*
X119654819Y-88552380D02*
X119607200Y-88695237D01*
X119607200Y-88695237D02*
X119511961Y-88790475D01*
X119511961Y-88790475D02*
X119416723Y-88838094D01*
X119416723Y-88838094D02*
X119226247Y-88885713D01*
X119226247Y-88885713D02*
X119083390Y-88885713D01*
X119083390Y-88885713D02*
X118892914Y-88838094D01*
X118892914Y-88838094D02*
X118797676Y-88790475D01*
X118797676Y-88790475D02*
X118702438Y-88695237D01*
X118702438Y-88695237D02*
X118654819Y-88552380D01*
X118654819Y-88552380D02*
X118654819Y-88457142D01*
X118654819Y-88457142D02*
X118702438Y-88314285D01*
X118702438Y-88314285D02*
X118750057Y-88266666D01*
X118654819Y-87933332D02*
X118654819Y-87314285D01*
X118654819Y-87314285D02*
X119035771Y-87647618D01*
X119035771Y-87647618D02*
X119035771Y-87504761D01*
X119035771Y-87504761D02*
X119083390Y-87409523D01*
X119083390Y-87409523D02*
X119131009Y-87361904D01*
X119131009Y-87361904D02*
X119226247Y-87314285D01*
X119226247Y-87314285D02*
X119464342Y-87314285D01*
X119464342Y-87314285D02*
X119559580Y-87361904D01*
X119559580Y-87361904D02*
X119607200Y-87409523D01*
X119607200Y-87409523D02*
X119654819Y-87504761D01*
X119654819Y-87504761D02*
X119654819Y-87790475D01*
X119654819Y-87790475D02*
X119607200Y-87885713D01*
X119607200Y-87885713D02*
X119559580Y-87933332D01*
X136072761Y-115027009D02*
X136215618Y-115074628D01*
X136215618Y-115074628D02*
X136263237Y-115122247D01*
X136263237Y-115122247D02*
X136310856Y-115217485D01*
X136310856Y-115217485D02*
X136310856Y-115360342D01*
X136310856Y-115360342D02*
X136263237Y-115455580D01*
X136263237Y-115455580D02*
X136215618Y-115503200D01*
X136215618Y-115503200D02*
X136120380Y-115550819D01*
X136120380Y-115550819D02*
X135739428Y-115550819D01*
X135739428Y-115550819D02*
X135739428Y-114550819D01*
X135739428Y-114550819D02*
X136072761Y-114550819D01*
X136072761Y-114550819D02*
X136167999Y-114598438D01*
X136167999Y-114598438D02*
X136215618Y-114646057D01*
X136215618Y-114646057D02*
X136263237Y-114741295D01*
X136263237Y-114741295D02*
X136263237Y-114836533D01*
X136263237Y-114836533D02*
X136215618Y-114931771D01*
X136215618Y-114931771D02*
X136167999Y-114979390D01*
X136167999Y-114979390D02*
X136072761Y-115027009D01*
X136072761Y-115027009D02*
X135739428Y-115027009D01*
X136691809Y-115265104D02*
X137167999Y-115265104D01*
X136596571Y-115550819D02*
X136929904Y-114550819D01*
X136929904Y-114550819D02*
X137263237Y-115550819D01*
X137453714Y-114550819D02*
X138025142Y-114550819D01*
X137739428Y-115550819D02*
X137739428Y-114550819D01*
X138215619Y-114550819D02*
X138787047Y-114550819D01*
X138501333Y-115550819D02*
X138501333Y-114550819D01*
X139644190Y-115550819D02*
X139072762Y-115550819D01*
X139358476Y-115550819D02*
X139358476Y-114550819D01*
X139358476Y-114550819D02*
X139263238Y-114693676D01*
X139263238Y-114693676D02*
X139168000Y-114788914D01*
X139168000Y-114788914D02*
X139072762Y-114836533D01*
X111127580Y-99152666D02*
X111175200Y-99200285D01*
X111175200Y-99200285D02*
X111222819Y-99343142D01*
X111222819Y-99343142D02*
X111222819Y-99438380D01*
X111222819Y-99438380D02*
X111175200Y-99581237D01*
X111175200Y-99581237D02*
X111079961Y-99676475D01*
X111079961Y-99676475D02*
X110984723Y-99724094D01*
X110984723Y-99724094D02*
X110794247Y-99771713D01*
X110794247Y-99771713D02*
X110651390Y-99771713D01*
X110651390Y-99771713D02*
X110460914Y-99724094D01*
X110460914Y-99724094D02*
X110365676Y-99676475D01*
X110365676Y-99676475D02*
X110270438Y-99581237D01*
X110270438Y-99581237D02*
X110222819Y-99438380D01*
X110222819Y-99438380D02*
X110222819Y-99343142D01*
X110222819Y-99343142D02*
X110270438Y-99200285D01*
X110270438Y-99200285D02*
X110318057Y-99152666D01*
X110318057Y-98771713D02*
X110270438Y-98724094D01*
X110270438Y-98724094D02*
X110222819Y-98628856D01*
X110222819Y-98628856D02*
X110222819Y-98390761D01*
X110222819Y-98390761D02*
X110270438Y-98295523D01*
X110270438Y-98295523D02*
X110318057Y-98247904D01*
X110318057Y-98247904D02*
X110413295Y-98200285D01*
X110413295Y-98200285D02*
X110508533Y-98200285D01*
X110508533Y-98200285D02*
X110651390Y-98247904D01*
X110651390Y-98247904D02*
X111222819Y-98819332D01*
X111222819Y-98819332D02*
X111222819Y-98200285D01*
D11*
X106766666Y-95357419D02*
X106766666Y-96071704D01*
X106766666Y-96071704D02*
X106719047Y-96214561D01*
X106719047Y-96214561D02*
X106623809Y-96309800D01*
X106623809Y-96309800D02*
X106480952Y-96357419D01*
X106480952Y-96357419D02*
X106385714Y-96357419D01*
X107671428Y-95690752D02*
X107671428Y-96357419D01*
X107433333Y-95309800D02*
X107195238Y-96024085D01*
X107195238Y-96024085D02*
X107814285Y-96024085D01*
D12*
X119213333Y-95104819D02*
X118880000Y-94628628D01*
X118641905Y-95104819D02*
X118641905Y-94104819D01*
X118641905Y-94104819D02*
X119022857Y-94104819D01*
X119022857Y-94104819D02*
X119118095Y-94152438D01*
X119118095Y-94152438D02*
X119165714Y-94200057D01*
X119165714Y-94200057D02*
X119213333Y-94295295D01*
X119213333Y-94295295D02*
X119213333Y-94438152D01*
X119213333Y-94438152D02*
X119165714Y-94533390D01*
X119165714Y-94533390D02*
X119118095Y-94581009D01*
X119118095Y-94581009D02*
X119022857Y-94628628D01*
X119022857Y-94628628D02*
X118641905Y-94628628D01*
X119594286Y-94200057D02*
X119641905Y-94152438D01*
X119641905Y-94152438D02*
X119737143Y-94104819D01*
X119737143Y-94104819D02*
X119975238Y-94104819D01*
X119975238Y-94104819D02*
X120070476Y-94152438D01*
X120070476Y-94152438D02*
X120118095Y-94200057D01*
X120118095Y-94200057D02*
X120165714Y-94295295D01*
X120165714Y-94295295D02*
X120165714Y-94390533D01*
X120165714Y-94390533D02*
X120118095Y-94533390D01*
X120118095Y-94533390D02*
X119546667Y-95104819D01*
X119546667Y-95104819D02*
X120165714Y-95104819D01*
D11*
X153942580Y-74038095D02*
X153133057Y-74038095D01*
X153133057Y-74038095D02*
X153037819Y-74085714D01*
X153037819Y-74085714D02*
X152990200Y-74133333D01*
X152990200Y-74133333D02*
X152942580Y-74228571D01*
X152942580Y-74228571D02*
X152942580Y-74419047D01*
X152942580Y-74419047D02*
X152990200Y-74514285D01*
X152990200Y-74514285D02*
X153037819Y-74561904D01*
X153037819Y-74561904D02*
X153133057Y-74609523D01*
X153133057Y-74609523D02*
X153942580Y-74609523D01*
X152942580Y-75609523D02*
X152942580Y-75038095D01*
X152942580Y-75323809D02*
X153942580Y-75323809D01*
X153942580Y-75323809D02*
X153799723Y-75228571D01*
X153799723Y-75228571D02*
X153704485Y-75133333D01*
X153704485Y-75133333D02*
X153656866Y-75038095D01*
D12*
X104809580Y-82641666D02*
X104857200Y-82689285D01*
X104857200Y-82689285D02*
X104904819Y-82832142D01*
X104904819Y-82832142D02*
X104904819Y-82927380D01*
X104904819Y-82927380D02*
X104857200Y-83070237D01*
X104857200Y-83070237D02*
X104761961Y-83165475D01*
X104761961Y-83165475D02*
X104666723Y-83213094D01*
X104666723Y-83213094D02*
X104476247Y-83260713D01*
X104476247Y-83260713D02*
X104333390Y-83260713D01*
X104333390Y-83260713D02*
X104142914Y-83213094D01*
X104142914Y-83213094D02*
X104047676Y-83165475D01*
X104047676Y-83165475D02*
X103952438Y-83070237D01*
X103952438Y-83070237D02*
X103904819Y-82927380D01*
X103904819Y-82927380D02*
X103904819Y-82832142D01*
X103904819Y-82832142D02*
X103952438Y-82689285D01*
X103952438Y-82689285D02*
X104000057Y-82641666D01*
X103904819Y-82308332D02*
X103904819Y-81641666D01*
X103904819Y-81641666D02*
X104904819Y-82070237D01*
X113833333Y-85454819D02*
X113357143Y-85454819D01*
X113357143Y-85454819D02*
X113357143Y-84454819D01*
X114690476Y-85454819D02*
X114119048Y-85454819D01*
X114404762Y-85454819D02*
X114404762Y-84454819D01*
X114404762Y-84454819D02*
X114309524Y-84597676D01*
X114309524Y-84597676D02*
X114214286Y-84692914D01*
X114214286Y-84692914D02*
X114119048Y-84740533D01*
D11*
%TO.C,U2*%
X115720000Y-93090000D02*
X115720000Y-95890000D01*
X114120000Y-93090000D02*
X115720000Y-93090000D01*
X115720000Y-95890000D02*
X114120000Y-95890000D01*
X114120000Y-95890000D02*
X114120000Y-93090000D01*
D13*
%TO.C,R3*%
X114517500Y-97955276D02*
X114517500Y-98464724D01*
X115562500Y-97955276D02*
X115562500Y-98464724D01*
%TO.C,R5*%
X112620000Y-106932379D02*
X112620000Y-107267621D01*
X113380000Y-106932379D02*
X113380000Y-107267621D01*
%TO.C,J2*%
X105160000Y-111279000D02*
X105160000Y-112529000D01*
X105450000Y-111569000D02*
X105450000Y-117539000D01*
X105450000Y-117539000D02*
X118070000Y-117539000D01*
X105460000Y-111579000D02*
X105460000Y-112329000D01*
X105460000Y-112329000D02*
X107260000Y-112329000D01*
X105460000Y-113829000D02*
X106210000Y-113829000D01*
X106210000Y-113829000D02*
X106210000Y-116779000D01*
X106210000Y-116779000D02*
X111760000Y-116779000D01*
X106410000Y-111279000D02*
X105160000Y-111279000D01*
X107260000Y-111579000D02*
X105460000Y-111579000D01*
X107260000Y-112329000D02*
X107260000Y-111579000D01*
X108760000Y-111579000D02*
X108760000Y-112329000D01*
X108760000Y-112329000D02*
X114760000Y-112329000D01*
X114760000Y-111579000D02*
X108760000Y-111579000D01*
X114760000Y-112329000D02*
X114760000Y-111579000D01*
X116260000Y-111579000D02*
X116260000Y-112329000D01*
X116260000Y-112329000D02*
X118060000Y-112329000D01*
X117310000Y-113829000D02*
X117310000Y-116779000D01*
X117310000Y-116779000D02*
X111760000Y-116779000D01*
X118060000Y-111579000D02*
X116260000Y-111579000D01*
X118060000Y-112329000D02*
X118060000Y-111579000D01*
X118060000Y-113829000D02*
X117310000Y-113829000D01*
X118070000Y-111569000D02*
X105450000Y-111569000D01*
X118070000Y-117539000D02*
X118070000Y-111569000D01*
%TO.C,A1*%
X85560000Y-77160000D02*
X85560000Y-79830000D01*
X85560000Y-82370000D02*
X85560000Y-120600000D01*
X85560000Y-120600000D02*
X90640000Y-120600000D01*
X88230000Y-79830000D02*
X85560000Y-79830000D01*
X88230000Y-82370000D02*
X85560000Y-82370000D01*
X88230000Y-82370000D02*
X88230000Y-79830000D01*
X88230000Y-82370000D02*
X88230000Y-117930000D01*
X88230000Y-117930000D02*
X85560000Y-117930000D01*
X90640000Y-112720000D02*
X98520000Y-112720000D01*
X90640000Y-123140000D02*
X90640000Y-112720000D01*
X98520000Y-112720000D02*
X98520000Y-123140000D01*
X98520000Y-123140000D02*
X90640000Y-123140000D01*
X100930000Y-79830000D02*
X100930000Y-117930000D01*
X100930000Y-79830000D02*
X103600000Y-79830000D01*
X100930000Y-117930000D02*
X103600000Y-117930000D01*
X103600000Y-77160000D02*
X85560000Y-77160000D01*
X103600000Y-120600000D02*
X98520000Y-120600000D01*
X103600000Y-120600000D02*
X103600000Y-77160000D01*
%TO.C,R8*%
X105395500Y-83057276D02*
X105395500Y-83566724D01*
X106440500Y-83057276D02*
X106440500Y-83566724D01*
%TO.C,C1*%
X125740000Y-75248335D02*
X125740000Y-75016665D01*
X126460000Y-75248335D02*
X126460000Y-75016665D01*
%TO.C,C4*%
X118286267Y-97710000D02*
X117993733Y-97710000D01*
X118286267Y-98730000D02*
X117993733Y-98730000D01*
%TO.C,D2*%
X105808000Y-107486000D02*
X105808000Y-108956000D01*
X105808000Y-108956000D02*
X108268000Y-108956000D01*
X108268000Y-107486000D02*
X105808000Y-107486000D01*
%TO.C,D3*%
X105908000Y-104661000D02*
X105908000Y-106131000D01*
X105908000Y-106131000D02*
X108368000Y-106131000D01*
X108368000Y-104661000D02*
X105908000Y-104661000D01*
%TO.C,J5*%
X105731000Y-77547000D02*
X106426000Y-77547000D01*
X105731000Y-78232000D02*
X105731000Y-77547000D01*
X105731000Y-78917000D02*
X105731000Y-78792000D01*
X105731000Y-78917000D02*
X105817724Y-78917000D01*
X105731000Y-78917000D02*
X107121000Y-78917000D01*
X107034276Y-78917000D02*
X107121000Y-78917000D01*
X107121000Y-78917000D02*
X107121000Y-78792000D01*
%TO.C,C5*%
X113384165Y-110040000D02*
X113615835Y-110040000D01*
X113384165Y-110760000D02*
X113615835Y-110760000D01*
%TO.C,R1*%
X109480000Y-99529879D02*
X109480000Y-99865121D01*
X108720000Y-99529879D02*
X108720000Y-99865121D01*
%TO.C,R4*%
X110770121Y-106420000D02*
X110434879Y-106420000D01*
X110770121Y-107180000D02*
X110434879Y-107180000D01*
%TO.C,BT2*%
X120712000Y-103096000D02*
X124212000Y-103096000D01*
X120712000Y-112296000D02*
X120712000Y-103096000D01*
X124212000Y-101996000D02*
X134092000Y-101996000D01*
X124212000Y-103096000D02*
X124212000Y-101996000D01*
X124212000Y-112296000D02*
X120712000Y-112296000D01*
X124212000Y-113396000D02*
X124212000Y-112296000D01*
X134092000Y-101996000D02*
X134092000Y-113396000D01*
X134092000Y-113396000D02*
X124212000Y-113396000D01*
X180392000Y-101996000D02*
X190272000Y-101996000D01*
X180392000Y-113396000D02*
X180392000Y-101996000D01*
X190272000Y-101996000D02*
X190272000Y-103096000D01*
X190272000Y-103096000D02*
X193772000Y-103096000D01*
X190272000Y-112296000D02*
X190272000Y-113396000D01*
X190272000Y-113396000D02*
X180392000Y-113396000D01*
X193772000Y-103096000D02*
X193772000Y-112296000D01*
X193772000Y-112296000D02*
X190272000Y-112296000D01*
X120712000Y-105896000D02*
G75*
G02*
X120712000Y-109496000I0J-1800000D01*
G01*
X193772000Y-109496000D02*
G75*
G02*
X193772000Y-105896000I0J1800000D01*
G01*
%TO.C,BT1*%
X120712000Y-82268000D02*
X124212000Y-82268000D01*
X120712000Y-91468000D02*
X120712000Y-82268000D01*
X124212000Y-81168000D02*
X134092000Y-81168000D01*
X124212000Y-82268000D02*
X124212000Y-81168000D01*
X124212000Y-91468000D02*
X120712000Y-91468000D01*
X124212000Y-92568000D02*
X124212000Y-91468000D01*
X134092000Y-81168000D02*
X134092000Y-92568000D01*
X134092000Y-92568000D02*
X124212000Y-92568000D01*
X180392000Y-81668000D02*
X190272000Y-81668000D01*
X180392000Y-93068000D02*
X180392000Y-81668000D01*
X190272000Y-81668000D02*
X190272000Y-82768000D01*
X190272000Y-82768000D02*
X193772000Y-82768000D01*
X190272000Y-91968000D02*
X190272000Y-93068000D01*
X190272000Y-93068000D02*
X180392000Y-93068000D01*
X193772000Y-82768000D02*
X193772000Y-91968000D01*
X193772000Y-91968000D02*
X190272000Y-91968000D01*
X120712000Y-85068000D02*
G75*
G02*
X120712000Y-88668000I0J-1800000D01*
G01*
X193772000Y-89168000D02*
G75*
G02*
X193772000Y-85568000I0J1800000D01*
G01*
%TO.C,R7*%
X110735621Y-105116000D02*
X110400379Y-105116000D01*
X110735621Y-105876000D02*
X110400379Y-105876000D01*
%TO.C,D1*%
X110700000Y-103235000D02*
X113160000Y-103235000D01*
X113160000Y-101765000D02*
X110700000Y-101765000D01*
X113160000Y-103235000D02*
X113160000Y-101765000D01*
%TO.C,BATT2*%
X144900000Y-80300000D02*
G75*
G02*
X142500000Y-80300000I-1200000J0D01*
G01*
X142500000Y-80300000D02*
G75*
G02*
X144900000Y-80300000I1200000J0D01*
G01*
%TO.C,C8*%
X111130000Y-92316665D02*
X111130000Y-92548335D01*
X110410000Y-92316665D02*
X110410000Y-92548335D01*
%TO.C,C6*%
X108640000Y-92346665D02*
X108640000Y-92578335D01*
X109360000Y-92346665D02*
X109360000Y-92578335D01*
%TO.C,J1*%
X111216000Y-75719000D02*
X111216000Y-76969000D01*
X111506000Y-76009000D02*
X111506000Y-81979000D01*
X111506000Y-81979000D02*
X119126000Y-81979000D01*
X111516000Y-76019000D02*
X111516000Y-76769000D01*
X111516000Y-76769000D02*
X113316000Y-76769000D01*
X111516000Y-78269000D02*
X112266000Y-78269000D01*
X112266000Y-78269000D02*
X112266000Y-81219000D01*
X112266000Y-81219000D02*
X115316000Y-81219000D01*
X112466000Y-75719000D02*
X111216000Y-75719000D01*
X113316000Y-76019000D02*
X111516000Y-76019000D01*
X113316000Y-76769000D02*
X113316000Y-76019000D01*
X114816000Y-76019000D02*
X114816000Y-76769000D01*
X114816000Y-76769000D02*
X115816000Y-76769000D01*
X115816000Y-76019000D02*
X114816000Y-76019000D01*
X115816000Y-76769000D02*
X115816000Y-76019000D01*
X117316000Y-76019000D02*
X117316000Y-76769000D01*
X117316000Y-76769000D02*
X119116000Y-76769000D01*
X118366000Y-78269000D02*
X118366000Y-81219000D01*
X118366000Y-81219000D02*
X115316000Y-81219000D01*
X119116000Y-76019000D02*
X117316000Y-76019000D01*
X119116000Y-76769000D02*
X119116000Y-76019000D01*
X119116000Y-78269000D02*
X118366000Y-78269000D01*
X119126000Y-76009000D02*
X111506000Y-76009000D01*
X119126000Y-81979000D02*
X119126000Y-76009000D01*
%TO.C,C3*%
X119835000Y-91158748D02*
X119835000Y-91681252D01*
X118365000Y-91158748D02*
X118365000Y-91681252D01*
%TO.C,BATT1*%
X138868000Y-117094000D02*
G75*
G02*
X136468000Y-117094000I-1200000J0D01*
G01*
X136468000Y-117094000D02*
G75*
G02*
X138868000Y-117094000I1200000J0D01*
G01*
%TO.C,C2*%
X111535000Y-96261252D02*
X111535000Y-95738748D01*
X110065000Y-96261252D02*
X110065000Y-95738748D01*
%TO.C,R2*%
X118417621Y-95470000D02*
X118082379Y-95470000D01*
X118417621Y-96230000D02*
X118082379Y-96230000D01*
D11*
%TO.C,U1*%
X126990000Y-59060000D02*
X152390000Y-59060000D01*
X126990000Y-76840000D02*
X126990000Y-59060000D01*
X152390000Y-59060000D02*
X152390000Y-76840000D01*
X152390000Y-76840000D02*
X126990000Y-76840000D01*
D13*
%TO.C,C7*%
X104040000Y-80615835D02*
X104040000Y-80384165D01*
X104760000Y-80615835D02*
X104760000Y-80384165D01*
%TO.C,L1*%
X112550000Y-86040000D02*
X116550000Y-86040000D01*
X112650000Y-91940000D02*
X116650000Y-91940000D01*
%TD*%
M02*
