%TF.GenerationSoftware,KiCad,Pcbnew,8.0.8*%
%TF.CreationDate,2025-03-07T18:47:05-08:00*%
%TF.ProjectId,ROCKETRY Camera PCB,524f434b-4554-4525-9920-43616d657261,Rev2.3*%
%TF.SameCoordinates,Original*%
%TF.FileFunction,Soldermask,Bot*%
%TF.FilePolarity,Negative*%
%FSLAX46Y46*%
G04 Gerber Fmt 4.6, Leading zero omitted, Abs format (unit mm)*
G04 Created by KiCad (PCBNEW 8.0.8) date 2025-03-07 18:47:05*
%MOMM*%
%LPD*%
G01*
G04 APERTURE LIST*
G04 Aperture macros list*
%AMRoundRect*
0 Rectangle with rounded corners*
0 $1 Rounding radius*
0 $2 $3 $4 $5 $6 $7 $8 $9 X,Y pos of 4 corners*
0 Add a 4 corners polygon primitive as box body*
4,1,4,$2,$3,$4,$5,$6,$7,$8,$9,$2,$3,0*
0 Add four circle primitives for the rounded corners*
1,1,$1+$1,$2,$3*
1,1,$1+$1,$4,$5*
1,1,$1+$1,$6,$7*
1,1,$1+$1,$8,$9*
0 Add four rect primitives between the rounded corners*
20,1,$1+$1,$2,$3,$4,$5,0*
20,1,$1+$1,$4,$5,$6,$7,0*
20,1,$1+$1,$6,$7,$8,$9,0*
20,1,$1+$1,$8,$9,$2,$3,0*%
G04 Aperture macros list end*
%ADD10RoundRect,0.261177X-0.626823X-0.751823X0.626823X-0.751823X0.626823X0.751823X-0.626823X0.751823X0*%
%ADD11O,1.776000X2.026000*%
%ADD12RoundRect,0.038000X-0.800000X-0.800000X0.800000X-0.800000X0.800000X0.800000X-0.800000X0.800000X0*%
%ADD13O,1.676000X1.676000*%
%ADD14RoundRect,0.038000X-0.425000X-0.425000X0.425000X-0.425000X0.425000X0.425000X-0.425000X0.425000X0*%
%ADD15C,2.666800*%
%ADD16RoundRect,0.261177X-0.626823X-0.776823X0.626823X-0.776823X0.626823X0.776823X-0.626823X0.776823X0*%
%ADD17O,1.776000X2.076000*%
%ADD18C,1.600000*%
G04 APERTURE END LIST*
D10*
%TO.C,J2*%
X108010000Y-114029000D03*
D11*
X110510000Y-114029000D03*
X113010000Y-114029000D03*
X115510000Y-114029000D03*
%TD*%
D12*
%TO.C,A1*%
X86960000Y-81100000D03*
D13*
X86960000Y-83640000D03*
X86960000Y-86180000D03*
X86960000Y-88720000D03*
X86960000Y-91260000D03*
X86960000Y-93800000D03*
X86960000Y-96340000D03*
X86960000Y-98880000D03*
X86960000Y-101420000D03*
X86960000Y-103960000D03*
X86960000Y-106500000D03*
X86960000Y-109040000D03*
X86960000Y-111580000D03*
X86960000Y-114120000D03*
X86960000Y-116660000D03*
X102200000Y-116660000D03*
X102200000Y-114120000D03*
X102200000Y-111580000D03*
X102200000Y-109040000D03*
X102200000Y-106500000D03*
X102200000Y-103960000D03*
X102200000Y-101420000D03*
X102200000Y-98880000D03*
X102200000Y-96340000D03*
X102200000Y-93800000D03*
X102200000Y-91260000D03*
X102200000Y-88720000D03*
X102200000Y-86180000D03*
X102200000Y-83640000D03*
X102200000Y-81100000D03*
%TD*%
D14*
%TO.C,J5*%
X106426000Y-78232000D03*
%TD*%
D15*
%TO.C,BT2*%
X124492000Y-107696000D03*
X132112000Y-105156000D03*
X132112000Y-110236000D03*
X182372000Y-105156000D03*
X182372000Y-110236000D03*
X189992000Y-107696000D03*
%TD*%
%TO.C,BT1*%
X124492000Y-86868000D03*
X132112000Y-84328000D03*
X132112000Y-89408000D03*
X182372000Y-84828000D03*
X182372000Y-89908000D03*
X189992000Y-87368000D03*
%TD*%
D16*
%TO.C,J1*%
X114066000Y-78469000D03*
D17*
X116566000Y-78469000D03*
%TD*%
D18*
%TO.C,J4*%
X105500000Y-95000000D03*
%TD*%
%TO.C,U1*%
X138420000Y-61600000D03*
X140960000Y-61600000D03*
X143500000Y-61600000D03*
X138674000Y-74300000D03*
X141214000Y-74300000D03*
X143754000Y-74300000D03*
X146294000Y-74300000D03*
%TD*%
M02*
