%TF.GenerationSoftware,KiCad,Pcbnew,8.0.8*%
%TF.CreationDate,2025-03-07T18:47:06-08:00*%
%TF.ProjectId,ROCKETRY Camera PCB,524f434b-4554-4525-9920-43616d657261,Rev2.3*%
%TF.SameCoordinates,Original*%
%TF.FileFunction,Profile,NP*%
%FSLAX46Y46*%
G04 Gerber Fmt 4.6, Leading zero omitted, Abs format (unit mm)*
G04 Created by KiCad (PCBNEW 8.0.8) date 2025-03-07 18:47:06*
%MOMM*%
%LPD*%
G01*
G04 APERTURE LIST*
%TA.AperFunction,Profile*%
%ADD10C,0.050000*%
%TD*%
G04 APERTURE END LIST*
D10*
X119888000Y-68453000D02*
G75*
G02*
X116078000Y-68453000I-1905000J0D01*
G01*
X116078000Y-68453000D02*
G75*
G02*
X119888000Y-68453000I1905000J0D01*
G01*
X87630000Y-125730000D02*
X87185940Y-125509139D01*
X124600000Y-62400000D02*
X124620000Y-61900000D01*
X83800000Y-80600000D02*
X83800000Y-120300000D01*
X157505400Y-63576200D02*
X155700000Y-63600000D01*
X191712811Y-125569465D02*
X191320000Y-125730000D01*
X124600000Y-62400000D02*
G75*
G02*
X123400000Y-63600000I-1200000J0D01*
G01*
X170729058Y-74856774D02*
G75*
G02*
X166410000Y-70890000I1177042J5616274D01*
G01*
X83800000Y-80600000D02*
G75*
G02*
X89500000Y-74900000I5700000J0D01*
G01*
X195500000Y-120200000D02*
X195597491Y-80596614D01*
X166410000Y-70890000D02*
X166400000Y-67900000D01*
X172212000Y-80772002D02*
G75*
G02*
X169672000Y-83312000I-2540000J2D01*
G01*
X107090000Y-74930000D02*
X89500000Y-74900000D01*
X151000000Y-58300000D02*
G75*
G02*
X154600000Y-61900000I0J-3600000D01*
G01*
X149352000Y-78232000D02*
X169672000Y-78232000D01*
X190000000Y-74900001D02*
G75*
G02*
X195597477Y-80596614I-100000J-5696599D01*
G01*
X119855000Y-122200000D02*
G75*
G02*
X116045000Y-122200000I-1905000J0D01*
G01*
X116045000Y-122200000D02*
G75*
G02*
X119855000Y-122200000I1905000J0D01*
G01*
X195500000Y-120200000D02*
G75*
G02*
X191712811Y-125569465I-5700000J0D01*
G01*
X170729058Y-74856774D02*
X171100000Y-74930000D01*
X157505400Y-63576200D02*
X162100000Y-63600000D01*
X169672000Y-78232000D02*
G75*
G02*
X172212000Y-80772000I0J-2540000D01*
G01*
X113000000Y-67800000D02*
G75*
G02*
X117200000Y-63600000I4200000J0D01*
G01*
X113030051Y-70891423D02*
G75*
G02*
X107569000Y-74853799I-6264351J2889223D01*
G01*
X87630000Y-125730000D02*
X191320000Y-125730000D01*
X163630000Y-122200000D02*
G75*
G02*
X159820000Y-122200000I-1905000J0D01*
G01*
X159820000Y-122200000D02*
G75*
G02*
X163630000Y-122200000I1905000J0D01*
G01*
X149352000Y-83312000D02*
G75*
G02*
X146812000Y-80772000I0J2540000D01*
G01*
X113030000Y-70891400D02*
X113000000Y-67800000D01*
X123400000Y-63600000D02*
X117200000Y-63600000D01*
X190000000Y-74900001D02*
X171100000Y-74930000D01*
X107569000Y-74853800D02*
X107090000Y-74930000D01*
X124620000Y-61900000D02*
G75*
G02*
X128100000Y-58420000I3480000J0D01*
G01*
X149352000Y-83312000D02*
X169672000Y-83312000D01*
X146811999Y-80771999D02*
G75*
G02*
X149351999Y-78231999I2540001J-1D01*
G01*
X87185940Y-125509139D02*
G75*
G02*
X83800000Y-120300000I2314060J5209139D01*
G01*
X162100000Y-63600000D02*
G75*
G02*
X166400000Y-67900000I0J-4300000D01*
G01*
X151000000Y-58300000D02*
X128100000Y-58420000D01*
X155700000Y-63600000D02*
G75*
G02*
X154600000Y-62500000I0J1100000D01*
G01*
X154600000Y-62500000D02*
X154600000Y-61900000D01*
X163576000Y-68453000D02*
G75*
G02*
X159766000Y-68453000I-1905000J0D01*
G01*
X159766000Y-68453000D02*
G75*
G02*
X163576000Y-68453000I1905000J0D01*
G01*
M02*
