M48
; DRILL file {KiCad 8.0.8} date 2025-03-07T18:47:17-0800
; FORMAT={-:-/ absolute / inch / decimal}
; #@! TF.CreationDate,2025-03-07T18:47:17-08:00
; #@! TF.GenerationSoftware,Kicad,Pcbnew,8.0.8
; #@! TF.FileFunction,Plated,1,2,PTH
FMAT,2
INCH
; #@! TA.AperFunction,Plated,PTH,ViaDrill
T1C0.0118
; #@! TA.AperFunction,Plated,PTH,ComponentDrill
T2C0.0197
; #@! TA.AperFunction,Plated,PTH,ComponentDrill
T3C0.0300
; #@! TA.AperFunction,Plated,PTH,ComponentDrill
T4C0.0374
; #@! TA.AperFunction,Plated,PTH,ComponentDrill
T5C0.0394
; #@! TA.AperFunction,Plated,PTH,ComponentDrill
T6C0.0400
; #@! TA.AperFunction,Plated,PTH,ComponentDrill
T7C0.0720
%
G90
G05
T1
X3.8661Y-3.3937
X4.12Y-3.32
X4.3031Y-3.815
X4.3583Y-3.5591
X4.4213Y-3.7323
X4.5236Y-3.9606
X4.6654Y-3.7323
X4.97Y-2.9
X5.29Y-2.98
T2
X4.19Y-3.08
T3
X4.1535Y-3.7402
T4
X4.2524Y-4.4893
X4.3508Y-4.4893
X4.4492Y-4.4893
X4.5476Y-4.4893
T5
X3.4236Y-3.1929
X3.4236Y-3.2929
X3.4236Y-3.3929
X3.4236Y-3.4929
X3.4236Y-3.5929
X3.4236Y-3.6929
X3.4236Y-3.7929
X3.4236Y-3.8929
X3.4236Y-3.9929
X3.4236Y-4.0929
X3.4236Y-4.1929
X3.4236Y-4.2929
X3.4236Y-4.3929
X3.4236Y-4.4929
X3.4236Y-4.5929
X4.0236Y-3.1929
X4.0236Y-3.2929
X4.0236Y-3.3929
X4.0236Y-3.4929
X4.0236Y-3.5929
X4.0236Y-3.6929
X4.0236Y-3.7929
X4.0236Y-3.8929
X4.0236Y-3.9929
X4.0236Y-4.0929
X4.0236Y-4.1929
X4.0236Y-4.2929
X4.0236Y-4.3929
X4.0236Y-4.4929
X4.0236Y-4.5929
X4.4908Y-3.0893
X4.5892Y-3.0893
T6
X5.2596Y-2.9252
X5.3496Y-2.4252
X5.3596Y-2.9252
X5.4496Y-2.4252
X5.4596Y-2.9252
X5.5496Y-2.4252
X5.5596Y-2.9252
X5.6496Y-2.4252
X5.6596Y-2.9252
X5.7596Y-2.9252
T7
X4.9013Y-3.42
X4.9013Y-4.24
X5.2013Y-3.32
X5.2013Y-3.52
X5.2013Y-4.14
X5.2013Y-4.34
X7.18Y-3.3397
X7.18Y-3.5397
X7.18Y-4.14
X7.18Y-4.34
X7.48Y-3.4397
X7.48Y-4.24
M30
