%TF.GenerationSoftware,KiCad,Pcbnew,8.0.8*%
%TF.CreationDate,2025-03-07T18:47:05-08:00*%
%TF.ProjectId,ROCKETRY Camera PCB,524f434b-4554-4525-9920-43616d657261,Rev2.3*%
%TF.SameCoordinates,Original*%
%TF.FileFunction,Copper,L1,Top*%
%TF.FilePolarity,Positive*%
%FSLAX46Y46*%
G04 Gerber Fmt 4.6, Leading zero omitted, Abs format (unit mm)*
G04 Created by KiCad (PCBNEW 8.0.8) date 2025-03-07 18:47:05*
%MOMM*%
%LPD*%
G01*
G04 APERTURE LIST*
G04 Aperture macros list*
%AMRoundRect*
0 Rectangle with rounded corners*
0 $1 Rounding radius*
0 $2 $3 $4 $5 $6 $7 $8 $9 X,Y pos of 4 corners*
0 Add a 4 corners polygon primitive as box body*
4,1,4,$2,$3,$4,$5,$6,$7,$8,$9,$2,$3,0*
0 Add four circle primitives for the rounded corners*
1,1,$1+$1,$2,$3*
1,1,$1+$1,$4,$5*
1,1,$1+$1,$6,$7*
1,1,$1+$1,$8,$9*
0 Add four rect primitives between the rounded corners*
20,1,$1+$1,$2,$3,$4,$5,0*
20,1,$1+$1,$4,$5,$6,$7,0*
20,1,$1+$1,$6,$7,$8,$9,0*
20,1,$1+$1,$8,$9,$2,$3,0*%
G04 Aperture macros list end*
%TA.AperFunction,SMDPad,CuDef*%
%ADD10RoundRect,0.175000X-0.325000X0.175000X-0.325000X-0.175000X0.325000X-0.175000X0.325000X0.175000X0*%
%TD*%
%TA.AperFunction,SMDPad,CuDef*%
%ADD11RoundRect,0.237500X-0.237500X0.250000X-0.237500X-0.250000X0.237500X-0.250000X0.237500X0.250000X0*%
%TD*%
%TA.AperFunction,SMDPad,CuDef*%
%ADD12RoundRect,0.160000X-0.160000X0.197500X-0.160000X-0.197500X0.160000X-0.197500X0.160000X0.197500X0*%
%TD*%
%TA.AperFunction,ComponentPad*%
%ADD13RoundRect,0.250000X-0.600000X-0.725000X0.600000X-0.725000X0.600000X0.725000X-0.600000X0.725000X0*%
%TD*%
%TA.AperFunction,ComponentPad*%
%ADD14O,1.700000X1.950000*%
%TD*%
%TA.AperFunction,ComponentPad*%
%ADD15R,1.600000X1.600000*%
%TD*%
%TA.AperFunction,ComponentPad*%
%ADD16O,1.600000X1.600000*%
%TD*%
%TA.AperFunction,SMDPad,CuDef*%
%ADD17RoundRect,0.155000X0.155000X-0.212500X0.155000X0.212500X-0.155000X0.212500X-0.155000X-0.212500X0*%
%TD*%
%TA.AperFunction,SMDPad,CuDef*%
%ADD18RoundRect,0.237500X0.300000X0.237500X-0.300000X0.237500X-0.300000X-0.237500X0.300000X-0.237500X0*%
%TD*%
%TA.AperFunction,SMDPad,CuDef*%
%ADD19RoundRect,0.237500X-0.287500X-0.237500X0.287500X-0.237500X0.287500X0.237500X-0.287500X0.237500X0*%
%TD*%
%TA.AperFunction,ComponentPad*%
%ADD20R,0.850000X0.850000*%
%TD*%
%TA.AperFunction,SMDPad,CuDef*%
%ADD21RoundRect,0.155000X-0.212500X-0.155000X0.212500X-0.155000X0.212500X0.155000X-0.212500X0.155000X0*%
%TD*%
%TA.AperFunction,SMDPad,CuDef*%
%ADD22RoundRect,0.160000X0.197500X0.160000X-0.197500X0.160000X-0.197500X-0.160000X0.197500X-0.160000X0*%
%TD*%
%TA.AperFunction,ComponentPad*%
%ADD23C,2.590800*%
%TD*%
%TA.AperFunction,SMDPad,CuDef*%
%ADD24RoundRect,0.237500X0.287500X0.237500X-0.287500X0.237500X-0.287500X-0.237500X0.287500X-0.237500X0*%
%TD*%
%TA.AperFunction,SMDPad,CuDef*%
%ADD25C,2.000000*%
%TD*%
%TA.AperFunction,SMDPad,CuDef*%
%ADD26RoundRect,0.155000X-0.155000X0.212500X-0.155000X-0.212500X0.155000X-0.212500X0.155000X0.212500X0*%
%TD*%
%TA.AperFunction,ComponentPad*%
%ADD27RoundRect,0.250000X-0.600000X-0.750000X0.600000X-0.750000X0.600000X0.750000X-0.600000X0.750000X0*%
%TD*%
%TA.AperFunction,ComponentPad*%
%ADD28O,1.700000X2.000000*%
%TD*%
%TA.AperFunction,SMDPad,CuDef*%
%ADD29RoundRect,0.250000X-0.475000X0.337500X-0.475000X-0.337500X0.475000X-0.337500X0.475000X0.337500X0*%
%TD*%
%TA.AperFunction,SMDPad,CuDef*%
%ADD30RoundRect,0.250000X0.475000X-0.337500X0.475000X0.337500X-0.475000X0.337500X-0.475000X-0.337500X0*%
%TD*%
%TA.AperFunction,ComponentPad*%
%ADD31C,1.524000*%
%TD*%
%TA.AperFunction,SMDPad,CuDef*%
%ADD32R,1.365000X4.070000*%
%TD*%
%TA.AperFunction,ViaPad*%
%ADD33C,0.600000*%
%TD*%
%TA.AperFunction,Conductor*%
%ADD34C,0.508000*%
%TD*%
%TA.AperFunction,Conductor*%
%ADD35C,1.016000*%
%TD*%
%TA.AperFunction,Conductor*%
%ADD36C,0.762000*%
%TD*%
G04 APERTURE END LIST*
D10*
%TO.P,U2,1,GND*%
%TO.N,GND*%
X113820000Y-93490000D03*
%TO.P,U2,2,SW*%
%TO.N,Net-(U2-SW)*%
X113820000Y-94490000D03*
%TO.P,U2,3,VIN*%
%TO.N,Net-(J1-Pin_1)*%
X113820000Y-95490000D03*
%TO.P,U2,6,BST*%
%TO.N,Net-(U2-BST)*%
X116020000Y-93490000D03*
%TO.P,U2,5,EN*%
%TO.N,unconnected-(U2-EN-Pad5)*%
X116020000Y-94490000D03*
%TO.P,U2,4,FB*%
%TO.N,Net-(U2-FB)*%
X116020000Y-95490000D03*
%TD*%
D11*
%TO.P,R3,1*%
%TO.N,Net-(U2-FB)*%
X115040000Y-97297500D03*
%TO.P,R3,2*%
%TO.N,GND*%
X115040000Y-99122500D03*
%TD*%
D12*
%TO.P,R5,1*%
%TO.N,+5V*%
X113000000Y-106502500D03*
%TO.P,R5,2*%
%TO.N,Net-(J2-Pin_3)*%
X113000000Y-107697500D03*
%TD*%
D13*
%TO.P,J2,1,Pin_1*%
%TO.N,Net-(A1-D0{slash}RX)*%
X108010000Y-114029000D03*
D14*
%TO.P,J2,2,Pin_2*%
%TO.N,Net-(A1-D1{slash}TX)*%
X110510000Y-114029000D03*
%TO.P,J2,3,Pin_3*%
%TO.N,Net-(J2-Pin_3)*%
X113010000Y-114029000D03*
%TO.P,J2,4,Pin_4*%
%TO.N,GND*%
X115510000Y-114029000D03*
%TD*%
D15*
%TO.P,A1,1,D1/TX*%
%TO.N,Net-(A1-D1{slash}TX)*%
X86960000Y-81100000D03*
D16*
%TO.P,A1,2,D0/RX*%
%TO.N,Net-(A1-D0{slash}RX)*%
X86960000Y-83640000D03*
%TO.P,A1,3,~{RESET}*%
%TO.N,Net-(A1-~{RESET}-Pad28)*%
X86960000Y-86180000D03*
%TO.P,A1,4,GND*%
%TO.N,GND*%
X86960000Y-88720000D03*
%TO.P,A1,5,D2*%
X86960000Y-91260000D03*
%TO.P,A1,6,D3*%
X86960000Y-93800000D03*
%TO.P,A1,7,D4*%
X86960000Y-96340000D03*
%TO.P,A1,8,D5*%
X86960000Y-98880000D03*
%TO.P,A1,9,D6*%
X86960000Y-101420000D03*
%TO.P,A1,10,D7*%
X86960000Y-103960000D03*
%TO.P,A1,11,D8*%
X86960000Y-106500000D03*
%TO.P,A1,12,D9*%
X86960000Y-109040000D03*
%TO.P,A1,13,D10*%
X86960000Y-111580000D03*
%TO.P,A1,14,D11*%
X86960000Y-114120000D03*
%TO.P,A1,15,D12*%
X86960000Y-116660000D03*
%TO.P,A1,16,D13*%
X102200000Y-116660000D03*
%TO.P,A1,17,3V3*%
%TO.N,unconnected-(A1-3V3-Pad17)*%
X102200000Y-114120000D03*
%TO.P,A1,18,AREF*%
%TO.N,GND*%
X102200000Y-111580000D03*
%TO.P,A1,19,A0*%
X102200000Y-109040000D03*
%TO.P,A1,20,A1*%
X102200000Y-106500000D03*
%TO.P,A1,21,A2*%
X102200000Y-103960000D03*
%TO.P,A1,22,A3*%
X102200000Y-101420000D03*
%TO.P,A1,23,A4*%
%TO.N,/SDA*%
X102200000Y-98880000D03*
%TO.P,A1,24,A5*%
%TO.N,/SCL*%
X102200000Y-96340000D03*
%TO.P,A1,25,A6*%
%TO.N,GND*%
X102200000Y-93800000D03*
%TO.P,A1,26,A7*%
X102200000Y-91260000D03*
%TO.P,A1,27,+5V*%
%TO.N,Net-(A1-+5V)*%
X102200000Y-88720000D03*
%TO.P,A1,28,~{RESET}*%
%TO.N,Net-(A1-~{RESET}-Pad28)*%
X102200000Y-86180000D03*
%TO.P,A1,29,GND*%
%TO.N,GND*%
X102200000Y-83640000D03*
%TO.P,A1,30,VIN*%
%TO.N,+5V*%
X102200000Y-81100000D03*
%TD*%
D11*
%TO.P,R8,1*%
%TO.N,+5V*%
X105918000Y-82399500D03*
%TO.P,R8,2*%
%TO.N,Net-(A1-~{RESET}-Pad28)*%
X105918000Y-84224500D03*
%TD*%
D17*
%TO.P,C1,1*%
%TO.N,+5V*%
X126100000Y-75700000D03*
%TO.P,C1,2*%
%TO.N,GND*%
X126100000Y-74565000D03*
%TD*%
D18*
%TO.P,C4,1*%
%TO.N,+5V*%
X119002500Y-98220000D03*
%TO.P,C4,2*%
%TO.N,Net-(U2-FB)*%
X117277500Y-98220000D03*
%TD*%
D19*
%TO.P,D2,1,K*%
%TO.N,GND*%
X106593000Y-108221000D03*
%TO.P,D2,2,A*%
%TO.N,Net-(D2-A)*%
X108343000Y-108221000D03*
%TD*%
%TO.P,D3,1,K*%
%TO.N,GND*%
X106693000Y-105396000D03*
%TO.P,D3,2,A*%
%TO.N,Net-(D3-A)*%
X108443000Y-105396000D03*
%TD*%
D20*
%TO.P,J5,1,Pin_1*%
%TO.N,+5V*%
X106426000Y-78232000D03*
%TD*%
D21*
%TO.P,C5,1*%
%TO.N,Net-(J2-Pin_3)*%
X112932500Y-110400000D03*
%TO.P,C5,2*%
%TO.N,GND*%
X114067500Y-110400000D03*
%TD*%
D12*
%TO.P,R1,1*%
%TO.N,Net-(J1-Pin_1)*%
X109100000Y-99100000D03*
%TO.P,R1,2*%
%TO.N,Net-(D1-A)*%
X109100000Y-100295000D03*
%TD*%
D22*
%TO.P,R4,1*%
%TO.N,Net-(J2-Pin_3)*%
X111200000Y-106800000D03*
%TO.P,R4,2*%
%TO.N,Net-(D2-A)*%
X110005000Y-106800000D03*
%TD*%
D23*
%TO.P,BT2,1,+*%
%TO.N,+BATT*%
X124492000Y-107696000D03*
X132112000Y-105156000D03*
X132112000Y-110236000D03*
%TO.P,BT2,2,-*%
%TO.N,GND*%
X182372000Y-105156000D03*
X182372000Y-110236000D03*
X189992000Y-107696000D03*
%TD*%
%TO.P,BT1,1,+*%
%TO.N,VCC*%
X124492000Y-86868000D03*
X132112000Y-84328000D03*
X132112000Y-89408000D03*
%TO.P,BT1,2,-*%
%TO.N,+BATT*%
X182372000Y-84828000D03*
X182372000Y-89908000D03*
X189992000Y-87368000D03*
%TD*%
D22*
%TO.P,R7,1*%
%TO.N,+5V*%
X111165500Y-105496000D03*
%TO.P,R7,2*%
%TO.N,Net-(D3-A)*%
X109970500Y-105496000D03*
%TD*%
D24*
%TO.P,D1,1,K*%
%TO.N,GND*%
X112375000Y-102500000D03*
%TO.P,D1,2,A*%
%TO.N,Net-(D1-A)*%
X110625000Y-102500000D03*
%TD*%
D25*
%TO.P,BATT2,1,1*%
%TO.N,VCC*%
X143700000Y-80300000D03*
%TD*%
D26*
%TO.P,C8,1*%
%TO.N,+5V*%
X110770000Y-91865000D03*
%TO.P,C8,2*%
%TO.N,GND*%
X110770000Y-93000000D03*
%TD*%
%TO.P,C6,2*%
%TO.N,GND*%
X109000000Y-93030000D03*
%TO.P,C6,1*%
%TO.N,+5V*%
X109000000Y-91895000D03*
%TD*%
D27*
%TO.P,J1,1,Pin_1*%
%TO.N,Net-(J1-Pin_1)*%
X114066000Y-78469000D03*
D28*
%TO.P,J1,2,Pin_2*%
%TO.N,VCC*%
X116566000Y-78469000D03*
%TD*%
D29*
%TO.P,C3,1*%
%TO.N,Net-(U2-SW)*%
X119100000Y-90382500D03*
%TO.P,C3,2*%
%TO.N,Net-(U2-BST)*%
X119100000Y-92457500D03*
%TD*%
D25*
%TO.P,BATT1,1,1*%
%TO.N,+BATT*%
X137668000Y-117094000D03*
%TD*%
D30*
%TO.P,C2,1*%
%TO.N,Net-(J1-Pin_1)*%
X110800000Y-97037500D03*
%TO.P,C2,2*%
%TO.N,GND*%
X110800000Y-94962500D03*
%TD*%
D31*
%TO.P,J4,1,Pin_1*%
%TO.N,Net-(A1-+5V)*%
X105500000Y-95000000D03*
%TD*%
D22*
%TO.P,R2,1*%
%TO.N,+5V*%
X118847500Y-95850000D03*
%TO.P,R2,2*%
%TO.N,Net-(U2-FB)*%
X117652500Y-95850000D03*
%TD*%
D31*
%TO.P,U1,1,GND*%
%TO.N,GND*%
X135880000Y-61600000D03*
%TO.P,U1,2,I2*%
X138420000Y-61600000D03*
%TO.P,U1,3,SNO*%
X140960000Y-61600000D03*
%TO.P,U1,4,CS*%
X143500000Y-61600000D03*
%TO.P,U1,5,VIN*%
%TO.N,+5V*%
X133594000Y-74300000D03*
%TO.P,U1,6,GND*%
%TO.N,GND*%
X138674000Y-74300000D03*
%TO.P,U1,7,SCL*%
%TO.N,/SCL*%
X141214000Y-74300000D03*
%TO.P,U1,8,SDA*%
%TO.N,/SDA*%
X143754000Y-74300000D03*
%TO.P,U1,9,INT*%
%TO.N,GND*%
X146294000Y-74300000D03*
%TO.P,U1,10,3Vo*%
%TO.N,unconnected-(U1-3Vo-Pad10)*%
X136134000Y-74300000D03*
%TD*%
D17*
%TO.P,C7,1*%
%TO.N,GND*%
X104400000Y-81067500D03*
%TO.P,C7,2*%
%TO.N,+5V*%
X104400000Y-79932500D03*
%TD*%
D32*
%TO.P,L1,1,1*%
%TO.N,Net-(U2-SW)*%
X116350000Y-88940000D03*
%TO.P,L1,2,2*%
%TO.N,+5V*%
X112822500Y-88925000D03*
%TD*%
D33*
%TO.N,Net-(J1-Pin_1)*%
X109300000Y-96900000D03*
%TO.N,GND*%
X112300000Y-94800000D03*
X114900000Y-100600000D03*
%TO.N,+5V*%
X110700000Y-90400000D03*
X118500000Y-94800000D03*
%TO.N,GND*%
X126238000Y-73660000D03*
%TO.N,Net-(A1-~{RESET}-Pad28)*%
X104648000Y-84328000D03*
X98200000Y-86200000D03*
%TO.N,/SDA*%
X134366000Y-75692000D03*
%TD*%
D34*
%TO.N,GND*%
X106593000Y-105496000D02*
X106693000Y-105396000D01*
X106593000Y-108221000D02*
X106593000Y-105496000D01*
D35*
%TO.N,Net-(A1-~{RESET}-Pad28)*%
X104648000Y-84328000D02*
X104751500Y-84224500D01*
X104751500Y-84224500D02*
X105918000Y-84224500D01*
D34*
X102180000Y-86200000D02*
X102200000Y-86180000D01*
X98200000Y-86200000D02*
X102180000Y-86200000D01*
%TO.N,Net-(A1-D0{slash}RX)*%
X94000000Y-111500000D02*
X95334000Y-112834000D01*
X94000000Y-90680000D02*
X94000000Y-111500000D01*
X95334000Y-112834000D02*
X106815000Y-112834000D01*
X106815000Y-112834000D02*
X108010000Y-114029000D01*
X86960000Y-83640000D02*
X94000000Y-90680000D01*
%TO.N,Net-(A1-D1{slash}TX)*%
X106807000Y-110326000D02*
X110510000Y-114029000D01*
X96600000Y-108000000D02*
X98926000Y-110326000D01*
X96600000Y-90740000D02*
X96600000Y-108000000D01*
X86960000Y-81100000D02*
X96600000Y-90740000D01*
X98926000Y-110326000D02*
X106807000Y-110326000D01*
D36*
%TO.N,+5V*%
X126047500Y-75700000D02*
X126100000Y-75700000D01*
X112822500Y-88925000D02*
X126047500Y-75700000D01*
D35*
X104903684Y-79932500D02*
X104400000Y-79932500D01*
X105664000Y-80692816D02*
X104903684Y-79932500D01*
X105664000Y-81026000D02*
X105664000Y-80692816D01*
D36*
X119002500Y-100500000D02*
X113000000Y-106502500D01*
X119002500Y-98220000D02*
X119002500Y-100500000D01*
D34*
%TO.N,GND*%
X113000000Y-102500000D02*
X114900000Y-100600000D01*
X112375000Y-102500000D02*
X113000000Y-102500000D01*
%TO.N,Net-(D1-A)*%
X109100000Y-100975000D02*
X110625000Y-102500000D01*
X109100000Y-100295000D02*
X109100000Y-100975000D01*
D36*
%TO.N,Net-(J1-Pin_1)*%
X109300000Y-98900000D02*
X109100000Y-99100000D01*
X109300000Y-96900000D02*
X109300000Y-98900000D01*
X110662500Y-96900000D02*
X110800000Y-97037500D01*
X109300000Y-96900000D02*
X110662500Y-96900000D01*
%TO.N,GND*%
X112300000Y-94800000D02*
X110962500Y-94800000D01*
X110962500Y-94800000D02*
X110800000Y-94962500D01*
X109030000Y-93000000D02*
X109000000Y-93030000D01*
X110770000Y-93000000D02*
X109030000Y-93000000D01*
X115040000Y-100460000D02*
X114900000Y-100600000D01*
X115040000Y-99122500D02*
X115040000Y-100460000D01*
%TO.N,+5V*%
X110700000Y-87181500D02*
X105918000Y-82399500D01*
X110700000Y-90400000D02*
X110700000Y-87181500D01*
X118847500Y-95147500D02*
X118500000Y-94800000D01*
X118847500Y-95850000D02*
X118847500Y-95147500D01*
%TO.N,GND*%
X103400000Y-92600000D02*
X102200000Y-93800000D01*
X109000000Y-93030000D02*
X105435289Y-93030000D01*
X105435289Y-93030000D02*
X105005289Y-92600000D01*
X105005289Y-92600000D02*
X103400000Y-92600000D01*
X113400000Y-93000000D02*
X110770000Y-93000000D01*
X113820000Y-93420000D02*
X113400000Y-93000000D01*
X113820000Y-93490000D02*
X113820000Y-93420000D01*
X110800000Y-93030000D02*
X110770000Y-93000000D01*
X110800000Y-94962500D02*
X110800000Y-93030000D01*
%TO.N,Net-(J1-Pin_1)*%
X112862500Y-97037500D02*
X110800000Y-97037500D01*
X113600000Y-97000000D02*
X112900000Y-97000000D01*
X112900000Y-97000000D02*
X112862500Y-97037500D01*
X113820000Y-96780000D02*
X113600000Y-97000000D01*
X113820000Y-95490000D02*
X113820000Y-96780000D01*
%TO.N,+5V*%
X118847500Y-98065000D02*
X119002500Y-98220000D01*
X118847500Y-95850000D02*
X118847500Y-98065000D01*
%TO.N,Net-(U2-FB)*%
X117277500Y-98220000D02*
X117277500Y-97477500D01*
X117277500Y-97477500D02*
X117097500Y-97297500D01*
X117097500Y-97297500D02*
X115040000Y-97297500D01*
X116020000Y-96317500D02*
X115040000Y-97297500D01*
X116020000Y-95490000D02*
X116020000Y-96317500D01*
X117650000Y-95850000D02*
X117290000Y-95490000D01*
X117652500Y-95850000D02*
X117650000Y-95850000D01*
X117290000Y-95490000D02*
X116020000Y-95490000D01*
%TO.N,Net-(U2-BST)*%
X118590000Y-93490000D02*
X116020000Y-93490000D01*
X118600000Y-93500000D02*
X118590000Y-93490000D01*
X119100000Y-93000000D02*
X118600000Y-93500000D01*
X119100000Y-92457500D02*
X119100000Y-93000000D01*
%TO.N,Net-(U2-SW)*%
X116300000Y-88990000D02*
X116350000Y-88940000D01*
X116136004Y-91800000D02*
X116300000Y-91800000D01*
X114939000Y-92997004D02*
X116136004Y-91800000D01*
X114939000Y-94261000D02*
X114939000Y-92997004D01*
X116300000Y-91800000D02*
X116300000Y-88990000D01*
X114700000Y-94500000D02*
X114939000Y-94261000D01*
X114690000Y-94490000D02*
X114700000Y-94500000D01*
X113820000Y-94490000D02*
X114690000Y-94490000D01*
D35*
%TO.N,GND*%
X104400000Y-81440000D02*
X104400000Y-81148500D01*
D36*
X126100000Y-74565000D02*
X126100000Y-73798000D01*
X115510000Y-111410000D02*
X115510000Y-114029000D01*
D35*
X102200000Y-83640000D02*
X104400000Y-81440000D01*
D36*
X114067500Y-110400000D02*
X114500000Y-110400000D01*
D34*
X102200000Y-106500000D02*
X105589000Y-106500000D01*
D36*
X126100000Y-73798000D02*
X126238000Y-73660000D01*
D34*
X105589000Y-106500000D02*
X106693000Y-105396000D01*
D36*
X114500000Y-110400000D02*
X115510000Y-111410000D01*
D35*
%TO.N,+5V*%
X105664000Y-82145500D02*
X105918000Y-82399500D01*
X104725500Y-79932500D02*
X106426000Y-78232000D01*
X111165500Y-105496000D02*
X111993500Y-105496000D01*
X105664000Y-81026000D02*
X105664000Y-82145500D01*
X104400000Y-79932500D02*
X104725500Y-79932500D01*
X132194000Y-75700000D02*
X126100000Y-75700000D01*
X102200000Y-81100000D02*
X103367500Y-79932500D01*
X111993500Y-105496000D02*
X113000000Y-106502500D01*
X133594000Y-74300000D02*
X132194000Y-75700000D01*
X103367500Y-79932500D02*
X104400000Y-79932500D01*
D36*
%TO.N,Net-(D2-A)*%
X108343000Y-108221000D02*
X108584000Y-108221000D01*
X108584000Y-108221000D02*
X110005000Y-106800000D01*
D34*
%TO.N,Net-(D3-A)*%
X108543000Y-105496000D02*
X108443000Y-105396000D01*
X109970500Y-105496000D02*
X108543000Y-105496000D01*
%TO.N,/SDA*%
X142362000Y-75692000D02*
X143754000Y-74300000D01*
X134366000Y-75692000D02*
X142362000Y-75692000D01*
D35*
%TO.N,+BATT*%
X132112000Y-111538000D02*
X137668000Y-117094000D01*
X132112000Y-110236000D02*
X132112000Y-111538000D01*
%TO.N,VCC*%
X132112000Y-84328000D02*
X139672000Y-84328000D01*
X139672000Y-84328000D02*
X143700000Y-80300000D01*
D36*
%TO.N,Net-(J2-Pin_3)*%
X112932500Y-113951500D02*
X113010000Y-114029000D01*
X111757422Y-106800000D02*
X112654922Y-107697500D01*
X111200000Y-106800000D02*
X111757422Y-106800000D01*
X112654922Y-107697500D02*
X113000000Y-107697500D01*
X113000000Y-110332500D02*
X112932500Y-110400000D01*
X113000000Y-107697500D02*
X113000000Y-110332500D01*
X112932500Y-110400000D02*
X112932500Y-113951500D01*
%TD*%
%TA.AperFunction,Conductor*%
%TO.N,VCC*%
G36*
X131078875Y-81536380D02*
G01*
X137309592Y-82533294D01*
X137372678Y-82563323D01*
X137409516Y-82622693D01*
X137414000Y-82655737D01*
X137414000Y-91102048D01*
X137394315Y-91169087D01*
X137341511Y-91214842D01*
X137336052Y-91217179D01*
X133631514Y-92698994D01*
X133574483Y-92707376D01*
X122283992Y-91703777D01*
X122218959Y-91678234D01*
X122178059Y-91621586D01*
X122171016Y-91583617D01*
X122112216Y-89407995D01*
X130311566Y-89407995D01*
X130311566Y-89408004D01*
X130331673Y-89676331D01*
X130331674Y-89676336D01*
X130391550Y-89938673D01*
X130391556Y-89938692D01*
X130489865Y-90189179D01*
X130489864Y-90189179D01*
X130624414Y-90422224D01*
X130677567Y-90488877D01*
X130677568Y-90488877D01*
X131311140Y-89855304D01*
X131401739Y-89990896D01*
X131529104Y-90118261D01*
X131664693Y-90208858D01*
X131030159Y-90843392D01*
X131211789Y-90967225D01*
X131211790Y-90967226D01*
X131454222Y-91083974D01*
X131454241Y-91083981D01*
X131711353Y-91163289D01*
X131711363Y-91163291D01*
X131977447Y-91203399D01*
X131977453Y-91203400D01*
X132246547Y-91203400D01*
X132246552Y-91203399D01*
X132512636Y-91163291D01*
X132512646Y-91163289D01*
X132769758Y-91083981D01*
X132769777Y-91083974D01*
X133012209Y-90967226D01*
X133012219Y-90967219D01*
X133193839Y-90843392D01*
X132559306Y-90208858D01*
X132694896Y-90118261D01*
X132822261Y-89990896D01*
X132912858Y-89855305D01*
X133546430Y-90488877D01*
X133546431Y-90488876D01*
X133599581Y-90422230D01*
X133599588Y-90422219D01*
X133734134Y-90189179D01*
X133832443Y-89938692D01*
X133832449Y-89938673D01*
X133892325Y-89676336D01*
X133892326Y-89676331D01*
X133912434Y-89408004D01*
X133912434Y-89407995D01*
X133892326Y-89139668D01*
X133892325Y-89139663D01*
X133832449Y-88877326D01*
X133832443Y-88877307D01*
X133734134Y-88626820D01*
X133734135Y-88626820D01*
X133599585Y-88393775D01*
X133546431Y-88327121D01*
X132912858Y-88960693D01*
X132822261Y-88825104D01*
X132694896Y-88697739D01*
X132559305Y-88607140D01*
X133193839Y-87972606D01*
X133012210Y-87848774D01*
X133012209Y-87848773D01*
X132769777Y-87732025D01*
X132769758Y-87732018D01*
X132512646Y-87652710D01*
X132512636Y-87652708D01*
X132246552Y-87612600D01*
X131977447Y-87612600D01*
X131711363Y-87652708D01*
X131711353Y-87652710D01*
X131454241Y-87732018D01*
X131454222Y-87732025D01*
X131211790Y-87848773D01*
X131211782Y-87848778D01*
X131030159Y-87972606D01*
X131664694Y-88607140D01*
X131529104Y-88697739D01*
X131401739Y-88825104D01*
X131311140Y-88960694D01*
X130677568Y-88327122D01*
X130624412Y-88393778D01*
X130489865Y-88626820D01*
X130391556Y-88877307D01*
X130391550Y-88877326D01*
X130331674Y-89139663D01*
X130331673Y-89139668D01*
X130311566Y-89407995D01*
X122112216Y-89407995D01*
X122043567Y-86867995D01*
X122691566Y-86867995D01*
X122691566Y-86868004D01*
X122711673Y-87136331D01*
X122711674Y-87136336D01*
X122771550Y-87398673D01*
X122771556Y-87398692D01*
X122869865Y-87649179D01*
X122869864Y-87649179D01*
X123004414Y-87882224D01*
X123057567Y-87948877D01*
X123057568Y-87948877D01*
X123691140Y-87315304D01*
X123781739Y-87450896D01*
X123909104Y-87578261D01*
X124044693Y-87668858D01*
X123410159Y-88303392D01*
X123591789Y-88427225D01*
X123591790Y-88427226D01*
X123834222Y-88543974D01*
X123834241Y-88543981D01*
X124091353Y-88623289D01*
X124091363Y-88623291D01*
X124357447Y-88663399D01*
X124357453Y-88663400D01*
X124626547Y-88663400D01*
X124626552Y-88663399D01*
X124892636Y-88623291D01*
X124892646Y-88623289D01*
X125149758Y-88543981D01*
X125149777Y-88543974D01*
X125392209Y-88427226D01*
X125392219Y-88427219D01*
X125573839Y-88303392D01*
X124939306Y-87668858D01*
X125074896Y-87578261D01*
X125202261Y-87450896D01*
X125292858Y-87315305D01*
X125926430Y-87948877D01*
X125926431Y-87948876D01*
X125979581Y-87882230D01*
X125979588Y-87882219D01*
X126114134Y-87649179D01*
X126212443Y-87398692D01*
X126212449Y-87398673D01*
X126272325Y-87136336D01*
X126272326Y-87136331D01*
X126292434Y-86868004D01*
X126292434Y-86867995D01*
X126272326Y-86599668D01*
X126272325Y-86599663D01*
X126212449Y-86337326D01*
X126212443Y-86337307D01*
X126114134Y-86086820D01*
X126114135Y-86086820D01*
X125979585Y-85853775D01*
X125926431Y-85787121D01*
X125292858Y-86420693D01*
X125202261Y-86285104D01*
X125074896Y-86157739D01*
X124939305Y-86067140D01*
X125573839Y-85432606D01*
X125392210Y-85308774D01*
X125392209Y-85308773D01*
X125149777Y-85192025D01*
X125149758Y-85192018D01*
X124892646Y-85112710D01*
X124892636Y-85112708D01*
X124626552Y-85072600D01*
X124357447Y-85072600D01*
X124091363Y-85112708D01*
X124091353Y-85112710D01*
X123834241Y-85192018D01*
X123834222Y-85192025D01*
X123591790Y-85308773D01*
X123591782Y-85308778D01*
X123410159Y-85432606D01*
X124044694Y-86067140D01*
X123909104Y-86157739D01*
X123781739Y-86285104D01*
X123691140Y-86420694D01*
X123057568Y-85787122D01*
X123004412Y-85853778D01*
X122869865Y-86086820D01*
X122771556Y-86337307D01*
X122771550Y-86337326D01*
X122711674Y-86599663D01*
X122711673Y-86599668D01*
X122691566Y-86867995D01*
X122043567Y-86867995D01*
X121974919Y-84327995D01*
X130311566Y-84327995D01*
X130311566Y-84328004D01*
X130331673Y-84596331D01*
X130331674Y-84596336D01*
X130391550Y-84858673D01*
X130391556Y-84858692D01*
X130489865Y-85109179D01*
X130489864Y-85109179D01*
X130624414Y-85342224D01*
X130677567Y-85408877D01*
X130677568Y-85408877D01*
X131311140Y-84775304D01*
X131401739Y-84910896D01*
X131529104Y-85038261D01*
X131664693Y-85128858D01*
X131030159Y-85763392D01*
X131211789Y-85887225D01*
X131211790Y-85887226D01*
X131454222Y-86003974D01*
X131454241Y-86003981D01*
X131711353Y-86083289D01*
X131711363Y-86083291D01*
X131977447Y-86123399D01*
X131977453Y-86123400D01*
X132246547Y-86123400D01*
X132246552Y-86123399D01*
X132512636Y-86083291D01*
X132512646Y-86083289D01*
X132769758Y-86003981D01*
X132769777Y-86003974D01*
X133012209Y-85887226D01*
X133012219Y-85887219D01*
X133193839Y-85763392D01*
X132559306Y-85128858D01*
X132694896Y-85038261D01*
X132822261Y-84910896D01*
X132912858Y-84775305D01*
X133546430Y-85408877D01*
X133546431Y-85408876D01*
X133599581Y-85342230D01*
X133599588Y-85342219D01*
X133734134Y-85109179D01*
X133832443Y-84858692D01*
X133832449Y-84858673D01*
X133892325Y-84596336D01*
X133892326Y-84596331D01*
X133912434Y-84328004D01*
X133912434Y-84327995D01*
X133892326Y-84059668D01*
X133892325Y-84059663D01*
X133832449Y-83797326D01*
X133832443Y-83797307D01*
X133734134Y-83546820D01*
X133734135Y-83546820D01*
X133599585Y-83313775D01*
X133546431Y-83247121D01*
X132912858Y-83880693D01*
X132822261Y-83745104D01*
X132694896Y-83617739D01*
X132559305Y-83527140D01*
X133193839Y-82892606D01*
X133012210Y-82768774D01*
X133012209Y-82768773D01*
X132769777Y-82652025D01*
X132769758Y-82652018D01*
X132512646Y-82572710D01*
X132512636Y-82572708D01*
X132246552Y-82532600D01*
X131977447Y-82532600D01*
X131711363Y-82572708D01*
X131711353Y-82572710D01*
X131454241Y-82652018D01*
X131454222Y-82652025D01*
X131211790Y-82768773D01*
X131211782Y-82768778D01*
X131030159Y-82892606D01*
X131664694Y-83527140D01*
X131529104Y-83617739D01*
X131401739Y-83745104D01*
X131311140Y-83880694D01*
X130677568Y-83247122D01*
X130624412Y-83313778D01*
X130489865Y-83546820D01*
X130391556Y-83797307D01*
X130391550Y-83797326D01*
X130331674Y-84059663D01*
X130331673Y-84059668D01*
X130311566Y-84327995D01*
X121974919Y-84327995D01*
X121923167Y-82413185D01*
X121941033Y-82345639D01*
X121992582Y-82298474D01*
X122036820Y-82286264D01*
X131048987Y-81535251D01*
X131078875Y-81536380D01*
G37*
%TD.AperFunction*%
%TD*%
%TA.AperFunction,Conductor*%
%TO.N,+BATT*%
G36*
X192891093Y-82603685D02*
G01*
X192936848Y-82656489D01*
X192948037Y-82705928D01*
X193098506Y-91710636D01*
X193079944Y-91777995D01*
X193027912Y-91824626D01*
X193015694Y-91829674D01*
X140399999Y-110350000D01*
X135671549Y-114018419D01*
X135606515Y-114043959D01*
X135591034Y-114044364D01*
X121781282Y-113542192D01*
X121715002Y-113520084D01*
X121671196Y-113465653D01*
X121661868Y-113422715D01*
X121612005Y-112031399D01*
X121547660Y-110235995D01*
X130311566Y-110235995D01*
X130311566Y-110236004D01*
X130331673Y-110504331D01*
X130331674Y-110504336D01*
X130391550Y-110766673D01*
X130391556Y-110766692D01*
X130489865Y-111017179D01*
X130489864Y-111017179D01*
X130624414Y-111250224D01*
X130677567Y-111316877D01*
X130677568Y-111316877D01*
X131311140Y-110683304D01*
X131401739Y-110818896D01*
X131529104Y-110946261D01*
X131664693Y-111036858D01*
X131030159Y-111671392D01*
X131211789Y-111795225D01*
X131211790Y-111795226D01*
X131454222Y-111911974D01*
X131454241Y-111911981D01*
X131711353Y-111991289D01*
X131711363Y-111991291D01*
X131977447Y-112031399D01*
X131977453Y-112031400D01*
X132246547Y-112031400D01*
X132246552Y-112031399D01*
X132512636Y-111991291D01*
X132512646Y-111991289D01*
X132769758Y-111911981D01*
X132769777Y-111911974D01*
X133012209Y-111795226D01*
X133012219Y-111795219D01*
X133193839Y-111671392D01*
X132559306Y-111036858D01*
X132694896Y-110946261D01*
X132822261Y-110818896D01*
X132912858Y-110683305D01*
X133546430Y-111316877D01*
X133546431Y-111316876D01*
X133599581Y-111250230D01*
X133599588Y-111250219D01*
X133734134Y-111017179D01*
X133832443Y-110766692D01*
X133832449Y-110766673D01*
X133892325Y-110504336D01*
X133892326Y-110504331D01*
X133912434Y-110236004D01*
X133912434Y-110235995D01*
X133892326Y-109967668D01*
X133892325Y-109967663D01*
X133832449Y-109705326D01*
X133832443Y-109705307D01*
X133734134Y-109454820D01*
X133734135Y-109454820D01*
X133599585Y-109221775D01*
X133546431Y-109155121D01*
X132912858Y-109788693D01*
X132822261Y-109653104D01*
X132694896Y-109525739D01*
X132559305Y-109435140D01*
X133193839Y-108800606D01*
X133012210Y-108676774D01*
X133012209Y-108676773D01*
X132769777Y-108560025D01*
X132769758Y-108560018D01*
X132512646Y-108480710D01*
X132512636Y-108480708D01*
X132246552Y-108440600D01*
X131977447Y-108440600D01*
X131711363Y-108480708D01*
X131711353Y-108480710D01*
X131454241Y-108560018D01*
X131454222Y-108560025D01*
X131211790Y-108676773D01*
X131211782Y-108676778D01*
X131030159Y-108800606D01*
X131664694Y-109435140D01*
X131529104Y-109525739D01*
X131401739Y-109653104D01*
X131311140Y-109788694D01*
X130677568Y-109155122D01*
X130624412Y-109221778D01*
X130489865Y-109454820D01*
X130391556Y-109705307D01*
X130391550Y-109705326D01*
X130331674Y-109967663D01*
X130331673Y-109967668D01*
X130311566Y-110235995D01*
X121547660Y-110235995D01*
X121456629Y-107695995D01*
X122691566Y-107695995D01*
X122691566Y-107696004D01*
X122711673Y-107964331D01*
X122711674Y-107964336D01*
X122771550Y-108226673D01*
X122771556Y-108226692D01*
X122869865Y-108477179D01*
X122869864Y-108477179D01*
X123004414Y-108710224D01*
X123057567Y-108776877D01*
X123057568Y-108776877D01*
X123691140Y-108143304D01*
X123781739Y-108278896D01*
X123909104Y-108406261D01*
X124044693Y-108496858D01*
X123410159Y-109131392D01*
X123591789Y-109255225D01*
X123591790Y-109255226D01*
X123834222Y-109371974D01*
X123834241Y-109371981D01*
X124091353Y-109451289D01*
X124091363Y-109451291D01*
X124357447Y-109491399D01*
X124357453Y-109491400D01*
X124626547Y-109491400D01*
X124626552Y-109491399D01*
X124892636Y-109451291D01*
X124892646Y-109451289D01*
X125149758Y-109371981D01*
X125149777Y-109371974D01*
X125392209Y-109255226D01*
X125392219Y-109255219D01*
X125573839Y-109131392D01*
X124939306Y-108496858D01*
X125074896Y-108406261D01*
X125202261Y-108278896D01*
X125292858Y-108143305D01*
X125926430Y-108776877D01*
X125926431Y-108776876D01*
X125979581Y-108710230D01*
X125979588Y-108710219D01*
X126114134Y-108477179D01*
X126212443Y-108226692D01*
X126212449Y-108226673D01*
X126272325Y-107964336D01*
X126272326Y-107964331D01*
X126292434Y-107696004D01*
X126292434Y-107695995D01*
X126272326Y-107427668D01*
X126272325Y-107427663D01*
X126212449Y-107165326D01*
X126212443Y-107165307D01*
X126114134Y-106914820D01*
X126114135Y-106914820D01*
X125979585Y-106681775D01*
X125926431Y-106615121D01*
X125292858Y-107248693D01*
X125202261Y-107113104D01*
X125074896Y-106985739D01*
X124939305Y-106895140D01*
X125573839Y-106260606D01*
X125392210Y-106136774D01*
X125392209Y-106136773D01*
X125149777Y-106020025D01*
X125149758Y-106020018D01*
X124892646Y-105940710D01*
X124892636Y-105940708D01*
X124626552Y-105900600D01*
X124357447Y-105900600D01*
X124091363Y-105940708D01*
X124091353Y-105940710D01*
X123834241Y-106020018D01*
X123834222Y-106020025D01*
X123591790Y-106136773D01*
X123591782Y-106136778D01*
X123410159Y-106260606D01*
X124044694Y-106895140D01*
X123909104Y-106985739D01*
X123781739Y-107113104D01*
X123691140Y-107248694D01*
X123057568Y-106615122D01*
X123004412Y-106681778D01*
X122869865Y-106914820D01*
X122771556Y-107165307D01*
X122771550Y-107165326D01*
X122711674Y-107427663D01*
X122711673Y-107427668D01*
X122691566Y-107695995D01*
X121456629Y-107695995D01*
X121365598Y-105155995D01*
X130311566Y-105155995D01*
X130311566Y-105156004D01*
X130331673Y-105424331D01*
X130331674Y-105424336D01*
X130391550Y-105686673D01*
X130391556Y-105686692D01*
X130489865Y-105937179D01*
X130489864Y-105937179D01*
X130624414Y-106170224D01*
X130677567Y-106236877D01*
X130677568Y-106236877D01*
X131311140Y-105603304D01*
X131401739Y-105738896D01*
X131529104Y-105866261D01*
X131664693Y-105956858D01*
X131030159Y-106591392D01*
X131211789Y-106715225D01*
X131211790Y-106715226D01*
X131454222Y-106831974D01*
X131454241Y-106831981D01*
X131711353Y-106911289D01*
X131711363Y-106911291D01*
X131977447Y-106951399D01*
X131977453Y-106951400D01*
X132246547Y-106951400D01*
X132246552Y-106951399D01*
X132512636Y-106911291D01*
X132512646Y-106911289D01*
X132769758Y-106831981D01*
X132769777Y-106831974D01*
X133012209Y-106715226D01*
X133012219Y-106715219D01*
X133193839Y-106591392D01*
X132559306Y-105956858D01*
X132694896Y-105866261D01*
X132822261Y-105738896D01*
X132912858Y-105603305D01*
X133546430Y-106236877D01*
X133546431Y-106236876D01*
X133599581Y-106170230D01*
X133599588Y-106170219D01*
X133734134Y-105937179D01*
X133832443Y-105686692D01*
X133832449Y-105686673D01*
X133892325Y-105424336D01*
X133892326Y-105424331D01*
X133912434Y-105156004D01*
X133912434Y-105155995D01*
X133892326Y-104887668D01*
X133892325Y-104887663D01*
X133832449Y-104625326D01*
X133832443Y-104625307D01*
X133734134Y-104374820D01*
X133734135Y-104374820D01*
X133599585Y-104141775D01*
X133546431Y-104075121D01*
X132912858Y-104708693D01*
X132822261Y-104573104D01*
X132694896Y-104445739D01*
X132559305Y-104355140D01*
X133193839Y-103720606D01*
X133012210Y-103596774D01*
X133012209Y-103596773D01*
X132769777Y-103480025D01*
X132769758Y-103480018D01*
X132512646Y-103400710D01*
X132512636Y-103400708D01*
X132246552Y-103360600D01*
X131977447Y-103360600D01*
X131711363Y-103400708D01*
X131711353Y-103400710D01*
X131454241Y-103480018D01*
X131454222Y-103480025D01*
X131211790Y-103596773D01*
X131211782Y-103596778D01*
X131030159Y-103720606D01*
X131664694Y-104355140D01*
X131529104Y-104445739D01*
X131401739Y-104573104D01*
X131311140Y-104708694D01*
X130677568Y-104075122D01*
X130624412Y-104141778D01*
X130489865Y-104374820D01*
X130391556Y-104625307D01*
X130391550Y-104625326D01*
X130331674Y-104887663D01*
X130331673Y-104887668D01*
X130311566Y-105155995D01*
X121365598Y-105155995D01*
X121300198Y-103331149D01*
X121317468Y-103263451D01*
X121368600Y-103215834D01*
X121412730Y-103203235D01*
X138646000Y-101614000D01*
X138646003Y-101613999D01*
X164204829Y-89907995D01*
X180571566Y-89907995D01*
X180571566Y-89908004D01*
X180591673Y-90176331D01*
X180591674Y-90176336D01*
X180651550Y-90438673D01*
X180651556Y-90438692D01*
X180749865Y-90689179D01*
X180749864Y-90689179D01*
X180884414Y-90922224D01*
X180937567Y-90988877D01*
X180937568Y-90988877D01*
X181571140Y-90355304D01*
X181661739Y-90490896D01*
X181789104Y-90618261D01*
X181924693Y-90708858D01*
X181290159Y-91343392D01*
X181471789Y-91467225D01*
X181471790Y-91467226D01*
X181714222Y-91583974D01*
X181714241Y-91583981D01*
X181971353Y-91663289D01*
X181971363Y-91663291D01*
X182237447Y-91703399D01*
X182237453Y-91703400D01*
X182506547Y-91703400D01*
X182506552Y-91703399D01*
X182772636Y-91663291D01*
X182772646Y-91663289D01*
X183029758Y-91583981D01*
X183029777Y-91583974D01*
X183272209Y-91467226D01*
X183272219Y-91467219D01*
X183453839Y-91343392D01*
X182819306Y-90708858D01*
X182954896Y-90618261D01*
X183082261Y-90490896D01*
X183172858Y-90355305D01*
X183806430Y-90988877D01*
X183806431Y-90988876D01*
X183859581Y-90922230D01*
X183859588Y-90922219D01*
X183994134Y-90689179D01*
X184092443Y-90438692D01*
X184092449Y-90438673D01*
X184152325Y-90176336D01*
X184152326Y-90176331D01*
X184172434Y-89908004D01*
X184172434Y-89907995D01*
X184152326Y-89639668D01*
X184152325Y-89639663D01*
X184092449Y-89377326D01*
X184092443Y-89377307D01*
X183994134Y-89126820D01*
X183994135Y-89126820D01*
X183859585Y-88893775D01*
X183806431Y-88827121D01*
X183172858Y-89460693D01*
X183082261Y-89325104D01*
X182954896Y-89197739D01*
X182819305Y-89107140D01*
X183453839Y-88472606D01*
X183272210Y-88348774D01*
X183272209Y-88348773D01*
X183029777Y-88232025D01*
X183029758Y-88232018D01*
X182772646Y-88152710D01*
X182772636Y-88152708D01*
X182506552Y-88112600D01*
X182237447Y-88112600D01*
X181971363Y-88152708D01*
X181971353Y-88152710D01*
X181714241Y-88232018D01*
X181714222Y-88232025D01*
X181471790Y-88348773D01*
X181471782Y-88348778D01*
X181290159Y-88472606D01*
X181924694Y-89107140D01*
X181789104Y-89197739D01*
X181661739Y-89325104D01*
X181571140Y-89460694D01*
X180937568Y-88827122D01*
X180884412Y-88893778D01*
X180749865Y-89126820D01*
X180651556Y-89377307D01*
X180651550Y-89377326D01*
X180591674Y-89639663D01*
X180591673Y-89639668D01*
X180571566Y-89907995D01*
X164204829Y-89907995D01*
X169750652Y-87367995D01*
X188191566Y-87367995D01*
X188191566Y-87368004D01*
X188211673Y-87636331D01*
X188211674Y-87636336D01*
X188271550Y-87898673D01*
X188271556Y-87898692D01*
X188369865Y-88149179D01*
X188369864Y-88149179D01*
X188504414Y-88382224D01*
X188557567Y-88448877D01*
X188557568Y-88448877D01*
X189191140Y-87815304D01*
X189281739Y-87950896D01*
X189409104Y-88078261D01*
X189544693Y-88168858D01*
X188910159Y-88803392D01*
X189091789Y-88927225D01*
X189091790Y-88927226D01*
X189334222Y-89043974D01*
X189334241Y-89043981D01*
X189591353Y-89123289D01*
X189591363Y-89123291D01*
X189857447Y-89163399D01*
X189857453Y-89163400D01*
X190126547Y-89163400D01*
X190126552Y-89163399D01*
X190392636Y-89123291D01*
X190392646Y-89123289D01*
X190649758Y-89043981D01*
X190649777Y-89043974D01*
X190892209Y-88927226D01*
X190892219Y-88927219D01*
X191073839Y-88803392D01*
X190439306Y-88168858D01*
X190574896Y-88078261D01*
X190702261Y-87950896D01*
X190792858Y-87815305D01*
X191426430Y-88448877D01*
X191426431Y-88448876D01*
X191479581Y-88382230D01*
X191479588Y-88382219D01*
X191614134Y-88149179D01*
X191712443Y-87898692D01*
X191712449Y-87898673D01*
X191772325Y-87636336D01*
X191772326Y-87636331D01*
X191792434Y-87368004D01*
X191792434Y-87367995D01*
X191772326Y-87099668D01*
X191772325Y-87099663D01*
X191712449Y-86837326D01*
X191712443Y-86837307D01*
X191614134Y-86586820D01*
X191614135Y-86586820D01*
X191479585Y-86353775D01*
X191426431Y-86287121D01*
X190792858Y-86920693D01*
X190702261Y-86785104D01*
X190574896Y-86657739D01*
X190439305Y-86567140D01*
X191073839Y-85932606D01*
X190892210Y-85808774D01*
X190892209Y-85808773D01*
X190649777Y-85692025D01*
X190649758Y-85692018D01*
X190392646Y-85612710D01*
X190392636Y-85612708D01*
X190126552Y-85572600D01*
X189857447Y-85572600D01*
X189591363Y-85612708D01*
X189591353Y-85612710D01*
X189334241Y-85692018D01*
X189334222Y-85692025D01*
X189091790Y-85808773D01*
X189091782Y-85808778D01*
X188910159Y-85932606D01*
X189544694Y-86567140D01*
X189409104Y-86657739D01*
X189281739Y-86785104D01*
X189191140Y-86920694D01*
X188557568Y-86287122D01*
X188504412Y-86353778D01*
X188369865Y-86586820D01*
X188271556Y-86837307D01*
X188271550Y-86837326D01*
X188211674Y-87099663D01*
X188211673Y-87099668D01*
X188191566Y-87367995D01*
X169750652Y-87367995D01*
X175296474Y-84827995D01*
X180571566Y-84827995D01*
X180571566Y-84828004D01*
X180591673Y-85096331D01*
X180591674Y-85096336D01*
X180651550Y-85358673D01*
X180651556Y-85358692D01*
X180749865Y-85609179D01*
X180749864Y-85609179D01*
X180884414Y-85842224D01*
X180937567Y-85908877D01*
X180937568Y-85908877D01*
X181571140Y-85275304D01*
X181661739Y-85410896D01*
X181789104Y-85538261D01*
X181924693Y-85628858D01*
X181290159Y-86263392D01*
X181471789Y-86387225D01*
X181471790Y-86387226D01*
X181714222Y-86503974D01*
X181714241Y-86503981D01*
X181971353Y-86583289D01*
X181971363Y-86583291D01*
X182237447Y-86623399D01*
X182237453Y-86623400D01*
X182506547Y-86623400D01*
X182506552Y-86623399D01*
X182772636Y-86583291D01*
X182772646Y-86583289D01*
X183029758Y-86503981D01*
X183029777Y-86503974D01*
X183272209Y-86387226D01*
X183272219Y-86387219D01*
X183453839Y-86263392D01*
X182819306Y-85628858D01*
X182954896Y-85538261D01*
X183082261Y-85410896D01*
X183172858Y-85275305D01*
X183806430Y-85908877D01*
X183806431Y-85908876D01*
X183859581Y-85842230D01*
X183859588Y-85842219D01*
X183994134Y-85609179D01*
X184092443Y-85358692D01*
X184092449Y-85358673D01*
X184152325Y-85096336D01*
X184152326Y-85096331D01*
X184172434Y-84828004D01*
X184172434Y-84827995D01*
X184152326Y-84559668D01*
X184152325Y-84559663D01*
X184092449Y-84297326D01*
X184092443Y-84297307D01*
X183994134Y-84046820D01*
X183994135Y-84046820D01*
X183859585Y-83813775D01*
X183806431Y-83747121D01*
X183172858Y-84380693D01*
X183082261Y-84245104D01*
X182954896Y-84117739D01*
X182819305Y-84027140D01*
X183453839Y-83392606D01*
X183272210Y-83268774D01*
X183272209Y-83268773D01*
X183029777Y-83152025D01*
X183029758Y-83152018D01*
X182772646Y-83072710D01*
X182772636Y-83072708D01*
X182506552Y-83032600D01*
X182237447Y-83032600D01*
X181971363Y-83072708D01*
X181971353Y-83072710D01*
X181714241Y-83152018D01*
X181714222Y-83152025D01*
X181471790Y-83268773D01*
X181471782Y-83268778D01*
X181290159Y-83392606D01*
X181924694Y-84027140D01*
X181789104Y-84117739D01*
X181661739Y-84245104D01*
X181571140Y-84380694D01*
X180937568Y-83747122D01*
X180884412Y-83813778D01*
X180749865Y-84046820D01*
X180651556Y-84297307D01*
X180651550Y-84297326D01*
X180591674Y-84559663D01*
X180591673Y-84559668D01*
X180571566Y-84827995D01*
X175296474Y-84827995D01*
X180171411Y-82595262D01*
X180223045Y-82584000D01*
X192824054Y-82584000D01*
X192891093Y-82603685D01*
G37*
%TD.AperFunction*%
%TD*%
%TA.AperFunction,Conductor*%
%TO.N,+5V*%
G36*
X114015677Y-86019685D02*
G01*
X114036319Y-86036319D01*
X114463681Y-86463681D01*
X114497166Y-86525004D01*
X114500000Y-86551362D01*
X114500000Y-87727881D01*
X114480315Y-87794920D01*
X114463681Y-87815562D01*
X114237440Y-88041803D01*
X114220903Y-88060061D01*
X114161307Y-88096532D01*
X114091455Y-88094994D01*
X114033522Y-88055935D01*
X114005903Y-87991756D01*
X114005000Y-87976815D01*
X114005000Y-86842172D01*
X114004999Y-86842155D01*
X113998598Y-86782627D01*
X113998596Y-86782620D01*
X113948354Y-86647913D01*
X113948350Y-86647906D01*
X113862190Y-86532812D01*
X113862187Y-86532809D01*
X113747093Y-86446649D01*
X113747086Y-86446645D01*
X113612379Y-86396403D01*
X113612372Y-86396401D01*
X113552844Y-86390000D01*
X113072500Y-86390000D01*
X113072500Y-91460000D01*
X113552828Y-91460000D01*
X113552844Y-91459999D01*
X113612372Y-91453598D01*
X113612379Y-91453596D01*
X113747086Y-91403354D01*
X113747089Y-91403352D01*
X113805113Y-91359915D01*
X113870576Y-91335497D01*
X113938850Y-91350348D01*
X113988256Y-91399752D01*
X114003408Y-91461247D01*
X114000381Y-91642918D01*
X114000381Y-91642919D01*
X113995446Y-91938996D01*
X113997841Y-91997302D01*
X114000655Y-92025700D01*
X114003860Y-92046011D01*
X114008222Y-92073657D01*
X114009747Y-92083317D01*
X114010758Y-92087168D01*
X114010695Y-92089328D01*
X114010715Y-92089451D01*
X114010691Y-92089454D01*
X114008741Y-92157008D01*
X113969284Y-92214671D01*
X113904917Y-92241848D01*
X113836075Y-92229912D01*
X113821937Y-92221758D01*
X113817547Y-92218825D01*
X113817545Y-92218824D01*
X113817542Y-92218822D01*
X113657128Y-92152377D01*
X113657118Y-92152374D01*
X113486823Y-92118500D01*
X113486821Y-92118500D01*
X113486820Y-92118500D01*
X111634862Y-92118500D01*
X111622942Y-92115000D01*
X109932716Y-92115000D01*
X109931496Y-92115666D01*
X109905138Y-92118500D01*
X109124000Y-92118500D01*
X109056961Y-92098815D01*
X109011206Y-92046011D01*
X109000000Y-91994500D01*
X109000000Y-91895000D01*
X108874000Y-91895000D01*
X108806961Y-91875315D01*
X108761206Y-91822511D01*
X108750000Y-91771000D01*
X108750000Y-91029769D01*
X109250000Y-91029769D01*
X109250000Y-91645000D01*
X109810000Y-91645000D01*
X109812319Y-91642681D01*
X109873642Y-91609196D01*
X109943334Y-91614180D01*
X109944610Y-91615000D01*
X110520000Y-91615000D01*
X111020000Y-91615000D01*
X111580000Y-91615000D01*
X111580000Y-91586357D01*
X111579999Y-91586342D01*
X111577078Y-91549222D01*
X111577077Y-91549216D01*
X111530908Y-91390305D01*
X111529439Y-91386909D01*
X111529081Y-91384016D01*
X111528731Y-91382809D01*
X111528925Y-91382752D01*
X111521252Y-91320601D01*
X111466129Y-91279335D01*
X111458663Y-91268145D01*
X111446662Y-91247852D01*
X111446660Y-91247849D01*
X111329650Y-91130839D01*
X111329642Y-91130833D01*
X111187197Y-91046592D01*
X111187194Y-91046590D01*
X111053830Y-91007844D01*
X111640000Y-91007844D01*
X111646401Y-91067372D01*
X111646403Y-91067383D01*
X111681579Y-91161694D01*
X111685966Y-91223044D01*
X111738554Y-91258343D01*
X111742505Y-91263348D01*
X111782809Y-91317187D01*
X111782812Y-91317190D01*
X111897906Y-91403350D01*
X111897913Y-91403354D01*
X112032620Y-91453596D01*
X112032627Y-91453598D01*
X112092155Y-91459999D01*
X112092172Y-91460000D01*
X112572500Y-91460000D01*
X112572500Y-89175000D01*
X111640000Y-89175000D01*
X111640000Y-91007844D01*
X111053830Y-91007844D01*
X111028280Y-91000421D01*
X111028281Y-91000421D01*
X111020000Y-90999769D01*
X111020000Y-91615000D01*
X110520000Y-91615000D01*
X110520000Y-90999769D01*
X110511718Y-91000421D01*
X110352805Y-91046590D01*
X110352802Y-91046592D01*
X110210357Y-91130833D01*
X110210349Y-91130839D01*
X110093339Y-91247849D01*
X110093333Y-91247857D01*
X110009092Y-91390302D01*
X110009091Y-91390303D01*
X109999718Y-91422568D01*
X109962112Y-91481453D01*
X109898639Y-91510659D01*
X109829452Y-91500913D01*
X109776518Y-91455309D01*
X109761566Y-91422567D01*
X109760909Y-91420305D01*
X109760907Y-91420302D01*
X109676666Y-91277857D01*
X109676660Y-91277849D01*
X109559650Y-91160839D01*
X109559642Y-91160833D01*
X109417197Y-91076592D01*
X109417194Y-91076590D01*
X109258280Y-91030421D01*
X109258281Y-91030421D01*
X109250000Y-91029769D01*
X108750000Y-91029769D01*
X108741718Y-91030421D01*
X108582805Y-91076590D01*
X108582802Y-91076592D01*
X108440357Y-91160833D01*
X108440349Y-91160839D01*
X108323339Y-91277849D01*
X108323333Y-91277857D01*
X108239092Y-91420301D01*
X108237799Y-91423291D01*
X108236160Y-91425259D01*
X108235122Y-91427016D01*
X108234838Y-91426848D01*
X108193105Y-91476997D01*
X108126471Y-91498013D01*
X108059053Y-91479669D01*
X108012255Y-91427787D01*
X108000000Y-91374038D01*
X108000000Y-86842155D01*
X111640000Y-86842155D01*
X111640000Y-88675000D01*
X112572500Y-88675000D01*
X112572500Y-86390000D01*
X112092155Y-86390000D01*
X112032627Y-86396401D01*
X112032620Y-86396403D01*
X111897913Y-86446645D01*
X111897906Y-86446649D01*
X111782812Y-86532809D01*
X111782809Y-86532812D01*
X111696649Y-86647906D01*
X111696645Y-86647913D01*
X111646403Y-86782620D01*
X111646401Y-86782627D01*
X111640000Y-86842155D01*
X108000000Y-86842155D01*
X108000000Y-86551362D01*
X108019685Y-86484323D01*
X108036319Y-86463681D01*
X108463681Y-86036319D01*
X108525004Y-86002834D01*
X108551362Y-86000000D01*
X113948638Y-86000000D01*
X114015677Y-86019685D01*
G37*
%TD.AperFunction*%
%TD*%
%TA.AperFunction,Conductor*%
%TO.N,Net-(U2-SW)*%
G36*
X120243039Y-85819685D02*
G01*
X120288794Y-85872489D01*
X120300000Y-85924000D01*
X120300000Y-89409977D01*
X120280315Y-89477016D01*
X120227511Y-89522771D01*
X120158353Y-89532715D01*
X120094797Y-89503690D01*
X120088319Y-89497658D01*
X120043345Y-89452684D01*
X119894124Y-89360643D01*
X119894119Y-89360641D01*
X119727697Y-89305494D01*
X119727690Y-89305493D01*
X119624986Y-89295000D01*
X119350000Y-89295000D01*
X119350000Y-90258500D01*
X119330315Y-90325539D01*
X119277511Y-90371294D01*
X119226000Y-90382500D01*
X119100000Y-90382500D01*
X119100000Y-90508500D01*
X119080315Y-90575539D01*
X119027511Y-90621294D01*
X118976000Y-90632500D01*
X117875001Y-90632500D01*
X117875001Y-90769986D01*
X117885494Y-90872697D01*
X117940641Y-91039119D01*
X117940643Y-91039124D01*
X118032684Y-91188345D01*
X118156655Y-91312316D01*
X118156659Y-91312319D01*
X118159656Y-91314168D01*
X118161279Y-91315972D01*
X118162323Y-91316798D01*
X118162181Y-91316976D01*
X118206381Y-91366116D01*
X118217602Y-91435079D01*
X118189759Y-91499161D01*
X118159661Y-91525241D01*
X118156349Y-91527283D01*
X118156343Y-91527288D01*
X118032289Y-91651342D01*
X117940187Y-91800663D01*
X117940186Y-91800666D01*
X117885001Y-91967203D01*
X117885001Y-91967204D01*
X117885000Y-91967204D01*
X117878283Y-92032953D01*
X117851886Y-92097645D01*
X117848245Y-92102003D01*
X117537053Y-92457654D01*
X117478093Y-92495144D01*
X117443733Y-92500000D01*
X115051362Y-92500000D01*
X114984323Y-92480315D01*
X114963681Y-92463681D01*
X114537178Y-92037178D01*
X114503693Y-91975855D01*
X114500876Y-91947431D01*
X114505811Y-91651342D01*
X114516286Y-91022844D01*
X115167500Y-91022844D01*
X115173901Y-91082372D01*
X115173903Y-91082379D01*
X115224145Y-91217086D01*
X115224149Y-91217093D01*
X115310309Y-91332187D01*
X115310312Y-91332190D01*
X115425406Y-91418350D01*
X115425413Y-91418354D01*
X115560120Y-91468596D01*
X115560127Y-91468598D01*
X115619655Y-91474999D01*
X115619672Y-91475000D01*
X116100000Y-91475000D01*
X116600000Y-91475000D01*
X117080328Y-91475000D01*
X117080344Y-91474999D01*
X117139872Y-91468598D01*
X117139879Y-91468596D01*
X117274586Y-91418354D01*
X117274593Y-91418350D01*
X117389687Y-91332190D01*
X117389690Y-91332187D01*
X117475850Y-91217093D01*
X117475854Y-91217086D01*
X117526096Y-91082379D01*
X117526098Y-91082372D01*
X117532499Y-91022844D01*
X117532500Y-91022827D01*
X117532500Y-89995013D01*
X117875000Y-89995013D01*
X117875000Y-90132500D01*
X118850000Y-90132500D01*
X118850000Y-89295000D01*
X118575029Y-89295000D01*
X118575012Y-89295001D01*
X118472302Y-89305494D01*
X118305880Y-89360641D01*
X118305875Y-89360643D01*
X118156654Y-89452684D01*
X118032684Y-89576654D01*
X117940643Y-89725875D01*
X117940641Y-89725880D01*
X117885494Y-89892302D01*
X117885493Y-89892309D01*
X117875000Y-89995013D01*
X117532500Y-89995013D01*
X117532500Y-89190000D01*
X116600000Y-89190000D01*
X116600000Y-91475000D01*
X116100000Y-91475000D01*
X116100000Y-89190000D01*
X115167500Y-89190000D01*
X115167500Y-91022844D01*
X114516286Y-91022844D01*
X114558585Y-88484853D01*
X114579384Y-88418154D01*
X114594878Y-88399251D01*
X114955820Y-88038308D01*
X115017142Y-88004825D01*
X115086834Y-88009809D01*
X115142767Y-88051681D01*
X115167184Y-88117145D01*
X115167500Y-88125991D01*
X115167500Y-88690000D01*
X117532500Y-88690000D01*
X117532500Y-86857172D01*
X117532499Y-86857155D01*
X117526098Y-86797627D01*
X117526096Y-86797620D01*
X117475854Y-86662913D01*
X117475850Y-86662906D01*
X117389690Y-86547812D01*
X117389687Y-86547809D01*
X117274593Y-86461649D01*
X117274586Y-86461645D01*
X117139879Y-86411403D01*
X117139872Y-86411401D01*
X117080344Y-86405000D01*
X116888492Y-86405000D01*
X116821453Y-86385315D01*
X116775698Y-86332511D01*
X116765754Y-86263353D01*
X116794779Y-86199797D01*
X116800811Y-86193319D01*
X117157811Y-85836319D01*
X117219134Y-85802834D01*
X117245492Y-85800000D01*
X120176000Y-85800000D01*
X120243039Y-85819685D01*
G37*
%TD.AperFunction*%
%TD*%
M02*
