%TF.GenerationSoftware,KiCad,Pcbnew,8.0.8*%
%TF.CreationDate,2025-03-07T18:47:05-08:00*%
%TF.ProjectId,ROCKETRY Camera PCB,524f434b-4554-4525-9920-43616d657261,Rev2.3*%
%TF.SameCoordinates,Original*%
%TF.FileFunction,Paste,Top*%
%TF.FilePolarity,Positive*%
%FSLAX46Y46*%
G04 Gerber Fmt 4.6, Leading zero omitted, Abs format (unit mm)*
G04 Created by KiCad (PCBNEW 8.0.8) date 2025-03-07 18:47:05*
%MOMM*%
%LPD*%
G01*
G04 APERTURE LIST*
G04 Aperture macros list*
%AMRoundRect*
0 Rectangle with rounded corners*
0 $1 Rounding radius*
0 $2 $3 $4 $5 $6 $7 $8 $9 X,Y pos of 4 corners*
0 Add a 4 corners polygon primitive as box body*
4,1,4,$2,$3,$4,$5,$6,$7,$8,$9,$2,$3,0*
0 Add four circle primitives for the rounded corners*
1,1,$1+$1,$2,$3*
1,1,$1+$1,$4,$5*
1,1,$1+$1,$6,$7*
1,1,$1+$1,$8,$9*
0 Add four rect primitives between the rounded corners*
20,1,$1+$1,$2,$3,$4,$5,0*
20,1,$1+$1,$4,$5,$6,$7,0*
20,1,$1+$1,$6,$7,$8,$9,0*
20,1,$1+$1,$8,$9,$2,$3,0*%
G04 Aperture macros list end*
%ADD10RoundRect,0.175000X-0.325000X0.175000X-0.325000X-0.175000X0.325000X-0.175000X0.325000X0.175000X0*%
%ADD11RoundRect,0.237500X-0.237500X0.250000X-0.237500X-0.250000X0.237500X-0.250000X0.237500X0.250000X0*%
%ADD12RoundRect,0.160000X-0.160000X0.197500X-0.160000X-0.197500X0.160000X-0.197500X0.160000X0.197500X0*%
%ADD13RoundRect,0.155000X0.155000X-0.212500X0.155000X0.212500X-0.155000X0.212500X-0.155000X-0.212500X0*%
%ADD14RoundRect,0.237500X0.300000X0.237500X-0.300000X0.237500X-0.300000X-0.237500X0.300000X-0.237500X0*%
%ADD15RoundRect,0.237500X-0.287500X-0.237500X0.287500X-0.237500X0.287500X0.237500X-0.287500X0.237500X0*%
%ADD16RoundRect,0.155000X-0.212500X-0.155000X0.212500X-0.155000X0.212500X0.155000X-0.212500X0.155000X0*%
%ADD17RoundRect,0.160000X0.197500X0.160000X-0.197500X0.160000X-0.197500X-0.160000X0.197500X-0.160000X0*%
%ADD18RoundRect,0.237500X0.287500X0.237500X-0.287500X0.237500X-0.287500X-0.237500X0.287500X-0.237500X0*%
%ADD19RoundRect,0.155000X-0.155000X0.212500X-0.155000X-0.212500X0.155000X-0.212500X0.155000X0.212500X0*%
%ADD20RoundRect,0.250000X-0.475000X0.337500X-0.475000X-0.337500X0.475000X-0.337500X0.475000X0.337500X0*%
%ADD21RoundRect,0.250000X0.475000X-0.337500X0.475000X0.337500X-0.475000X0.337500X-0.475000X-0.337500X0*%
%ADD22R,1.365000X4.070000*%
G04 APERTURE END LIST*
D10*
%TO.C,U2*%
X113820000Y-93490000D03*
X113820000Y-94490000D03*
X113820000Y-95490000D03*
X116020000Y-93490000D03*
X116020000Y-94490000D03*
X116020000Y-95490000D03*
%TD*%
D11*
%TO.C,R3*%
X115040000Y-97297500D03*
X115040000Y-99122500D03*
%TD*%
D12*
%TO.C,R5*%
X113000000Y-106502500D03*
X113000000Y-107697500D03*
%TD*%
D11*
%TO.C,R8*%
X105918000Y-82399500D03*
X105918000Y-84224500D03*
%TD*%
D13*
%TO.C,C1*%
X126100000Y-75700000D03*
X126100000Y-74565000D03*
%TD*%
D14*
%TO.C,C4*%
X119002500Y-98220000D03*
X117277500Y-98220000D03*
%TD*%
D15*
%TO.C,D2*%
X106593000Y-108221000D03*
X108343000Y-108221000D03*
%TD*%
%TO.C,D3*%
X106693000Y-105396000D03*
X108443000Y-105396000D03*
%TD*%
D16*
%TO.C,C5*%
X112932500Y-110400000D03*
X114067500Y-110400000D03*
%TD*%
D12*
%TO.C,R1*%
X109100000Y-99100000D03*
X109100000Y-100295000D03*
%TD*%
D17*
%TO.C,R4*%
X111200000Y-106800000D03*
X110005000Y-106800000D03*
%TD*%
%TO.C,R7*%
X111165500Y-105496000D03*
X109970500Y-105496000D03*
%TD*%
D18*
%TO.C,D1*%
X112375000Y-102500000D03*
X110625000Y-102500000D03*
%TD*%
D19*
%TO.C,C8*%
X110770000Y-91865000D03*
X110770000Y-93000000D03*
%TD*%
%TO.C,C6*%
X109000000Y-93030000D03*
X109000000Y-91895000D03*
%TD*%
D20*
%TO.C,C3*%
X119100000Y-90382500D03*
X119100000Y-92457500D03*
%TD*%
D21*
%TO.C,C2*%
X110800000Y-97037500D03*
X110800000Y-94962500D03*
%TD*%
D17*
%TO.C,R2*%
X118847500Y-95850000D03*
X117652500Y-95850000D03*
%TD*%
D13*
%TO.C,C7*%
X104400000Y-81067500D03*
X104400000Y-79932500D03*
%TD*%
D22*
%TO.C,L1*%
X116350000Y-88940000D03*
X112822500Y-88925000D03*
%TD*%
M02*
